<svg xmlns="http://www.w3.org/2000/svg" width="1920" height="500.127" viewBox="0 0 1920 500.127">
  <g id="AMCLogo" transform="translate(-31.74 -154.699)">
    <path id="Path_2861" data-name="Path 2861" d="M422.989,244.358c-3.465-5.775-8.085-10.973-14.438-13.86a37.539,37.539,0,0,0-38.116,0A41.49,41.49,0,0,0,356,244.358a37.865,37.865,0,0,0-5.2,19.058,39.969,39.969,0,0,0,5.2,19.635c3.465,5.775,8.085,10.973,14.438,13.86a37.539,37.539,0,0,0,38.116,0,47.115,47.115,0,0,0,14.438-13.86,38.408,38.408,0,0,0,5.2-19.635,37.865,37.865,0,0,0-5.2-19.058Zm-5.2,35.806a26.065,26.065,0,0,1-12.128,11.55,34.362,34.362,0,0,1-32.341,0,31.946,31.946,0,0,1-16.748-28.3,31.046,31.046,0,0,1,4.62-16.17,30.626,30.626,0,0,1,12.128-12.128,30.608,30.608,0,0,1,32.341,0,30.627,30.627,0,0,1,12.128,12.128,32.667,32.667,0,0,1,4.62,16.17c-.577,6.353-1.733,11.55-4.62,16.748Z" transform="translate(1523.554 337.125)" fill="#fff"/>
    <path id="Path_2862" data-name="Path 2862" d="M571.482,159.176c-4.043-.578-103.375-14.438-218.3,25.988C246.342,222.7,103.119,313.95,35.549,539.18c-11.55,38.116,0,89.515,79.119,82.584h295.11a60.061,60.061,0,1,0,0-120.123H177.618c87.782-187.115,243.711-221.188,325.14-225.23v287.6a60.061,60.061,0,0,0,120.123,0V218.66c0-30.031-21.945-55.441-51.4-59.484Z" transform="translate(0 8.229)" fill="#fff"/>
    <path id="Path_2863" data-name="Path 2863" d="M232.288,156.8Z" transform="translate(945.584 10.028)" fill="#fff"/>
    <path id="Path_2864" data-name="Path 2864" d="M670.815,157.06c-75.077,1.733-124.166,25.988-159.394,64.1-31.763-35.228-86.05-64.682-159.394-64.1-82.007-5.775-224.075,68.147-213.68,201.552V562.475a60.061,60.061,0,0,0,120.123,0V359.19c.578-70.457,76.232-81.429,93.557-82.007,85.472-2.31,98.177,71.612,98.177,82.007V562.475c0,32.918,28.3,60.061,61.216,60.061s61.216-26.566,61.216-60.061V359.19c3.465-75.077,74.5-83.162,98.177-82.007,13.86,1.155,89.515,5.2,93.557,82.007V562.475a60.061,60.061,0,1,0,120.123,0V358.613c2.31-11.55-6.93-195.2-213.68-201.552Z" transform="translate(506.48 9.767)" fill="#fff"/>
    <path id="Path_2865" data-name="Path 2865" d="M718.9,437.1a59.908,59.908,0,0,0-80.852,26.566A129.951,129.951,0,0,1,521.964,534.7c-34.651,0-67.569-13.283-91.825-38.116a128.411,128.411,0,0,1-38.116-91.825c0-34.651,13.283-67.569,38.116-91.825a128.41,128.41,0,0,1,91.825-38.116c52.554,0,100.487,29.453,118.968,72.767a60.135,60.135,0,0,0,110.305-47.934C713.7,213.029,621.3,154.7,521.964,154.7,383.938,154.7,271.9,266.738,271.9,404.764c0,66.992,25.988,129.363,73.344,176.719s109.728,73.344,176.719,73.344a248.85,248.85,0,0,0,222.92-136.871c15.593-30.031,3.465-66.414-25.988-80.852Z" transform="translate(1146.795)" fill="#fff"/>
    <path id="Path_2866" data-name="Path 2866" d="M380.888,260.818q-2.6-5.2-5.2-6.93c2.887-1.155,5.775-3.465,6.93-5.775a12.7,12.7,0,0,0,2.31-7.508,11.643,11.643,0,0,0-1.732-6.353,11.824,11.824,0,0,0-4.62-4.62q-2.6-1.732-8.663-1.733H354.9v47.356h7.507V255.043h5.775c.578,0,2.31,1.732,4.043,4.62l1.733,2.887,6.353,12.128h8.663l-8.085-13.86Zm-13.283-11.55h-5.2V233.1h5.775a12.427,12.427,0,0,1,5.775,1.155,5.765,5.765,0,0,1,2.31,2.888,7.324,7.324,0,0,1,.578,3.465,7.415,7.415,0,0,1-2.31,5.775c-1.155,2.31-3.465,2.888-6.93,2.888Z" transform="translate(1543.132 349.54)" fill="#fff"/>
  </g>
</svg>
