<svg xmlns="http://www.w3.org/2000/svg" xmlns:xlink="http://www.w3.org/1999/xlink" width="1920" height="1126.161" viewBox="0 0 1920 1126.161">
  <defs>
    <clipPath id="clip-path">
      <rect id="Rectangle_3172" data-name="Rectangle 3172" width="1920" height="406.158" fill="#f5f5f5"/>
    </clipPath>
    <clipPath id="clip-path-2">
      <rect id="Rectangle_3174" data-name="Rectangle 3174" width="1920" height="664.616" fill="#f5f5f5"/>
    </clipPath>
  </defs>
  <g id="App02" transform="translate(-332 -6480)">
    <g id="Group_1544" data-name="Group 1544" transform="translate(332 6480)" opacity="0.9">
      <g id="Group_1543" data-name="Group 1543">
        <g id="Group_1542" data-name="Group 1542" clip-path="url(#clip-path)">
          <path id="Path_3747" data-name="Path 3747" d="M1877.267,495.929H83.039a63.058,63.058,0,0,1-62.885-62.885V152.656A63.07,63.07,0,0,1,83.039,89.771H1877.267a63.081,63.081,0,0,1,62.885,62.885V433.044a63.07,63.07,0,0,1-62.885,62.885" transform="translate(-20.152 -89.771)" fill="#f5f5f5"/>
        </g>
      </g>
    </g>
    <text id="Thor_Ragnarok_is_releasing_in_a_week._Book_now_" data-name="Thor Ragnarok is releasing in a week. Book now!" transform="translate(413.133 6789.015)" font-size="58" font-family="HelveticaNeue-Medium, Helvetica Neue" font-weight="500" letter-spacing="0.01em"><tspan x="0" y="0">Thor Ragnarok is releasing in a week. Book now!</tspan></text>
    <text id="AMC_THEATRES" data-name="AMC THEATRES" transform="translate(615.764 6629.456)" fill="#643e12" font-size="57" font-family="HelveticaNeue, Helvetica Neue"><tspan x="0" y="0">AMC THE</tspan><tspan y="0" letter-spacing="-0.091em">A</tspan><tspan y="0">TRES</tspan></text>
    <path id="Path_3748" data-name="Path 3748" d="M125.086,223.314H53.566a29.054,29.054,0,0,1-29.06-29.06V122.733a29.054,29.054,0,0,1,29.06-29.06h71.52a29.065,29.065,0,0,1,29.06,29.06v71.521a29.065,29.065,0,0,1-29.06,29.06" transform="translate(383.729 6454.676)"/>
    <path id="Path_3749" data-name="Path 3749" d="M142.609,152.9A58.882,58.882,0,1,1,83.718,94.012,58.886,58.886,0,0,1,142.609,152.9" transform="translate(389.328 6460.275)" fill="#ff3b30"/>
    <path id="Path_3750" data-name="Path 3750" d="M48.522,100.257a10.54,10.54,0,0,1,5.448-3.171c4.116-.928,8.04-.525,11.491,2.1a10.946,10.946,0,0,1,4.292,8.9c.07,3.836.018,7.69,0,11.526a3.384,3.384,0,0,1-3.556,3.521,3.343,3.343,0,0,1-3.206-3.048c-.053-.613-.035-1.226-.035-1.839,0-3.118-.035-6.253.018-9.389.07-3.661-2.172-5.115-5.01-5.378a7.284,7.284,0,0,0-2.382.193,4.488,4.488,0,0,0-3.643,4.677c-.017,3.8,0,7.6,0,11.386a3.459,3.459,0,0,1-6.709,1.139,4.176,4.176,0,0,1-.193-1.4c-.018-3.556-.018-7.112-.018-10.65A5.224,5.224,0,0,0,38.66,103.5a9.6,9.6,0,0,0-2.084.648,4.231,4.231,0,0,0-2.592,4.134c0,3.784.018,7.585,0,11.386a3.39,3.39,0,1,1-6.779.07c-.018-3.836,0-7.672-.018-11.508a11.472,11.472,0,0,1,.4-3.7A10.978,10.978,0,0,1,33.546,98a12.926,12.926,0,0,1,13.19.788,18.872,18.872,0,0,1,1.787,1.471" transform="translate(428.009 6502.29)" fill="#fff"/>
    <path id="Path_3751" data-name="Path 3751" d="M52.087,103.381a21.131,21.131,0,0,0-11.333,3.836,22.579,22.579,0,0,0-7.322,9.074H34.2c4.169.017,8.338,0,12.507.017a3.133,3.133,0,0,1,3.048,1.962,3.2,3.2,0,0,1-.4,3.521,3.386,3.386,0,0,1-2.855,1.3H30.349c-.543,0-1.1.035-1.664.018-2.627-.07-4.116-1.892-3.381-4.4,3.258-11.088,10-18.743,21.616-21.44a25.5,25.5,0,0,1,9.074-.526A3.288,3.288,0,0,1,58.848,100c0,6.621.017,13.242,0,19.864a3.381,3.381,0,0,1-6.761-.053v-16.43Z" transform="translate(393.808 6502.21)" fill="#fff"/>
    <path id="Path_3752" data-name="Path 3752" d="M44.724,125.015c-7.777,0-13.733-5.168-14.784-12.227A14.327,14.327,0,0,1,57,104.538a3.41,3.41,0,0,1-1.734,4.747,3.356,3.356,0,0,1-4.379-1.8,7.639,7.639,0,0,0-10.317-3.311A7.44,7.44,0,0,0,43.2,118.148a7.349,7.349,0,0,0,7.427-3.889,3.446,3.446,0,0,1,2.277-1.874,3.388,3.388,0,0,1,3.819,4.87,13.931,13.931,0,0,1-6.183,6.2,13.663,13.663,0,0,1-5.816,1.559" transform="translate(470.888 6501.686)" fill="#fff"/>
    <g id="Group_1549" data-name="Group 1549" transform="translate(332 6941.545)" opacity="0.9">
      <g id="Group_1548" data-name="Group 1548">
        <g id="Group_1547" data-name="Group 1547" clip-path="url(#clip-path-2)">
          <path id="Path_3753" data-name="Path 3753" d="M1877.267,780.736H83.039a63.058,63.058,0,0,1-62.885-62.885V179A63.069,63.069,0,0,1,83.039,116.12H1877.267A63.081,63.081,0,0,1,1940.152,179V717.851a63.069,63.069,0,0,1-62.885,62.885" transform="translate(-20.152 -116.12)" fill="#f5f5f5"/>
        </g>
      </g>
    </g>
    <text id="Sold_Out_Alert_" data-name="Sold Out Alert!" transform="translate(413.133 7251.684)" font-size="58" font-family="HelveticaNeue-Medium, Helvetica Neue" font-weight="500"><tspan x="0" y="0" letter-spacing="0.01em">So</tspan><tspan y="0" letter-spacing="0.009em">l</tspan><tspan y="0" letter-spacing="0.01em">d</tspan><tspan y="0" letter-spacing="0.009em"> </tspan><tspan y="0" letter-spacing="0.01em">Ou</tspan><tspan y="0" letter-spacing="0.009em">t</tspan><tspan y="0" xml:space="preserve" letter-spacing="0.01em"> Al</tspan><tspan y="0" letter-spacing="0.009em">e</tspan><tspan y="0" letter-spacing="0.01em">r</tspan><tspan y="0" letter-spacing="0.009em">t</tspan><tspan y="0">!</tspan></text>
    <text id="Book_out_of_the_remaining_25_seats_for_" data-name="Book out of the remaining 25 seats for " transform="translate(413.133 7337.295)" font-size="57" font-family="HelveticaNeue, Helvetica Neue"><tspan x="0" y="0" letter-spacing="0.015em">Book</tspan><tspan y="0" letter-spacing="0.014em"> </tspan><tspan y="0" letter-spacing="0.015em">o</tspan><tspan y="0" letter-spacing="0.014em">u</tspan><tspan y="0" letter-spacing="0.015em">t</tspan><tspan y="0" letter-spacing="0.014em"> </tspan><tspan y="0" letter-spacing="0.015em">of t</tspan><tspan y="0" letter-spacing="0.014em">h</tspan><tspan y="0" letter-spacing="0.015em">e</tspan><tspan y="0" letter-spacing="0.014em"> </tspan><tspan y="0" letter-spacing="-0.003em">r</tspan><tspan y="0" letter-spacing="0.015em">emai</tspan><tspan y="0" letter-spacing="0.014em">n</tspan><tspan y="0" letter-spacing="0.015em">ing </tspan><tspan y="0" letter-spacing="0.014em">25</tspan><tspan y="0" xml:space="preserve" letter-spacing="0.015em"> seat</tspan><tspan y="0" letter-spacing="0.014em">s</tspan><tspan y="0" xml:space="preserve" letter-spacing="0.015em"> fo</tspan><tspan y="0" letter-spacing="0.014em">r</tspan><tspan y="0"> </tspan></text>
    <text id="Avengers:_Endgame_at_AMC_Theatres_00" data-name="Avengers: Endgame at AMC Theatres 00" transform="translate(413.133 7425.91)" font-size="57" font-family="HelveticaNeue, Helvetica Neue"><tspan x="0" y="0" letter-spacing="-0.003em">A</tspan><tspan y="0" letter-spacing="0.014em">v</tspan><tspan y="0" letter-spacing="0.015em">e</tspan><tspan y="0" letter-spacing="0.014em">n</tspan><tspan y="0" letter-spacing="0.015em">ge</tspan><tspan y="0" letter-spacing="0.014em">rs</tspan><tspan y="0" letter-spacing="0.015em">: </tspan><tspan y="0" letter-spacing="0.014em">E</tspan><tspan y="0" letter-spacing="0.015em">ndgame at </tspan><tspan y="0" letter-spacing="0.014em">A</tspan><tspan y="0" letter-spacing="0.015em">MC Theat</tspan><tspan y="0" letter-spacing="-0.003em">r</tspan><tspan y="0" letter-spacing="0.015em">e</tspan><tspan y="0" letter-spacing="0.014em">s 0</tspan><tspan y="0">0</tspan></text>
    <text id="on_Saturday_May_25_7:00PM" data-name="on Saturday, May 25 7:00PM" transform="translate(413.133 7514.529)" font-size="57" font-family="HelveticaNeue, Helvetica Neue"><tspan x="0" y="0" letter-spacing="0.015em">on </tspan><tspan y="0" letter-spacing="0.014em">S</tspan><tspan y="0" letter-spacing="0.015em">at</tspan><tspan y="0" letter-spacing="0.014em">u</tspan><tspan y="0" letter-spacing="-0.003em">r</tspan><tspan y="0" letter-spacing="0.015em">da</tspan><tspan y="0" letter-spacing="-0.058em">y</tspan><tspan y="0" letter-spacing="0.015em">, Ma</tspan><tspan y="0" letter-spacing="0.014em">y</tspan><tspan y="0" xml:space="preserve" letter-spacing="0.015em"> 2</tspan><tspan y="0" letter-spacing="0.014em">5</tspan><tspan y="0" letter-spacing="0.015em"> </tspan><tspan y="0" letter-spacing="0.014em">7</tspan><tspan y="0" letter-spacing="0.015em">:</tspan><tspan y="0" letter-spacing="0.014em">00</tspan><tspan y="0" letter-spacing="0.015em">P</tspan><tspan y="0">M</tspan></text>
    <text id="AMC_THEATRES-2" data-name="AMC THEATRES" transform="translate(615.764 7092.118)" fill="#643e12" font-size="57" font-family="HelveticaNeue, Helvetica Neue"><tspan x="0" y="0">AMC THE</tspan><tspan y="0" letter-spacing="-0.091em">A</tspan><tspan y="0">TRES</tspan></text>
    <path id="Path_3754" data-name="Path 3754" d="M125.086,120.088H53.566a29.054,29.054,0,0,0-29.06,29.06v71.52a29.054,29.054,0,0,0,29.06,29.06h71.52a29.066,29.066,0,0,0,29.06-29.06v-71.52a29.066,29.066,0,0,0-29.06-29.06" transform="translate(383.729 6890.96)"/>
    <path id="Path_3755" data-name="Path 3755" d="M142.609,179.318a58.882,58.882,0,1,1-58.891-58.891,58.886,58.886,0,0,1,58.891,58.891" transform="translate(389.328 6896.56)" fill="#ff3b30"/>
    <path id="Path_3756" data-name="Path 3756" d="M48.522,126.672a10.537,10.537,0,0,1,5.448-3.17c4.116-.928,8.04-.526,11.491,2.1a10.946,10.946,0,0,1,4.292,8.9c.07,3.836.018,7.69,0,11.526a3.384,3.384,0,0,1-3.556,3.521,3.343,3.343,0,0,1-3.206-3.048c-.053-.613-.035-1.226-.035-1.839,0-3.118-.035-6.254.018-9.389.07-3.661-2.172-5.115-5.01-5.377a7.281,7.281,0,0,0-2.382.193,4.488,4.488,0,0,0-3.643,4.677c-.017,3.8,0,7.6,0,11.4a3.459,3.459,0,0,1-6.709,1.121,4.176,4.176,0,0,1-.193-1.4q-.026-5.334-.018-10.65a5.224,5.224,0,0,0-6.359-5.325,9.609,9.609,0,0,0-2.084.648,4.231,4.231,0,0,0-2.592,4.134c0,3.784.018,7.585,0,11.386a3.39,3.39,0,1,1-6.779.07c-.018-3.836,0-7.672-.018-11.508a11.471,11.471,0,0,1,.4-3.7,10.978,10.978,0,0,1,5.956-6.534,12.926,12.926,0,0,1,13.19.788,18.869,18.869,0,0,1,1.787,1.471" transform="translate(428.009 6938.578)" fill="#fff"/>
    <path id="Path_3757" data-name="Path 3757" d="M52.087,129.8a21.135,21.135,0,0,0-11.333,3.836,22.58,22.58,0,0,0-7.322,9.074H34.2c4.169.018,8.338,0,12.507.018a3.133,3.133,0,0,1,3.048,1.962,3.2,3.2,0,0,1-.4,3.521,3.386,3.386,0,0,1-2.855,1.3H30.349c-.543,0-1.1.035-1.664.018-2.627-.07-4.116-1.892-3.381-4.4,3.258-11.088,10-18.743,21.616-21.44a25.5,25.5,0,0,1,9.074-.526,3.287,3.287,0,0,1,2.855,3.258c0,6.621.017,13.242,0,19.864a3.381,3.381,0,0,1-6.761-.053V129.8Z" transform="translate(393.808 6938.516)" fill="#fff"/>
    <path id="Path_3758" data-name="Path 3758" d="M44.724,151.43c-7.777,0-13.733-5.167-14.784-12.227A14.328,14.328,0,0,1,57,130.953a3.41,3.41,0,0,1-1.734,4.747,3.356,3.356,0,0,1-4.379-1.8,7.639,7.639,0,0,0-10.317-3.311A7.44,7.44,0,0,0,43.2,144.563a7.349,7.349,0,0,0,7.427-3.889A3.447,3.447,0,0,1,52.9,138.8a3.388,3.388,0,0,1,3.819,4.87,13.929,13.929,0,0,1-6.183,6.2,13.662,13.662,0,0,1-5.816,1.559" transform="translate(470.888 6937.975)" fill="#fff"/>
  </g>
</svg>
