<svg id="UserResearch02" xmlns="http://www.w3.org/2000/svg" width="1920.19" height="981.635" viewBox="0 0 1920.19 981.635">
  <path id="Stat1" d="M0,0H1920.19V981.635H0Z" transform="translate(0)" fill="#fff"/>
  <g id="Group_1510" data-name="Group 1510" transform="translate(556.858 80.326)">
    <path id="Path_2867" data-name="Path 2867" d="M392.6,470.812c-190.815,0-357-135.493-395.151-322.172l60.789-12.423C90.513,294.143,231.132,408.766,392.6,408.766A339.177,339.177,0,0,0,632.918,309.8l43.691,44.054A400.841,400.841,0,0,1,392.6,470.812Z" transform="translate(10.726 334.856)" fill="#cc7e8e"/>
    <path id="Path_2870" data-name="Path 2870" d="M399.9,684.693l-43.691-44.054A338.909,338.909,0,0,0,457.169,398.32c0-188.179-153.095-341.274-341.273-341.274V-5C338.287-5,519.215,175.929,519.215,398.32,519.215,506.684,476.842,608.387,399.9,684.693Z" transform="translate(287.43 4.999)" fill="#881b32"/>
    <path id="Path_2871" data-name="Path 2871" d="M3.174,441.678A406.474,406.474,0,0,1,7.322,261.236c26.5-104.642,95.5-195.784,189.315-250.056l31.069,53.706C148.287,110.83,89.883,187.948,67.47,276.465a344.427,344.427,0,0,0-3.507,152.787Z" transform="translate(5.001 42.797)" fill="#f2d0d7"/>
    <path id="Path_2872" data-name="Path 2872" d="M86.51,102.683,55.441,48.977A403.2,403.2,0,0,1,257.125-5V57.046A341.08,341.08,0,0,0,86.51,102.683Z" transform="translate(146.201 5)" fill="#c4c4c4"/>
  </g>
  <path id="Path_4892" data-name="Path 4892" d="M1.072,24.05H5.093V-5.136h.1S6.085-2.456,6.78-.669L16.509,24.05h3.425L29.663-.669c.645-1.688,1.588-4.467,1.588-4.467h.1V24.05h4.269V-11.44H29.812L18.4,18.044h-.1L6.78-11.44H1.072Zm51.572.695c7.694,0,12.359-6.056,12.359-13.5s-4.666-13.5-12.359-13.5C45-2.257,40.235,3.8,40.235,11.244S45,24.745,52.644,24.745Zm0-3.375c-5.46,0-8.289-4.467-8.289-10.126S47.184,1.068,52.644,1.068s8.24,4.517,8.24,10.175S58.1,21.37,52.644,21.37Zm20.4-22.982H69.024V24.05h4.021V8.266a6.789,6.789,0,0,1,7.048-7.1c3.623,0,5.807,1.886,5.807,5.212V24.05h4.021V6.032c0-5.311-3.276-8.24-8.637-8.24a9.619,9.619,0,0,0-8.14,3.971h-.1ZM93.1,1.664h3.723V19.235c0,3.623,2.383,4.964,5.659,4.964a15.671,15.671,0,0,0,3.226-.347V20.377h-.149a7.631,7.631,0,0,1-2.134.347c-1.638,0-2.581-.6-2.581-2.383V1.664H105.8V-1.612h-4.964V-9.7H96.821v8.091H93.1Zm20.9-13.1h-4.021V24.05h4.021V8.266a6.789,6.789,0,0,1,7.048-7.1c3.623,0,5.807,1.886,5.807,5.212V24.05h4.021V6.032c0-5.311-3.276-8.24-8.637-8.24a9.619,9.619,0,0,0-8.14,3.971h-.1Zm22.336,35.49h4.021V-11.44h-4.021Zm12.905,8.488c3.127,0,5.113-1.092,7.2-6.4L167.4-1.612h-4.269l-5.857,15.983c-.794,2.134-1.688,5.013-1.688,5.013h-.1s-.943-2.879-1.737-5.013L147.7-1.612H143.33l10.027,24.917-.993,2.531c-.993,2.482-2.134,3.127-3.822,3.127a5.643,5.643,0,0,1-2.73-.546h-.2v3.574A8.85,8.85,0,0,0,149.237,32.538Z" transform="translate(1360.93 291.479)" fill="#881b32"/>
  <path id="Path_4893" data-name="Path 4893" d="M15.491,25.216c7.644,0,13.054-3.723,13.054-10.374,0-7.991-6.3-9.679-13.2-11.069C10.031,2.731,6.06,1.539,6.06-2.481c0-3.673,3.177-5.708,7.991-5.708,5.212,0,8.488,2.531,9.133,7.594H27.4c-.893-6.552-4.567-11.069-13.451-11.069-7.2,0-12.062,3.524-12.062,9.381,0,6.7,5.361,8.488,11.615,9.878,6.353,1.39,10.622,2.531,10.622,7.4,0,4.418-3.524,6.651-8.438,6.651-6.7,0-10.374-3.127-10.97-9.133H.352C.749,19.657,5.514,25.216,15.491,25.216Zm28.541,0c5.807,0,9.828-3.127,11.019-8.637H51.13c-.893,3.475-3.375,5.261-7.1,5.261-5.162,0-7.991-3.971-8.289-9.183H55.6c0-8.488-4.12-14.444-11.813-14.444-7.3,0-12.161,6.056-12.161,13.5S36.19,25.216,44.032,25.216ZM43.784,1.39c4.616,0,7.247,3.127,7.5,8.24H35.842C36.438,4.964,39.019,1.39,43.784,1.39ZM65.376,24.521h4.467L79.075-1.141H74.906L69.5,15.14c-.745,2.234-1.688,5.41-1.688,5.41h-.1s-.943-3.127-1.688-5.41L60.71-1.141H56.392Zm27,.695c5.807,0,9.828-3.127,11.019-8.637H99.476c-.893,3.475-3.375,5.261-7.1,5.261-5.162,0-7.991-3.971-8.289-9.183h19.855c0-8.488-4.12-14.444-11.813-14.444-7.3,0-12.161,6.056-12.161,13.5S84.535,25.216,92.378,25.216ZM92.13,1.39c4.616,0,7.247,3.127,7.5,8.24H84.188C84.784,4.964,87.365,1.39,92.13,1.39Zm19.755-2.531h-4.021V24.521h4.021V10.275a7.4,7.4,0,0,1,7.445-7.793,4.862,4.862,0,0,1,1.787.248h.149V-1.141a3.866,3.866,0,0,0-1.638-.3,9.105,9.105,0,0,0-7.644,4.567h-.1Zm32.164,25.91a5.5,5.5,0,0,0,2.184-.4V21.444h-.149c-2.234.5-2.73-.645-2.73-2.73V6.5c0-6.105-4.021-8.14-9.481-8.14-6.8,0-10.076,3.723-10.225,8.686h3.872c.149-3.872,2.234-5.659,6.4-5.659,3.673,0,5.758,1.638,5.758,4.517,0,2.78-2.531,3.127-6.155,3.673-6.4.993-11.168,2.234-11.168,8.289,0,4.864,3.822,7.148,8.686,7.148a10.311,10.311,0,0,0,8.537-4.07h.05C140.029,23.578,141.419,24.769,144.049,24.769ZM131.938,21.94c-2.631,0-5.311-.745-5.311-4.169,0-3.772,3.226-4.467,7.247-5.212a18.464,18.464,0,0,0,5.857-1.886V15.04C139.731,18.019,137.3,21.94,131.938,21.94Zm17.422,2.581h4.021v-35.49h-4.021ZM165.244,2.135h3.723V19.706c0,3.623,2.383,4.964,5.659,4.964a15.671,15.671,0,0,0,3.226-.347V20.848H177.7a7.631,7.631,0,0,1-2.134.347c-1.638,0-2.581-.6-2.581-2.383V2.135h4.964V-1.141h-4.964V-9.232h-4.021v8.091h-3.723Zm16.876,22.386h4.021V-1.141h-4.021Zm0-30.526h4.021v-4.964h-4.021ZM191.6,24.521h4.021V8.538a6.962,6.962,0,0,1,6.6-6.9c2.631,0,4.418,1.886,4.418,5.063V24.521h4.021V8.538a6.59,6.59,0,0,1,6.3-6.9c2.581,0,4.715,1.886,4.715,5.063V24.521H225.7V6.5c0-5.311-3.226-8.24-7.793-8.24a8.983,8.983,0,0,0-7.843,4.567h-.1a6.753,6.753,0,0,0-6.7-4.567,9,9,0,0,0-7.545,4.269h-.1V-1.141H191.6Zm50.381.695c5.807,0,9.828-3.127,11.019-8.637H249.08c-.893,3.475-3.375,5.261-7.1,5.261-5.162,0-7.991-3.971-8.289-9.183h19.855c0-8.488-4.12-14.444-11.813-14.444-7.3,0-12.161,6.056-12.161,13.5S234.14,25.216,241.982,25.216ZM241.734,1.39c4.616,0,7.247,3.127,7.5,8.24H233.792C234.388,4.964,236.969,1.39,241.734,1.39ZM267.2,25.266c5.907,0,10.126-2.631,10.126-7.793,0-5.907-4.318-7.048-9.481-8.091-4.418-.893-6.9-1.439-6.9-4.219,0-2.035,1.489-3.673,5.162-3.673,3.822,0,5.659,1.489,6.056,4.864h4.12c-.6-5.013-3.723-8.041-10.076-8.041-5.956,0-9.232,2.78-9.232,7.048,0,5.609,4.517,6.651,9.58,7.694,4.715.993,6.7,1.737,6.7,4.616,0,2.383-1.737,4.219-5.956,4.219-3.822,0-6.8-1.241-7.346-5.708h-4.12C256.228,21.94,260.149,25.266,267.2,25.266Zm42.042-.5a5.5,5.5,0,0,0,2.184-.4V21.444h-.149c-2.234.5-2.73-.645-2.73-2.73V6.5c0-6.105-4.021-8.14-9.481-8.14-6.8,0-10.076,3.723-10.225,8.686h3.872c.149-3.872,2.234-5.659,6.4-5.659,3.673,0,5.758,1.638,5.758,4.517,0,2.78-2.531,3.127-6.155,3.673-6.4.993-11.168,2.234-11.168,8.289,0,4.864,3.822,7.148,8.686,7.148a10.311,10.311,0,0,0,8.537-4.07h.05C305.219,23.578,306.609,24.769,309.24,24.769ZM297.128,21.94c-2.631,0-5.311-.745-5.311-4.169,0-3.772,3.226-4.467,7.247-5.212a18.464,18.464,0,0,0,5.857-1.886V15.04C304.921,18.019,302.489,21.94,297.128,21.94ZM325.57,33.009c3.127,0,5.113-1.092,7.2-6.4l10.97-27.747h-4.269l-5.857,15.983c-.794,2.134-1.688,5.013-1.688,5.013h-.1s-.943-2.879-1.737-5.013L324.031-1.141h-4.368L329.69,23.776l-.993,2.531c-.993,2.482-2.134,3.127-3.822,3.127a5.643,5.643,0,0,1-2.73-.546h-.2v3.574A8.85,8.85,0,0,0,325.57,33.009Zm31.47-7.793c5.807,0,9.828-3.127,11.019-8.637h-3.921c-.893,3.475-3.375,5.261-7.1,5.261-5.162,0-7.991-3.971-8.289-9.183H368.6c0-8.488-4.12-14.444-11.813-14.444-7.3,0-12.161,6.056-12.161,13.5S349.2,25.216,357.039,25.216ZM356.791,1.39c4.616,0,7.247,3.127,7.5,8.24H348.849C349.445,4.964,352.026,1.39,356.791,1.39Zm35.887,23.379a5.5,5.5,0,0,0,2.184-.4V21.444h-.149c-2.234.5-2.73-.645-2.73-2.73V6.5c0-6.105-4.021-8.14-9.481-8.14-6.8,0-10.076,3.723-10.225,8.686h3.872c.149-3.872,2.234-5.659,6.4-5.659,3.673,0,5.758,1.638,5.758,4.517,0,2.78-2.531,3.127-6.155,3.673-6.4.993-11.168,2.234-11.168,8.289,0,4.864,3.822,7.148,8.686,7.148a10.311,10.311,0,0,0,8.537-4.07h.05C388.658,23.578,390.048,24.769,392.678,24.769ZM380.567,21.94c-2.631,0-5.311-.745-5.311-4.169,0-3.772,3.226-4.467,7.247-5.212a18.463,18.463,0,0,0,5.857-1.886V15.04C388.36,18.019,385.928,21.94,380.567,21.94ZM401.861-1.141h-4.021V24.521h4.021V10.275a7.4,7.4,0,0,1,7.445-7.793,4.862,4.862,0,0,1,1.787.248h.149V-1.141a3.866,3.866,0,0,0-1.638-.3,9.105,9.105,0,0,0-7.644,4.567h-.1Z" transform="translate(776.594 944.705)" fill="#881b32"/>
  <path id="Path_4891" data-name="Path 4891" d="M18.013,25.333c10.721,0,17.373-7.892,17.373-18.514S28.734-11.7,18.013-11.7.64-3.8.64,6.818,7.291,25.333,18.013,25.333Zm0-3.921c-8.339,0-12.806-6.254-12.806-14.593S9.674-7.824,18.013-7.824s12.806,6.3,12.806,14.643S26.352,21.412,18.013,21.412ZM38.463,2.2h3.723V19.774c0,3.623,2.383,4.964,5.659,4.964a15.671,15.671,0,0,0,3.226-.347V20.915h-.149a7.631,7.631,0,0,1-2.134.347c-1.638,0-2.581-.6-2.581-2.383V2.2H51.17V-1.074H46.206V-9.165H42.186v8.091H38.463Zm20.9-13.1H55.339v35.49H59.36V8.8a6.789,6.789,0,0,1,7.048-7.1c3.623,0,5.807,1.886,5.807,5.212V24.588h4.021V6.57c0-5.311-3.276-8.24-8.637-8.24A9.619,9.619,0,0,0,59.459,2.3h-.1ZM92.517,25.283c5.807,0,9.828-3.127,11.019-8.637H99.615c-.893,3.475-3.375,5.261-7.1,5.261-5.162,0-7.991-3.971-8.289-9.183h19.855c0-8.488-4.12-14.444-11.813-14.444-7.3,0-12.161,6.056-12.161,13.5S84.674,25.283,92.517,25.283ZM92.269,1.458c4.616,0,7.247,3.127,7.5,8.24H84.327C84.923,5.031,87.5,1.458,92.269,1.458Zm19.755-2.531H108V24.588h4.021V10.343A7.4,7.4,0,0,1,119.47,2.55a4.862,4.862,0,0,1,1.787.248h.149V-1.074a3.866,3.866,0,0,0-1.638-.3,9.105,9.105,0,0,0-7.644,4.567h-.1Z" transform="translate(453.407 290.941)" fill="#881b32"/>
  <path id="Path_4894" data-name="Path 4894" d="M1.072,24.05H5.241V-5.087h.1S6.83-2.406,7.971-.669L24.252,24.05h4.567V-11.44H24.649V17.8h-.1s-1.39-2.73-2.581-4.567L5.787-11.44H1.072Zm44.772.695c5.807,0,9.828-3.127,11.019-8.637H52.942c-.893,3.475-3.375,5.261-7.1,5.261-5.162,0-7.991-3.971-8.289-9.183H57.409C57.409,3.7,53.29-2.257,45.6-2.257c-7.3,0-12.161,6.056-12.161,13.5S38,24.745,45.844,24.745ZM45.6.919c4.616,0,7.247,3.127,7.5,8.24H37.654C38.25,4.493,40.831.919,45.6.919ZM67.188,24.05h4.467L80.887-1.612H76.718l-5.41,16.281c-.745,2.234-1.688,5.41-1.688,5.41h-.1s-.943-3.127-1.688-5.41L62.522-1.612H58.2Zm27,.695c5.807,0,9.828-3.127,11.019-8.637h-3.921c-.893,3.475-3.375,5.261-7.1,5.261-5.162,0-7.991-3.971-8.289-9.183h19.855c0-8.488-4.12-14.444-11.813-14.444-7.3,0-12.161,6.056-12.161,13.5S86.347,24.745,94.19,24.745ZM93.942.919c4.616,0,7.247,3.127,7.5,8.24H86C86.6,4.493,89.177.919,93.942.919ZM113.7-1.612h-4.021V24.05H113.7V9.8a7.4,7.4,0,0,1,7.445-7.793,4.862,4.862,0,0,1,1.787.248h.149V-1.612a3.866,3.866,0,0,0-1.638-.3A9.105,9.105,0,0,0,113.8,2.657h-.1Z" transform="translate(775.614 22.484)" fill="#555"/>
</svg>
