<svg id="Tools02" xmlns="http://www.w3.org/2000/svg" xmlns:xlink="http://www.w3.org/1999/xlink" width="928.294" height="187.051" viewBox="0 0 928.294 187.051">
  <defs>
    <linearGradient id="linear-gradient" x1="0.5" y1="1" x2="0.5" gradientUnits="objectBoundingBox">
      <stop offset="0" stop-color="#0052cc"/>
      <stop offset="1" stop-color="#2684ff"/>
    </linearGradient>
    <clipPath id="clip-path">
      <rect id="Rectangle_3614" data-name="Rectangle 3614" width="191.785" height="187.05" fill="none"/>
    </clipPath>
  </defs>
  <g id="Google_Calendar_icon__2020_" data-name="Google_Calendar_icon_(2020)" transform="translate(0 0.001)">
    <path id="Path_4926" data-name="Path 4926" d="M302.447,56H204v98.447h98.447Z" transform="translate(-159.699 -11.699)" fill="#fff"/>
    <path id="Path_4927" data-name="Path 4927" d="M244,140.3,288.3,96H244Z" transform="translate(-101.251 46.748)" fill="#ea4335"/>
    <path id="Path_4928" data-name="Path 4928" d="M288.3,56H244v98.447h44.3Z" transform="translate(-101.251 -11.699)" fill="#fbbc04"/>
    <path id="Path_4929" data-name="Path 4929" d="M302.447,96H204v44.3h98.447Z" transform="translate(-159.699 46.748)" fill="#34a853"/>
    <path id="Path_4930" data-name="Path 4930" d="M186,96v29.534A14.763,14.763,0,0,0,200.767,140.3H230.3V96Z" transform="translate(-186 46.748)" fill="#188038"/>
    <path id="Path_4931" data-name="Path 4931" d="M288.3,82.3V52.767A14.763,14.763,0,0,0,273.534,38H244V82.3Z" transform="translate(-101.251 -38)" fill="#1967d2"/>
    <path id="Path_4932" data-name="Path 4932" d="M328.749,38H200.767A14.763,14.763,0,0,0,186,52.767V180.748h44.3V82.3h98.447Z" transform="translate(-186 -38)" fill="#4285f4"/>
    <path id="Path_4933" data-name="Path 4933" d="M216.727,120.389a19.031,19.031,0,0,1-7.617-10.915l8.54-3.519a12.967,12.967,0,0,0,4.061,6.867,10.464,10.464,0,0,0,6.99,2.424,10.776,10.776,0,0,0,7.2-2.547,8.136,8.136,0,0,0,3.015-6.485,8.044,8.044,0,0,0-3.175-6.571,12.314,12.314,0,0,0-7.95-2.547h-4.935V88.64h4.43a10.8,10.8,0,0,0,6.9-2.215A7.3,7.3,0,0,0,237,80.358a6.7,6.7,0,0,0-2.51-5.476,9.729,9.729,0,0,0-6.362-2.055,8.554,8.554,0,0,0-5.981,2.006,11.774,11.774,0,0,0-3.224,4.935l-8.454-3.52a18.771,18.771,0,0,1,6.19-8.4A17.85,17.85,0,0,1,228.2,64.2a21.054,21.054,0,0,1,9.328,2.006,15.959,15.959,0,0,1,6.485,5.562,14.2,14.2,0,0,1,2.338,7.987,13.084,13.084,0,0,1-2.178,7.654,15.01,15.01,0,0,1-5.353,4.812v.5a16.255,16.255,0,0,1,6.867,5.353,14.025,14.025,0,0,1,2.683,8.614,16.122,16.122,0,0,1-2.547,8.959,17.645,17.645,0,0,1-7.027,6.19,22.154,22.154,0,0,1-10.079,2.264A20.862,20.862,0,0,1,216.727,120.389Zm52.46-42.382-9.377,6.781-4.689-7.113,16.822-12.134h6.448v57.235h-9.2Z" transform="translate(-152.232 0.283)" fill="#4285f4"/>
  </g>
  <path id="Path_4934" data-name="Path 4934" d="M170.425,38.07H27.815A22.242,22.242,0,0,0,5.58,60.289V202.781a22.242,22.242,0,0,0,22.235,22.339h142.61a22.242,22.242,0,0,0,22.205-22.339V60.289A22.242,22.242,0,0,0,170.425,38.07ZM86.249,172.8a7.434,7.434,0,0,1-7.492,7.407H47.593a7.4,7.4,0,0,1-7.372-7.406V79.99a7.4,7.4,0,0,1,7.372-7.406H78.758a7.434,7.434,0,0,1,7.4,7.406Zm71.919-42.61a7.4,7.4,0,0,1-7.492,7.406H119.512a7.434,7.434,0,0,1-7.4-7.406V79.99a7.434,7.434,0,0,1,7.4-7.406h31.165a7.4,7.4,0,0,1,7.372,7.406Z" transform="translate(228.232 -38.07)" fill-rule="evenodd" fill="url(#linear-gradient)"/>
  <g id="monday-1" transform="translate(467.625 27.983)">
    <path id="Path_4935" data-name="Path 4935" d="M117.78,131.079c-9.733-.238-17.762-4.532-22.89-13.5-5.255-9.266-5.027-18.751.577-27.788,13.34-21.507,26.854-42.9,40.286-64.338,2.747-4.386,5.429-8.835,8.3-13.139A26.918,26.918,0,0,1,180.681,4a26.583,26.583,0,0,1,9,36.77Q165.538,80.09,140.707,119.03C135.607,127.06,127.87,130.933,117.78,131.079Z" transform="translate(-7.675 -0.042)" fill="#ffcb00"/>
    <path id="Path_4936" data-name="Path 4936" d="M26.5,131.088c-9.824-.238-17.808-4.724-22.835-13.651-5.182-9.266-4.853-18.77.769-27.806Q25.956,55.094,47.673,20.658c1.831-2.967,3.662-6.006,5.622-8.881A26.927,26.927,0,0,1,98.534,40.948c-16.041,25.9-32.3,51.713-48.572,77.5-5.283,8.359-13.056,12.5-23.467,12.644Z" transform="translate(0.016 -0.05)" fill="#ff3d57"/>
    <path id="Path_4937" data-name="Path 4937" d="M209.624,85.82c14.805.073,26.79,11.839,26.763,26.268,0,14.649-12.305,26.461-27.248,26.277s-26.717-11.82-26.7-26.314C182.458,97.347,194.489,85.728,209.624,85.82Z" transform="translate(-15.385 -7.283)" fill="#00d647"/>
  </g>
  <g id="Group_2072" data-name="Group 2072" transform="translate(736.509 0.001)">
    <g id="Group_2071" data-name="Group 2071" clip-path="url(#clip-path)">
      <path id="Path_4938" data-name="Path 4938" d="M95.893,0A95.9,95.9,0,0,0,65.578,186.885c4.792.888,6.552-2.08,6.552-4.613,0-2.285-.087-9.841-.13-17.853-26.678,5.8-32.307-11.314-32.307-11.314-4.362-11.082-10.647-14.031-10.647-14.031-8.7-5.952.656-5.829.656-5.829,9.629.676,14.7,9.883,14.7,9.883,8.553,14.658,22.433,10.42,27.905,7.97.862-6.2,3.346-10.428,6.088-12.823C57.095,135.851,34.7,127.627,34.7,90.883a37.114,37.114,0,0,1,9.88-25.739c-1-2.415-4.278-12.168.931-25.377,0,0,8.053-2.576,26.376,9.831a90.916,90.916,0,0,1,48.025,0c18.3-12.407,26.344-9.831,26.344-9.831,5.22,13.209,1.937,22.962.942,25.377a37.04,37.04,0,0,1,9.868,25.739c0,36.833-22.431,44.941-43.786,47.315,3.44,2.976,6.5,8.812,6.5,17.758,0,12.831-.11,23.157-.11,26.316,0,2.553,1.726,5.544,6.585,4.6A95.907,95.907,0,0,0,95.893,0" fill="#131212" fill-rule="evenodd"/>
      <path id="Path_4939" data-name="Path 4939" d="M23.823,87.3c-.211.478-.961.621-1.644.292-.7-.313-1.086-.962-.861-1.44.206-.489.956-.626,1.651-.3s1.093.969.853,1.447" transform="translate(12.497 50.376)" fill="#131212"/>
      <path id="Path_4940" data-name="Path 4940" d="M26.252,90.415c-.457.424-1.353.227-1.958-.443a1.465,1.465,0,0,1-.281-1.993c.472-.424,1.339-.226,1.966.443s.751,1.563.273,1.993" transform="translate(13.952 51.597)" fill="#131212"/>
      <path id="Path_4941" data-name="Path 4941" d="M28.655,94.123c-.588.41-1.55.027-2.144-.826s-.588-1.877.014-2.287,1.542-.04,2.144.805c.586.867.586,1.89-.014,2.307" transform="translate(15.33 53.412)" fill="#131212"/>
      <path id="Path_4942" data-name="Path 4942" d="M32.179,97.441c-.526.58-1.645.424-2.464-.368a1.841,1.841,0,0,1-.545-2.449c.532-.581,1.658-.418,2.484.367s1.086,1.877.526,2.45" transform="translate(16.985 55.43)" fill="#131212"/>
      <path id="Path_4943" data-name="Path 4943" d="M36.946,99c-.232.751-1.31,1.091-2.4.772S32.756,98.56,32.975,97.8s1.308-1.112,2.4-.77,1.794,1.2,1.569,1.964" transform="translate(19.364 56.973)" fill="#131212"/>
      <path id="Path_4944" data-name="Path 4944" d="M41.929,99.1c.027.791-.894,1.447-2.034,1.461s-2.075-.615-2.088-1.393c0-.8.9-1.447,2.047-1.467s2.075.615,2.075,1.4" transform="translate(22.229 57.443)" fill="#131212"/>
      <path id="Path_4945" data-name="Path 4945" d="M46.516,98.2c.137.77-.656,1.563-1.788,1.774-1.113.2-2.144-.273-2.285-1.037-.138-.791.667-1.583,1.78-1.788,1.134-.2,2.149.267,2.293,1.051" transform="translate(24.945 57.095)" fill="#131212"/>
    </g>
  </g>
</svg>
