<svg xmlns="http://www.w3.org/2000/svg" width="302" height="120.184" viewBox="0 0 302 120.184">
  <g id="AbleLogo" transform="translate(-1355.534 -467.602)">
    <path id="Fill_1" data-name="Fill 1" d="M63.024,83.214c-5.3,0-9.226-1.492-11.672-4.435a16.49,16.49,0,0,1-3.073-7.453A42.749,42.749,0,0,1,31.424,81.372a36.682,36.682,0,0,1-11.237,1.842,23.727,23.727,0,0,1-13.78-4.477C2.156,75.767,0,71.079,0,64.8c0-7.662,3.928-13.829,11.675-18.329s20.055-9.085,36.6-13.642V20.385c0-5.043-1.137-8.824-3.378-11.237-2.589-2.784-6.349-4.386-11.83-5.043A24.027,24.027,0,0,0,30.439,4c-2.74,0-6.525.2-9.217.377l-.051,0a.621.621,0,0,1-.633-.518.588.588,0,0,1,.4-.671A48.318,48.318,0,0,1,37.041,0C47.181,0,55.775,1.883,62.585,5.6a18.216,18.216,0,0,1,7.637,8.063,29.231,29.231,0,0,1,2.546,12.823V67.925a4.954,4.954,0,0,0,1.01,3.132,2.854,2.854,0,0,0,2.238,1.3,4.57,4.57,0,0,0,1.886-.374,11.712,11.712,0,0,0,2.591-2.047l2.721,3.592a29.339,29.339,0,0,1-11.675,8.188A24.349,24.349,0,0,1,63.024,83.214ZM48.015,38.767a38.73,38.73,0,0,0-12.64,5.276c-6.116,4.062-9.217,9.3-9.217,15.58,0,3.724.9,6.586,2.679,8.5a8.076,8.076,0,0,0,6.011,2.888A14.489,14.489,0,0,0,43.011,68.5a34.092,34.092,0,0,0,5-4.688Z" transform="translate(1355.534 501.488)" fill="#fff"/>
    <path id="Fill_4" data-name="Fill 4" d="M11.549,120.184H9.123V14.289c0-3.643-.648-6.139-1.925-7.419S3.5,4.682,0,4.169V0H33.147V45.08a39.751,39.751,0,0,1,7.448-5.985,26.769,26.769,0,0,1,13.561-3.628A28.1,28.1,0,0,1,77.467,46.952C83.325,54.571,86.3,64.071,86.3,75.189a59.94,59.94,0,0,1-2.814,19.129A37.638,37.638,0,0,1,62.409,117.26a39.673,39.673,0,0,1-15.368,2.923A26.231,26.231,0,0,1,34.9,117.462a42.436,42.436,0,0,1-9.875-7.15L11.55,120.183ZM45.282,44.911a10.783,10.783,0,0,0-8.832,4.13c-2.192,2.738-3.3,4.728-3.3,5.916v45.818a21.281,21.281,0,0,0,1.839,7.835c2,3.955,5.381,5.96,10.047,5.96,5.833,0,10.014-3.179,12.429-9.449S61.1,89.851,61.1,78.379c0-9.1-1.084-17.035-3.22-23.588S51.5,44.911,45.282,44.911Z" transform="translate(1441.816 467.602)" fill="#fff"/>
    <path id="Fill_7" data-name="Fill 7" d="M0,112.956q4.433-1.1,6.281-2.919t1.848-7.573V14.215q0-5.554-1.725-7.261T0,4.146V0H31.856V102.464q0,5.755,1.806,7.531t6.4,2.961V117.1H0Z" transform="translate(1540.429 467.602)" fill="#fff"/>
    <path id="Fill_9" data-name="Fill 9" d="M34.653,83.214c-8.365,0-16.316-3.345-23.63-9.941A30.577,30.577,0,0,1,2.756,60.364,57.843,57.843,0,0,1,0,41.524C0,28.438,3.526,18.136,10.479,10.9A33.915,33.915,0,0,1,35.74,0,30.64,30.64,0,0,1,51.607,4.427,29.869,29.869,0,0,1,63.046,16.709,47.336,47.336,0,0,1,67.22,32.082,56.481,56.481,0,0,1,67.8,38.85H24.185c0,.125-.229,13.745,1.581,19.561,2.3,7.38,5.6,12.932,9.825,16.5a21.232,21.232,0,0,0,11.947,4.92.606.606,0,0,1,.551.54.592.592,0,0,1-.4.648A42.016,42.016,0,0,1,34.653,83.214ZM35.738,5.348c-4.442,0-7.525,2.333-9.165,6.935s-2.583,11.4-2.8,20.218h23.02c-.113-10.039-.9-17.152-2.347-21.139S40.069,5.348,35.738,5.348Z" transform="translate(1589.731 501.488)" fill="#fff"/>
    <path id="Fill_12" data-name="Fill 12" d="M21.574,10.787A10.787,10.787,0,1,0,10.787,21.574,10.787,10.787,0,0,0,21.574,10.787" transform="translate(1361.698 513.822)" fill="#fff"/>
    <path id="Fill_14" data-name="Fill 14" d="M10.787,0A10.787,10.787,0,1,0,21.574,10.787,10.787,10.787,0,0,0,10.787,0Z" transform="translate(1629.797 553.885)" fill="#fff"/>
  </g>
</svg>
