<svg id="MarketResearch04" xmlns="http://www.w3.org/2000/svg" width="45.383" height="88.176" viewBox="0 0 45.383 88.176">
  <g id="Group_2042" data-name="Group 2042" transform="translate(0)">
    <path id="Path_4885" data-name="Path 4885" d="M101.555,2.939a2.058,2.058,0,0,1,2.055,2.055V83.181a2.058,2.058,0,0,1-2.055,2.055H66.161a2.058,2.058,0,0,1-2.055-2.055V4.995a2.058,2.058,0,0,1,2.055-2.055h35.394m0-2.939H66.161a5,5,0,0,0-4.995,4.995V83.181a5,5,0,0,0,4.995,4.995h35.394a5,5,0,0,0,4.995-4.995V4.995A5,5,0,0,0,101.555,0Z" transform="translate(-61.167 0)" fill="#333"/>
    <path id="Path_4886" data-name="Path 4886" d="M90.119,5.579c0,2.767,1.819,5.03,4.042,5.03H111.2c2.223,0,4.042-2.263,4.042-5.03Zm15.368,2.457H96.213a.49.49,0,0,1,0-.98h9.274a.49.49,0,0,1,0,.98Zm2.984.192a.682.682,0,1,1,.682-.682A.682.682,0,0,1,108.471,8.228Z" transform="translate(-79.991 -3.628)" fill="#333"/>
  </g>
</svg>
