<svg xmlns="http://www.w3.org/2000/svg" width="133.711" height="90.858" viewBox="0 0 133.711 90.858">
  <g id="MarketResearch03" transform="translate(0 1.251)">
    <g id="noun-hanger-186271" transform="translate(0 20.945)">
      <path id="Path_119" data-name="Path 119" d="M207.362,173.949H111.02a4.172,4.172,0,0,1-4.039-3.088,4.412,4.412,0,0,1,1.782-4.751l43.716-24.472a.618.618,0,0,0,.238-.475v-9.979a.9.9,0,0,0-.238-.475l-5.583-5.465a11.217,11.217,0,0,1-3.445-8.2,11.762,11.762,0,0,1,11.642-11.76,11.224,11.224,0,0,1,8.2,3.445l4.633,4.633a1.764,1.764,0,1,1-2.5,2.5l-4.633-4.633a8.064,8.064,0,1,0-11.4,11.4l5.583,5.465a4.253,4.253,0,0,1,1.307,2.97v10.1a4.179,4.179,0,0,1-2.019,3.564l-43.6,24.59c-.238.118-.238.475-.238.713a.543.543,0,0,0,.594.475h96.342a.544.544,0,0,0,.594-.475.711.711,0,0,0-.356-.713l-48.825-24.828a1.78,1.78,0,1,1,1.544-3.208l49.062,24.828a4.155,4.155,0,0,1,2.138,4.751,4.112,4.112,0,0,1-4.157,3.089Z" transform="translate(-106.836 -105.287)" fill="#333"/>
    </g>
    <path id="noun-tag-2518407" d="M108.859,30.668a11.7,11.7,0,0,1,6.554,1.811l0,0a.686.686,0,0,1,.247.966l0,.007,0,0a.692.692,0,0,1-.97.247l0,0h0c-3.588-2.2-7.976-2.229-10.619.417a7.428,7.428,0,0,0-1.974,6.1v0a11.9,11.9,0,0,0,10.18,10.177h0a7.5,7.5,0,0,0,6.088-1.97l0,0h0a2.6,2.6,0,0,1,1.887-.781,2.683,2.683,0,0,1,1.9.784,2.688,2.688,0,0,1-1.9,4.581,2.683,2.683,0,0,1-1.906-.789,2.422,2.422,0,0,1-.277-.326l-.633-.928-1.061.375a9.429,9.429,0,0,1-3.195.542c-.339,0-.708-.019-1.087-.053l-.065-.007h-.065c.262,0,.226-.012-.11-.012h-1.357l-.469,6.771a5.766,5.766,0,0,0,1.664,4.44l20.236,20.216a4.4,4.4,0,0,0,6.183,0l15.067-15.067a4.368,4.368,0,0,0,0-6.183l-20.216-20.22a5.728,5.728,0,0,0-4.429-1.664h0l-17.967,1.193a.7.7,0,0,1-.765-.674v0a.694.694,0,0,1,.675-.762l17.967-1.193a7.126,7.126,0,0,1,5.528,2.083l20.22,20.224a5.718,5.718,0,0,1,1.7,4.107,5.776,5.776,0,0,1-1.7,4.107l0,.007-15.052,15.05a5.819,5.819,0,0,1-8.215,0l-20.22-20.22a7.166,7.166,0,0,1-2.088-5.555l.5-7.331-.895-.424a13.824,13.824,0,0,1-3.78-2.686,12.794,12.794,0,0,1-3.78-7.664,8.747,8.747,0,0,1,2.4-7.26,8.583,8.583,0,0,1,5.812-2.433Z" transform="translate(-23.423 -30.66)" fill="#333" stroke="#333" stroke-width="2.5"/>
  </g>
</svg>
