<svg id="MarketResearch05" xmlns="http://www.w3.org/2000/svg" width="56.977" height="90.698" viewBox="0 0 56.977 90.698">
  <path id="Path_121" data-name="Path 121" d="M253.815,27.441v4.53c0,.4,0,.4.4.4h2.114v75.5h-2.315v3.222c-1.007,0-2.013-.1-3.02-.1v2.617c-1.007-.1-1.913-.2-2.919-.3v4.832c-4.127-.7-8.154-1.51-12.181-2.215s-8.053-1.51-12.181-2.215c-4.026-.705-8.053-1.51-12.181-2.215-4.026-.7-8.053-1.51-12.181-2.215V32.273c.6,0,1.208-.1,1.711-.1,1.309-.1,2.718-.2,4.026-.4,1.209-.1,2.417-.2,3.524-.3,1.309-.1,2.718-.2,4.026-.4,1.107-.1,2.215-.2,3.422-.3,1.31,0,2.719-.2,4.027-.3l3.926-.3c1.309-.1,2.617-.2,4.026-.4,1.208-.1,2.316-.2,3.423-.3,1.309-.1,2.718-.2,4.026-.4l3.926-.3c1.309-.1,2.718-.2,4.026-.4l3.926-.3c1.309-.1,2.617-.2,4.026-.4a18.3,18.3,0,0,0,2.417-.2Zm-8.657,87.175V43.447c0-.1,0-.2-.2-.2a18.486,18.486,0,0,1-2.517-.5c-2.617-.5-5.335-1.007-7.952-1.409-2.617-.5-5.335-1.007-7.952-1.409-2.416-.4-4.731-.906-7.148-1.309-2.617-.5-5.134-.906-7.751-1.409S206.3,36.2,203.684,35.8a5.9,5.9,0,0,0-1.309-.2v71.069c0,.2.1.3.2.3a6.814,6.814,0,0,0,1.409.2c2.517.4,4.933.906,7.449,1.309,2.617.5,5.335,1.007,7.952,1.409,2.416.4,4.731.906,7.148,1.309,2.617.5,5.335,1.007,7.952,1.409,2.517.5,4.933.906,7.449,1.409a30.342,30.342,0,0,0,3.221.6ZM252.506,36.8C244.352,36.4,236.3,36,228.145,35.6c7.55.805,15.2,1.51,22.75,2.315v71.27a.1.1,0,0,0,.1.1c.5,0,1.007.1,1.51.1,0-24.057,0-48.317,0-72.577Zm-27.985-.1a.37.37,0,0,0,.3.1c2.819.5,5.537,1.007,8.355,1.51,4.832.906,9.664,1.711,14.5,2.617.4.1.4.1.4.4V111.8a7.638,7.638,0,0,0,1.51.1V39.217c-8.455-.8-16.71-1.609-25.065-2.515Zm29.495,69.76h.5c.5,0,.4.1.4-.4V33.985c0-.2-.1-.2-.2-.2-1.51,0-3.02,0-4.53.1-4.127,0-8.154.1-12.281.1-3.926,0-7.751.1-11.677.1h-.805v.1c9.463.5,19.026.906,28.488,1.409q.152,35.336.1,70.869ZM251,30.562c-7.449.7-14.8,1.309-22.146,2.013l22.146-.3V30.562Z" transform="translate(-199.354 -27.441)" fill="#333"/>
</svg>
