<svg xmlns="http://www.w3.org/2000/svg" width="91.419" height="91.79" viewBox="0 0 91.419 91.79">
  <g id="MarketResearch06" transform="translate(1 1.027)">
    <path id="Path_122" data-name="Path 122" d="M439.287,84.025a32.4,32.4,0,0,1,6.92-12.909,12.977,12.977,0,0,0,2.646-4.056c.029-.073,2.428-7.5-1.337-13.607-2.311-3.75-6.4-6.063-12.139-6.876-2.7-.378-11.31-.422-15.293,4.332-2.37,2.835-2.747,6.8-1.09,11.8,2.559,7.792-.247,22.315-.262,22.432a7.135,7.135,0,0,0,2.893,7.211,11.527,11.527,0,0,0,6.876,1.992,12.959,12.959,0,0,0,4.652-.741c3.489-1.673,4.942-5.656,6.135-9.58Zm-16.82,7.166a5.788,5.788,0,0,1-2.341-5.742c.044-.218.422-2.224.785-5.073a8.734,8.734,0,0,0,2.195.276,8.941,8.941,0,0,0,2.675-17.474c2.82-3.561,5.9-5.714,8.766-6.106a7.137,7.137,0,0,1,5.612,1.715.724.724,0,0,0,.9-1.134,8.549,8.549,0,0,0-6.731-2.021c-3.591.495-7.385,3.329-10.714,7.966a22.718,22.718,0,0,0-2.224,4.754,25.856,25.856,0,0,0-1.047-6.106c-1.483-4.492-1.192-8,.828-10.423,3.62-4.318,11.935-4.129,13.97-3.838,5.292.756,9.028,2.849,11.107,6.207,2.835,4.594,1.832,10.5,1.207,12.386a11.761,11.761,0,0,1-2.37,3.591,33.783,33.783,0,0,0-7.2,13.418c-1.148,3.78-2.413,7.283-5.393,8.708-.885.422-6.526,1.513-10.03-1.1Zm2.356-26.749c.014-.014.029-.044.043-.058.058.029,6.818,2.181,5.5,9.246-.771,4.056-5.176,6.382-9.159,5.335-.029-.014-.073,0-.1,0,.218-2.006.393-4.289.422-6.615.058-.1,1.875-5.931,3.3-7.909Z" transform="translate(-360.215 -46.423)" fill="#333" stroke="#333" stroke-width="2"/>
    <path id="Path_123" data-name="Path 123" d="M148.2,355.75a42.775,42.775,0,0,0-29.628,12.211,4.077,4.077,0,0,0-1.279,2.995,4.126,4.126,0,0,0,1.279,2.995,42.3,42.3,0,0,0,59.314,0,4.077,4.077,0,0,0,1.279-2.995,4.126,4.126,0,0,0-1.279-2.995A42.883,42.883,0,0,0,148.2,355.75Zm28.668,17.14a40.84,40.84,0,0,1-57.293,0,2.671,2.671,0,0,1,0-3.867,40.659,40.659,0,0,1,57.291,0,2.671,2.671,0,0,1,0,3.867Z" transform="translate(-117.29 -296.327)" fill="#333" stroke="#333" stroke-width="2"/>
    <path id="Path_124" data-name="Path 124" d="M228.9,384.959a9.53,9.53,0,0,0-5.6,1.846,4.05,4.05,0,0,0-2.37-.771,4.13,4.13,0,0,0-1.6,7.938c-.014.189-.014.363-.014.6a9.58,9.58,0,1,0,9.58-9.609Zm-10.642,5.19a2.668,2.668,0,1,1,2.675,2.675,2.352,2.352,0,0,1-.639-.087c-.014,0-.014-.014-.029-.014h-.014a2.64,2.64,0,0,1-1.992-2.574ZM228.9,402.7a8.147,8.147,0,0,1-8.141-8.141,1.7,1.7,0,0,1,.014-.276c.058,0,.1.014.16.014a4.123,4.123,0,0,0,4.114-4.129,4.066,4.066,0,0,0-.712-2.311A8.121,8.121,0,1,1,228.9,402.7Z" transform="translate(-197.688 -319.925)" fill="#333" stroke="#333" stroke-width="2"/>
    <path id="Path_125" data-name="Path 125" d="M231.343,173.664a.72.72,0,0,0,.727-.727,22.627,22.627,0,0,1,20.774-22.518l-3.663,3.707a.746.746,0,0,0,0,1.032.69.69,0,0,0,.509.2.735.735,0,0,0,.523-.218l4.972-5.03a.713.713,0,0,0-.014-1.032l-4.972-4.8a.73.73,0,0,0-1.018,1.046l3.766,3.634a24.078,24.078,0,0,0-22.359,23.973.763.763,0,0,0,.756.729Z" transform="translate(-208.822 -125.318)" fill="#333" stroke="#333" stroke-width="2"/>
    <path id="Path_126" data-name="Path 126" d="M503.873,306.354a.735.735,0,0,0-.479.915,22.633,22.633,0,0,1-13.041,27.722l2.37-4.638a.725.725,0,0,0-1.294-.654l-3.228,6.294a.719.719,0,0,0,.32.988l6.193,3.068a.647.647,0,0,0,.32.073.735.735,0,0,0,.654-.407.727.727,0,0,0-.335-.974l-4.681-2.326a24.073,24.073,0,0,0,14.1-29.6.706.706,0,0,0-.9-.464Z" transform="translate(-416.879 -256.395)" fill="#333" stroke="#333" stroke-width="2"/>
  </g>
</svg>
