<svg xmlns="http://www.w3.org/2000/svg" width="50" height="50" viewBox="0 0 50 50">
  <defs>
    <style>
      .a {
        fill: #99b3d4;
      }
    </style>
  </defs>
  <path class="a" d="M25,0A25,25,0,1,0,50,25,25,25,0,0,0,25,0Zm5.25,25.46c3.06-.52,5.63-2.26,6.15-1.75s-3.08,4.87-6.22,6.79-6.58,2.4-6.58,2.91,1.34.74,3.17.74,3.36-1.58,3.95-1-5.37,6.33-10.65,6.91A11.18,11.18,0,0,1,7.66,30.35a10.85,10.85,0,0,1,10.87-12c9.84.21,22-7.89,22.74-7.52s-3,6.06-8.06,10.09c-3.71,2.95-8.85,3.41-8.85,4.22S26.92,26,30.25,25.46Z"/>
</svg>
