<svg xmlns="http://www.w3.org/2000/svg" width="50" height="50" viewBox="0 0 50 50">
  <defs>
    <style>
      .a {
        fill: #f08d41;
      }
    </style>
  </defs>
  <path class="a" d="M25,0A25,25,0,1,0,50,25,25,25,0,0,0,25,0ZM38.73,29.21a14.11,14.11,0,0,1-4.9,10.06c.67-.65.49-1.22-1.79-.67-1.92.46-4.56-1.6-4.21-4.32s-.22-5.87-3.34-6.05c-3.75-.21-4.88,2.63-4.88,4.69a8.52,8.52,0,0,0,14,6.56,14,14,0,0,1-7.35,3.13h-.16a2.82,2.82,0,0,1-.59.05c-.27,0-.56,0-.85,0s-.58,0-.85,0a2.82,2.82,0,0,1-.59-.05H23a13.16,13.16,0,0,1-5.51-2,13.32,13.32,0,0,1-6.27-11.31c0-.29,0-.6,0-.89a13.21,13.21,0,0,1,1.93-6.08c0,.46-.07.93-.07,1.41a12.49,12.49,0,0,0,.26,2.61,13.33,13.33,0,0,1,5.53-7.21l.72-.43a14.94,14.94,0,0,0,3.27-2.68,9.54,9.54,0,0,0,1.17-1.59,6.68,6.68,0,0,0,1-4A6.43,6.43,0,0,0,23.85,7.3a8.41,8.41,0,0,1,2.85,3.1,10.33,10.33,0,0,1,1.12,4.43c0,.2,0,.41,0,.62s0,.59,0,.88a7.58,7.58,0,0,1-.08.82,8.87,8.87,0,0,1-.14.9s0,.06,0,.09c-.3,1.81-.32,4.54,2,4.39,2-.11,2.36-2.22,1.81-4.39,0-.14-.08-.29-.11-.43a8.88,8.88,0,0,0-.9-2,14.1,14.1,0,0,1,8.37,12.89C38.75,28.78,38.75,29,38.73,29.21Z"/>
</svg>
