<svg xmlns="http://www.w3.org/2000/svg" width="50" height="50" viewBox="0 0 50 50">
  <defs>
    <style>
      .a {
        fill: #95c22d;
      }
    </style>
  </defs>
  <path class="a" d="M25,0A25,25,0,1,0,50,25,25,25,0,0,0,25,0ZM19.34,41a13.77,13.77,0,0,1-3.88-22.52,11.79,11.79,0,0,0,7.27,4.68,17.43,17.43,0,0,1,1.11,6.11A17.53,17.53,0,0,1,19.34,41ZM18.13,16.45a14.15,14.15,0,0,1,2.73-1.18l-1.64-2.38a1.11,1.11,0,0,0-.54-.38,1.81,1.81,0,1,1,2.46-1.68,1,1,0,0,0,.16.64l2.22,3.24a14.52,14.52,0,0,1,1.48-.1,14.52,14.52,0,0,1,1.48.1l2.22-3.24a1.12,1.12,0,0,0,.17-.64,1.71,1.71,0,0,1,.31-1,1.81,1.81,0,1,1,2.14,2.71,1.11,1.11,0,0,0-.54.38l-1.64,2.38a14.15,14.15,0,0,1,2.73,1.18,8.41,8.41,0,0,1-13.74,0ZM30.66,41a17.48,17.48,0,0,1-3.39-17.84,11.79,11.79,0,0,0,7.27-4.68A13.77,13.77,0,0,1,30.66,41Z"/>
</svg>
