<svg xmlns="http://www.w3.org/2000/svg" width="50" height="50" viewBox="0 0 50 50">
  <defs>
    <style>
      .a {
        fill: #7ac8c2;
      }
    </style>
  </defs>
  <path class="a" d="M25,0A25,25,0,1,0,50,25,25,25,0,0,0,25,0ZM14.06,29.89,6,25.23a.26.26,0,0,1,0-.46l8.82-5.09a.26.26,0,0,1,.27,0l8,4.88A.26.26,0,0,1,23,25l-8.71,4.88A.3.3,0,0,1,14.06,29.89ZM24.2,36.51a.26.26,0,0,1-.13.23l-8.38,4.84a.26.26,0,0,1-.39-.23v-10a.28.28,0,0,1,.13-.23l8.38-4.69a.27.27,0,0,1,.39.23Zm0-13.58a.26.26,0,0,1-.4.22L15.42,18a.26.26,0,0,1-.12-.22V8.65a.26.26,0,0,1,.39-.23l8.38,4.84a.26.26,0,0,1,.13.23Zm1.6-9.44a.26.26,0,0,1,.13-.23l8.38-4.84a.26.26,0,0,1,.39.23v9.68a.28.28,0,0,1-.13.23l-8.38,4.68A.26.26,0,0,1,25.8,23Zm8.9,27.86a.26.26,0,0,1-.39.23l-8.38-4.84a.26.26,0,0,1-.13-.23V26.73a.27.27,0,0,1,.4-.23l8.38,5.14a.29.29,0,0,1,.12.23Zm.77-11.2a.24.24,0,0,1-.26,0L27,25.09a.26.26,0,0,1,0-.45l8.41-4.7a.24.24,0,0,1,.26,0L44,24.77a.26.26,0,0,1,0,.46Z"/>
</svg>
