<svg xmlns="http://www.w3.org/2000/svg" width="50" height="50" viewBox="0 0 50 50">
  <defs>
    <style>
      .a {
        fill: #bf61ad;
      }
    </style>
  </defs>
  <g>
    <ellipse class="a" cx="25" cy="23.24" rx="8.96" ry="6.63"/>
    <path class="a" d="M25,0A25,25,0,1,0,50,25,25,25,0,0,0,25,0ZM36,33.42v2.49c0,2.59-1.75,4.7-3.92,4.7a4,4,0,0,1-3.56-2.78A3.94,3.94,0,0,1,25,40.61a3.94,3.94,0,0,1-3.56-2.78,4,4,0,0,1-3.57,2.78c-2.16,0-3.91-2.11-3.91-4.7V33.42A12.92,12.92,0,0,1,8.83,23.24c0-7.77,7.1-13.85,16.17-13.85s16.17,6.08,16.17,13.85A12.92,12.92,0,0,1,36,33.42Z"/>
  </g>
</svg>
