<svg xmlns="http://www.w3.org/2000/svg" width="50" height="50" viewBox="0 0 50 50">
  <defs>
    <style>
      .a {
        fill: #1c76b0;
      }
    </style>
  </defs>
  <g>
    <path class="a" d="M22.78,30.82l-5.33,4.9a.17.17,0,0,0,.12.3c1,0,3.32-.19,4.65-1.52a3.54,3.54,0,0,0,.85-3.6A.18.18,0,0,0,22.78,30.82Z"/>
    <path class="a" d="M25,0A25,25,0,1,0,50,25,25,25,0,0,0,25,0ZM40.35,23c-1,15.06-10.8,18.08-18.4,18.08S9.62,38.41,9.62,36.28s3.61-3.61,7.34-7.34,5.26-9.26,7-8.72,0,8.2,2.22,8.69,7.55-5.81,5.21-12.22c-2.59-7.13-14-4.88-14-4.88C23.31,5.84,41.27,8.72,40.35,23Z"/>
  </g>
</svg>
