<svg xmlns="http://www.w3.org/2000/svg" width="50" height="50" viewBox="0 0 50 50">
  <defs>
    <style>
      .a {
        fill: #d8425d;
      }
    </style>
  </defs>
  <path class="a" d="M25,0A25,25,0,1,0,50,25,25,25,0,0,0,25,0ZM38.6,29.65c0,6.14-5.84,10.55-12.87,10.55S11.4,36.65,11.4,27.4c0-6.56,2.13-8,3.37-8.24v6.2a.87.87,0,0,0,.87.87V13.35c0-1.95,1-3.55,2.93-3.55A4.62,4.62,0,0,1,21.66,11,3.65,3.65,0,0,1,25,10.36a3.45,3.45,0,0,1,2.68,2.5s.76-1.11,2.71-.62a3.8,3.8,0,0,1,2.51,2.57s.62-.84,2.64-.35a3.57,3.57,0,0,1,3.06,3.41Z"/>
</svg>
