<svg xmlns="http://www.w3.org/2000/svg" width="50" height="50" viewBox="0 0 50 50">
  <defs>
    <style>
      .a {
        fill: #5966a9;
      }
    </style>
  </defs>
  <g>
    <path class="a" d="M22.18,21.77a1.43,1.43,0,0,1-2.13-1.26.8.8,0,0,0-1.19-.71,3.31,3.31,0,0,0-.9.76,3,3,0,0,0,2.38,4.93,2.11,2.11,0,0,0,.35,0,3,3,0,0,0,2.68-3,.8.8,0,0,0-1.19-.71Z"/>
    <path class="a" d="M25,0A25,25,0,1,0,50,25,25,25,0,0,0,25,0ZM36.46,36.74A8.82,8.82,0,0,0,38.82,38a.43.43,0,0,1,.07.77c-3.66,2-8.64,2.91-15.66,1.77l-.09,0A15.88,15.88,0,0,1,9.2,26.3c0-.27,0-.54,0-.81s0-.46,0-.69c0,0,0-.05,0-.07,0-.26,0-.53,0-.8s0-.57.05-.84V23h0A15.87,15.87,0,0,1,26,9,16,16,0,0,1,40.88,24.77a15.79,15.79,0,0,1-4.45,11A.63.63,0,0,0,36.46,36.74Z"/>
    <path class="a" d="M31.14,19.8a.8.8,0,0,0-1.19.71,1.43,1.43,0,0,1-2.13,1.26.8.8,0,0,0-1.19.71,3,3,0,0,0,2.68,3,2.11,2.11,0,0,0,.35,0A3,3,0,0,0,32,20.56,3.31,3.31,0,0,0,31.14,19.8Z"/>
  </g>
</svg>
