<svg xmlns="http://www.w3.org/2000/svg" width="50" height="50" viewBox="0 0 50 50">
  <defs>
    <style>
      .a {
        fill: #f28181;
      }
    </style>
  </defs>
  <path class="a" d="M25,0A25,25,0,1,0,50,25,25,25,0,0,0,25,0Zm3.79,25.31c1.36-1.36.7-4.24-1.28-4.61s-4.44.66-4.44,4.61,5.16,5.94,9,2.93,2.59-9.37-1.26-11.47S19.61,15,16.34,21.38,18.6,37.2,26.89,38.2s11.24-3.3,12.27-3.3S39.41,41,26.48,41C18.21,41,9.77,35,9.77,25s9-16,16.34-16,14.12,5.06,14.12,13.42S33.23,34.61,28,34.61s-8.89-4.24-8.89-9.42,3.71-7.7,7.45-7.7a6,6,0,0,1,6,5.64,4.84,4.84,0,0,1-4.9,5c-3.21,0-4.46-3.91-2.1-5.23C24.84,24.9,27.43,26.67,28.79,25.31Z"/>
</svg>
