<svg xmlns="http://www.w3.org/2000/svg" width="50" height="50" viewBox="0 0 50 50">
  <defs>
    <style>
      .a {
        fill: #539da5;
      }
    </style>
  </defs>
  <g>
    <path class="a" d="M25,0A25,25,0,1,0,50,25,25,25,0,0,0,25,0ZM41.74,25.53l-7.91,13.7a1.06,1.06,0,0,1-.92.53H17.09a1.06,1.06,0,0,1-.92-.53L8.26,25.53a1.11,1.11,0,0,1,0-1.06l7.91-13.7a1.06,1.06,0,0,1,.92-.53H32.91a1.06,1.06,0,0,1,.92.53l7.91,13.7A1.11,1.11,0,0,1,41.74,25.53Z"/>
    <path class="a" d="M24,18.46a6.62,6.62,0,1,0,7.59,7.59A6.67,6.67,0,0,0,24,18.46Z"/>
  </g>
</svg>
