<svg xmlns="http://www.w3.org/2000/svg" width="1240" height="2079" viewBox="0 0 1240 2079">
  <g id="IA" transform="translate(-9931 11599)">
    <path id="Path_5457" data-name="Path 5457" d="M11670-9496v805.456h329" transform="translate(-1120 -2059)" fill="none" stroke="#3b4255" stroke-width="2"/>
    <path id="Path_5461" data-name="Path 5461" d="M11670-9496v212.456h170" transform="translate(-961 -2016.457)" fill="none" stroke="#3b4255" stroke-width="2"/>
    <path id="Path_5465" data-name="Path 5465" d="M11670-9496v466.957h170" transform="translate(-961 -534.457)" fill="none" stroke="#3b4255" stroke-width="2"/>
    <path id="Path_5464" data-name="Path 5464" d="M11670-9496v132h170" transform="translate(-961 -1804)" fill="none" stroke="#3b4255" stroke-width="2"/>
    <path id="Path_5460" data-name="Path 5460" d="M11670-9496v676.227h329" transform="translate(-1120 -1253)" fill="none" stroke="#3b4255" stroke-width="2"/>
    <path id="Path_5455" data-name="Path 5455" d="M11492-9452v294" transform="translate(-1099 -2059)" fill="none" stroke="#3b4255" stroke-width="2"/>
    <path id="Path_5456" data-name="Path 5456" d="M11492-9452v40" transform="translate(-467 -2059)" fill="none" stroke="#3b4255" stroke-width="2"/>
    <path id="Path_5463" data-name="Path 5463" d="M11492-9452v168" transform="translate(-467 -1677)" fill="none" stroke="#3b4255" stroke-width="2"/>
    <path id="Path_5458" data-name="Path 5458" d="M11492-9452v422" transform="translate(-467 -1254)" fill="none" stroke="#3b4255" stroke-width="2"/>
    <path id="Path_5459" data-name="Path 5459" d="M11492-9452v295" transform="translate(-467 -577)" fill="none" stroke="#3b4255" stroke-width="2"/>
    <path id="Path_5454" data-name="Path 5454" d="M11322-9495h696" transform="translate(-1139 -2060)" fill="none" stroke="#3b4255" stroke-width="2"/>
    <path id="Path_5469" data-name="Path 5469" d="M44,0H248a44,44,0,0,1,0,88H44A44,44,0,0,1,44,0Z" transform="translate(9931 -11599)" fill="#3b4255"/>
    <path id="Path_5470" data-name="Path 5470" d="M44,0H248a44,44,0,0,1,0,88H44A44,44,0,0,1,44,0Z" transform="translate(10247 -11599)" fill="#3b4255"/>
    <path id="Path_5471" data-name="Path 5471" d="M44,0H248a44,44,0,0,1,0,88H44A44,44,0,0,1,44,0Z" transform="translate(10879 -11599)" fill="#3b4255"/>
    <path id="Path_5472" data-name="Path 5472" d="M44,0H248a44,44,0,0,1,0,88H44A44,44,0,0,1,44,0Z" transform="translate(10879 -10794)" fill="#3b4255"/>
    <path id="Path_5473" data-name="Path 5473" d="M44,0H248a44,44,0,0,1,0,88H44A44,44,0,0,1,44,0Z" transform="translate(10879 -10117)" fill="#3b4255"/>
    <path id="Path_5474" data-name="Path 5474" d="M43.5,0h205a43.5,43.5,0,0,1,0,87H43.5a43.5,43.5,0,0,1,0-87Z" transform="translate(10563 -10794)" fill="#3b4255"/>
    <path id="Path_5475" data-name="Path 5475" d="M43.5,0h205a43.5,43.5,0,0,1,0,87H43.5a43.5,43.5,0,0,1,0-87Z" transform="translate(10879 -11471)" fill="#3b4255"/>
    <path id="Path_5476" data-name="Path 5476" d="M43.5,0h205a43.5,43.5,0,0,1,0,87H43.5a43.5,43.5,0,0,1,0-87Z" transform="translate(10879 -10666)" fill="#3b4255"/>
    <path id="Path_5477" data-name="Path 5477" d="M43.5,0h205a43.5,43.5,0,0,1,0,87H43.5a43.5,43.5,0,0,1,0-87Z" transform="translate(10879 -9989)" fill="#3b4255"/>
    <path id="Path_5478" data-name="Path 5478" d="M43.5,0h205a43.5,43.5,0,0,1,0,87H43.5a43.5,43.5,0,0,1,0-87Z" transform="translate(10879 -9607)" fill="#3b4255"/>
    <path id="Path_5479" data-name="Path 5479" d="M0,0H292V87H0Z" transform="translate(10879 -11088)" fill="#f08f4b"/>
    <path id="Path_5480" data-name="Path 5480" d="M0,0H292V87H0Z" transform="translate(10879 -10961)" fill="#f08f4b"/>
    <path id="Path_5481" data-name="Path 5481" d="M0,0H292V87H0Z" transform="translate(10879 -10411)" fill="#f08f4b"/>
    <path id="Path_5482" data-name="Path 5482" d="M0,0H292V87H0Z" transform="translate(10879 -9734)" fill="#f08f4b"/>
    <path id="Path_5483" data-name="Path 5483" d="M0,0H292V87H0Z" transform="translate(10879 -10284)" fill="#f08f4b"/>
    <path id="Path_5484" data-name="Path 5484" d="M44,0H248a44,44,0,0,1,0,88H44A44,44,0,0,1,44,0Z" transform="translate(10563 -11599)" fill="#3b4255"/>
    <path id="Path_5485" data-name="Path 5485" d="M43.5,0h205a43.5,43.5,0,0,1,0,87H43.5a43.5,43.5,0,0,1,0-87Z" transform="translate(10563 -10117)" fill="#3b4255"/>
    <path id="Path_5486" data-name="Path 5486" d="M44,0H248a44,44,0,0,1,0,88H44A44,44,0,0,1,44,0Z" transform="translate(10879 -11344)" fill="#3b4255"/>
    <path id="Path_5487" data-name="Path 5487" d="M44,0H248a44,44,0,0,1,0,88H44A44,44,0,0,1,44,0Z" transform="translate(10879 -11216)" fill="#3b4255"/>
    <path id="Path_5488" data-name="Path 5488" d="M44,0H248a44,44,0,0,1,0,88H44A44,44,0,0,1,44,0Z" transform="translate(10879 -10539)" fill="#3b4255"/>
    <path id="Path_5489" data-name="Path 5489" d="M0,0H292V88H0Z" transform="translate(10879 -9862)" fill="#f08f4b"/>
    <path id="Path_5490" data-name="Path 5490" d="M-84.312,0h12.025V-3.025h-8.4v-14.85h-3.625Zm19.525.375a6.521,6.521,0,0,0,6.7-6.775,6.521,6.521,0,0,0-6.7-6.775,6.521,6.521,0,0,0-6.7,6.775A6.521,6.521,0,0,0-64.787.375Zm0-2.6c-2.1,0-3.25-1.675-3.25-4.175s1.15-4.2,3.25-4.2c2.075,0,3.25,1.7,3.25,4.2S-62.713-2.225-64.787-2.225ZM-48.437,0h3.275V-.125c-.3-.225-.45-.8-.45-1.775V-8.425c0-3-1.55-4.725-5.4-4.725-3.75,0-5.425,1.975-5.525,4.225h3.025c.1-1.225.875-1.8,2.475-1.8,1.425,0,2.15.6,2.15,1.525,0,.975-.975,1.15-3.1,1.45-2.85.4-5.15,1.3-5.15,4.125,0,2.55,1.85,3.925,4.475,3.925,2.2,0,3.125-.75,3.775-1.725h.05A3.478,3.478,0,0,0-48.437,0Zm-3.4-2.075c-1.2,0-2-.425-2-1.625s.875-1.6,2.65-2a9.48,9.48,0,0,0,2.375-.75v1.925C-48.812-3.275-49.888-2.075-51.837-2.075ZM-38.662.375a4.267,4.267,0,0,0,3.825-2.05h.05V0h3.275V-17.875h-3.4v6.6h-.075a4.066,4.066,0,0,0-3.625-1.9c-3.2,0-5.475,2.775-5.475,6.775C-44.088-2.25-41.888.375-38.662.375Zm.75-2.85c-1.75,0-2.725-1.45-2.725-3.925,0-2.375.95-4.025,2.825-4.025,2.175,0,2.975,1.65,2.975,4.1C-34.838-3.975-35.888-2.475-37.912-2.475ZM-29.312,0h3.4V-12.825h-3.4Zm0-14.825h3.4v-3.05h-3.4Zm8.925,2h-3.325V0h3.4V-7.275a2.68,2.68,0,0,1,2.6-2.95,2.134,2.134,0,0,1,2.225,2.35V0h3.4V-8.375c0-2.8-1.775-4.8-4.425-4.8a4.167,4.167,0,0,0-3.8,2.1h-.075Zm16.05,17.2A6.711,6.711,0,0,0,.287,2.925a4.977,4.977,0,0,0,1.525-3.9v-11.85H-1.463v1.35h-.05a4.134,4.134,0,0,0-3.55-1.7c-3.25,0-5.55,2.45-5.55,6.275A5.764,5.764,0,0,0-4.963-.775a4.145,4.145,0,0,0,3.35-1.5h.075v1.4c0,1.75-.925,2.675-2.85,2.675-1.575,0-2.3-.625-2.575-1.425h-3.375C-9.988,2.875-7.838,4.375-4.338,4.375ZM-4.388-3.5c-1.75,0-2.9-1.275-2.9-3.45,0-2.15,1.15-3.5,2.875-3.5,2.05,0,3.05,1.6,3.05,3.475C-1.363-5.075-2.238-3.5-4.388-3.5ZM15.413.4c4.025,0,6.95-2.025,6.95-5.65,0-3.85-3-4.725-6.675-5.525-2.65-.575-3.9-1-3.9-2.45,0-1.275,1.275-2.1,3.225-2.1,1.85,0,3.25.9,3.45,2.7h3.475c-.275-3.6-2.875-5.575-6.9-5.575-3.975,0-6.85,1.825-6.85,5.35,0,3.725,2.925,4.575,6.125,5.3,2.725.625,4.425.975,4.425,2.725,0,1.65-1.625,2.3-3.475,2.3-2.55,0-3.775-.85-4.025-3H7.688C7.813-1.75,10.563.4,15.413.4Zm14.8-.025c3.425,0,5.55-2.175,5.775-4.9H32.712A2.394,2.394,0,0,1,30.137-2.35c-2.075,0-3.05-1.625-3.05-4.05,0-2.475,1.05-4.05,3.1-4.05a2.35,2.35,0,0,1,2.35,1.975h3.325c-.45-2.775-2.5-4.7-5.825-4.7-3.9,0-6.4,2.95-6.4,6.775S26.162.375,30.212.375Zm10.525-13.2H37.463V0h3.4V-6.25c0-2.7,1.6-3.875,3.825-3.65h.075v-2.975a2.22,2.22,0,0,0-.8-.1c-1.5,0-2.375.75-3.15,2.2h-.075ZM51.887.375c3.3,0,5.325-1.925,5.8-4.2h-3.35A2.394,2.394,0,0,1,51.862-2.25c-1.925,0-3.025-1.225-3.275-3.2h9.3c0-4.575-2.2-7.725-6.325-7.725-3.75,0-6.325,2.95-6.325,6.75C45.237-2.6,47.637.375,51.887.375ZM51.612-10.55A2.7,2.7,0,0,1,54.337-7.8h-5.7C48.937-9.475,49.812-10.55,51.612-10.55ZM65.488.375c3.3,0,5.325-1.925,5.8-4.2h-3.35A2.394,2.394,0,0,1,65.463-2.25c-1.925,0-3.025-1.225-3.275-3.2h9.3c0-4.575-2.2-7.725-6.325-7.725-3.75,0-6.325,2.95-6.325,6.75C58.838-2.6,61.238.375,65.488.375ZM65.213-10.55A2.7,2.7,0,0,1,67.938-7.8h-5.7C62.538-9.475,63.413-10.55,65.213-10.55Zm11.175-2.275H73.062V0h3.4V-7.275a2.68,2.68,0,0,1,2.6-2.95,2.134,2.134,0,0,1,2.225,2.35V0h3.4V-8.375c0-2.8-1.775-4.8-4.425-4.8a4.167,4.167,0,0,0-3.8,2.1h-.075Z" transform="translate(10077 -11546)" fill="#fff"/>
    <path id="Path_5491" data-name="Path 5491" d="M-55.562.4c5.275,0,8.6-3.95,8.6-9.3s-3.325-9.325-8.6-9.325S-64.187-14.25-64.187-8.9-60.837.4-55.562.4Zm.025-2.975c-3.275,0-4.95-2.775-4.95-6.325,0-3.575,1.675-6.35,4.95-6.35s4.875,2.775,4.875,6.35C-50.662-5.35-52.262-2.575-55.537-2.575Zm13.6-10.25h-3.325V0h3.4V-7.275a2.68,2.68,0,0,1,2.6-2.95,2.134,2.134,0,0,1,2.225,2.35V0h3.4V-8.375c0-2.8-1.775-4.8-4.425-4.8a4.167,4.167,0,0,0-3.8,2.1h-.075Zm17.55,13.2c3.225,0,5.425-2.625,5.425-6.775,0-4-2.3-6.775-5.525-6.775a4.009,4.009,0,0,0-3.575,1.9h-.075v-6.6h-3.4V0h3.275V-1.6h.05A4.265,4.265,0,0,0-24.387.375Zm-.75-2.85c-1.9,0-3.075-1.5-3.075-3.85,0-2.375.8-4.1,2.95-4.1,1.9,0,2.85,1.65,2.85,4.025C-22.412-3.925-23.387-2.475-25.137-2.475ZM-11.312.375A6.521,6.521,0,0,0-4.612-6.4a6.521,6.521,0,0,0-6.7-6.775,6.521,6.521,0,0,0-6.7,6.775A6.521,6.521,0,0,0-11.312.375Zm0-2.6c-2.1,0-3.25-1.675-3.25-4.175s1.15-4.2,3.25-4.2c2.075,0,3.25,1.7,3.25,4.2S-9.237-2.225-11.312-2.225ZM5.038,0H8.313V-.125c-.3-.225-.45-.8-.45-1.775V-8.425c0-3-1.55-4.725-5.4-4.725-3.75,0-5.425,1.975-5.525,4.225H-.037c.1-1.225.875-1.8,2.475-1.8,1.425,0,2.15.6,2.15,1.525,0,.975-.975,1.15-3.1,1.45-2.85.4-5.15,1.3-5.15,4.125C-3.662-1.075-1.812.3.813.3c2.2,0,3.125-.75,3.775-1.725h.05A3.478,3.478,0,0,0,5.038,0Zm-3.4-2.075c-1.2,0-2-.425-2-1.625s.875-1.6,2.65-2a9.48,9.48,0,0,0,2.375-.75v1.925C4.663-3.275,3.588-2.075,1.638-2.075Zm11.65-10.75H10.012V0h3.4V-6.25c0-2.7,1.6-3.875,3.825-3.65h.075v-2.975a2.22,2.22,0,0,0-.8-.1c-1.5,0-2.375.75-3.15,2.2h-.075ZM23.212.375a4.267,4.267,0,0,0,3.825-2.05h.05V0h3.275V-17.875h-3.4v6.6h-.075a4.066,4.066,0,0,0-3.625-1.9c-3.2,0-5.475,2.775-5.475,6.775C17.788-2.25,19.987.375,23.212.375Zm.75-2.85c-1.75,0-2.725-1.45-2.725-3.925,0-2.375.95-4.025,2.825-4.025,2.175,0,2.975,1.65,2.975,4.1C27.038-3.975,25.987-2.475,23.962-2.475ZM32.563,0h3.4V-12.825h-3.4Zm0-14.825h3.4v-3.05h-3.4Zm8.925,2H38.162V0h3.4V-7.275a2.68,2.68,0,0,1,2.6-2.95,2.134,2.134,0,0,1,2.225,2.35V0h3.4V-8.375c0-2.8-1.775-4.8-4.425-4.8a4.167,4.167,0,0,0-3.8,2.1h-.075Zm16.05,17.2a6.711,6.711,0,0,0,4.625-1.45,4.977,4.977,0,0,0,1.525-3.9v-11.85H60.412v1.35h-.05a4.134,4.134,0,0,0-3.55-1.7c-3.25,0-5.55,2.45-5.55,6.275a5.764,5.764,0,0,0,5.65,6.125,4.145,4.145,0,0,0,3.35-1.5h.075v1.4c0,1.75-.925,2.675-2.85,2.675-1.575,0-2.3-.625-2.575-1.425H51.537C51.887,2.875,54.037,4.375,57.537,4.375ZM57.487-3.5c-1.75,0-2.9-1.275-2.9-3.45,0-2.15,1.15-3.5,2.875-3.5,2.05,0,3.05,1.6,3.05,3.475C60.512-5.075,59.637-3.5,57.487-3.5Z" transform="translate(10393 -11545)" fill="#fff"/>
    <path id="Path_5492" data-name="Path 5492" d="M-108.162,0h8.2a6.779,6.779,0,0,0,4.5-1.425A4.522,4.522,0,0,0-93.887-5.15a4.475,4.475,0,0,0-3.325-4.425V-9.65a3.681,3.681,0,0,0,2.8-3.575,4.211,4.211,0,0,0-1.425-3.35,6.425,6.425,0,0,0-4.325-1.3h-8Zm3.625-8h4.075c1.65,0,2.9.875,2.9,2.575,0,1.45-1.05,2.425-2.8,2.425h-4.175Zm0-2.675v-4.25h4c1.6,0,2.575.775,2.575,2.1,0,1.4-1.075,2.15-2.65,2.15Zm15.775-2.15h-3.275V0h3.4V-6.25c0-2.7,1.6-3.875,3.825-3.65h.075v-2.975a2.22,2.22,0,0,0-.8-.1c-1.5,0-2.375.75-3.15,2.2h-.075Zm11.2,13.2a6.521,6.521,0,0,0,6.7-6.775,6.521,6.521,0,0,0-6.7-6.775,6.521,6.521,0,0,0-6.7,6.775A6.521,6.521,0,0,0-77.562.375Zm0-2.6c-2.1,0-3.25-1.675-3.25-4.175s1.15-4.2,3.25-4.2c2.075,0,3.25,1.7,3.25,4.2S-75.488-2.225-77.562-2.225ZM-66.912,0h3.075l1.75-6.3c.275-1.025.6-2.225.6-2.225h.05s.3,1.2.575,2.225l1.7,6.3h3.1l3.825-12.825h-3.3l-1.625,5.95c-.275,1.05-.575,2.4-.575,2.4h-.05s-.325-1.35-.6-2.425l-1.675-5.925h-2.9l-1.6,5.925c-.275,1.05-.55,2.425-.55,2.425h-.05s-.3-1.35-.575-2.4l-1.55-5.95h-3.375Zm20.95.375c3.2,0,5.4-1.55,5.4-4.125,0-3-2.375-3.6-4.525-4.05-1.825-.375-3.525-.475-3.525-1.575,0-.925.875-1.425,2.2-1.425,1.45,0,2.325.5,2.475,1.875h3.075c-.25-2.575-2.125-4.25-5.5-4.25-2.925,0-5.225,1.325-5.225,4.1,0,2.8,2.25,3.425,4.55,3.875,1.75.35,3.375.475,3.375,1.7,0,.9-.85,1.475-2.35,1.475-1.525,0-2.575-.65-2.8-2.125h-3.15C-51.762-1.425-49.687.375-45.962.375Zm13.075,0c3.3,0,5.325-1.925,5.8-4.2h-3.35A2.394,2.394,0,0,1-32.912-2.25c-1.925,0-3.025-1.225-3.275-3.2h9.3c0-4.575-2.2-7.725-6.325-7.725-3.75,0-6.325,2.95-6.325,6.75C-39.537-2.6-37.137.375-32.887.375Zm-.275-10.925A2.7,2.7,0,0,1-30.437-7.8h-5.7C-35.837-9.475-34.962-10.55-33.162-10.55ZM-13.963.375c3.225,0,5.425-2.625,5.425-6.775,0-4-2.3-6.775-5.525-6.775a4.009,4.009,0,0,0-3.575,1.9h-.075v-6.6h-3.4V0h3.275V-1.6h.05A4.265,4.265,0,0,0-13.963.375Zm-.75-2.85c-1.9,0-3.075-1.5-3.075-3.85,0-2.375.8-4.1,2.95-4.1,1.9,0,2.85,1.65,2.85,4.025C-11.988-3.925-12.963-2.475-14.713-2.475ZM-7.062,4.2h2c2.6,0,3.55-1.025,4.525-3.875l4.475-13.15H.512l-1.8,5.775c-.4,1.175-.75,2.8-.75,2.8h-.05s-.425-1.625-.825-2.8l-1.9-5.775H-8.387L-4.937-3.7A11.11,11.11,0,0,1-3.963-.225c0,1.05-.55,1.75-1.9,1.75h-1.2ZM17.388.375a7.556,7.556,0,0,0,5.425-1.9A6.33,6.33,0,0,0,24.787-5.75h-3.55a3.6,3.6,0,0,1-3.85,3.15c-3,0-4.9-2.625-4.9-6.275,0-3.55,1.575-6.3,4.875-6.3A3.532,3.532,0,0,1,21.138-12.2h3.6c-.375-3.4-2.975-6.025-7.375-6.025-5.275,0-8.575,4.05-8.575,9.35C8.788-3.5,12.362.375,17.388.375ZM34.462,0h3.275V-.125c-.3-.225-.45-.8-.45-1.775V-8.425c0-3-1.55-4.725-5.4-4.725-3.75,0-5.425,1.975-5.525,4.225h3.025c.1-1.225.875-1.8,2.475-1.8,1.425,0,2.15.6,2.15,1.525,0,.975-.975,1.15-3.1,1.45-2.85.4-5.15,1.3-5.15,4.125,0,2.55,1.85,3.925,4.475,3.925,2.2,0,3.125-.75,3.775-1.725h.05A3.478,3.478,0,0,0,34.462,0Zm-3.4-2.075c-1.2,0-2-.425-2-1.625s.875-1.6,2.65-2a9.48,9.48,0,0,0,2.375-.75v1.925C34.087-3.275,33.012-2.075,31.062-2.075Zm7.375-8.5h1.775V-3.05c0,2.425,1.825,3.075,3.475,3.075,1.35,0,2.125-.05,2.125-.05v-2.5s-.575.025-1,.025a1.125,1.125,0,0,1-1.275-1.275v-6.8h2.2v-2.25h-2.2v-4H40.213v4H38.438ZM53.388.375c3.3,0,5.325-1.925,5.8-4.2h-3.35A2.394,2.394,0,0,1,53.363-2.25c-1.925,0-3.025-1.225-3.275-3.2h9.3c0-4.575-2.2-7.725-6.325-7.725-3.75,0-6.325,2.95-6.325,6.75C46.738-2.6,49.138.375,53.388.375ZM53.113-10.55A2.7,2.7,0,0,1,55.838-7.8h-5.7C50.438-9.475,51.313-10.55,53.113-10.55Zm13.5,14.925a6.711,6.711,0,0,0,4.625-1.45,4.977,4.977,0,0,0,1.525-3.9v-11.85H69.487v1.35h-.05a4.134,4.134,0,0,0-3.55-1.7c-3.25,0-5.55,2.45-5.55,6.275a5.764,5.764,0,0,0,5.65,6.125,4.145,4.145,0,0,0,3.35-1.5h.075v1.4c0,1.75-.925,2.675-2.85,2.675-1.575,0-2.3-.625-2.575-1.425H60.612C60.962,2.875,63.112,4.375,66.612,4.375ZM66.562-3.5c-1.75,0-2.9-1.275-2.9-3.45,0-2.15,1.15-3.5,2.875-3.5,2.05,0,3.05,1.6,3.05,3.475C69.587-5.075,68.712-3.5,66.562-3.5ZM81.037.375a6.521,6.521,0,0,0,6.7-6.775,6.521,6.521,0,0,0-6.7-6.775,6.521,6.521,0,0,0-6.7,6.775A6.521,6.521,0,0,0,81.037.375Zm0-2.6c-2.1,0-3.25-1.675-3.25-4.175s1.15-4.2,3.25-4.2c2.075,0,3.25,1.7,3.25,4.2S83.112-2.225,81.037-2.225Zm11.55-10.6H89.313V0h3.4V-6.25c0-2.7,1.6-3.875,3.825-3.65h.075v-2.975a2.22,2.22,0,0,0-.8-.1c-1.5,0-2.375.75-3.15,2.2h-.075ZM98.487,4.2h2c2.6,0,3.55-1.025,4.525-3.875l4.475-13.15h-3.425l-1.8,5.775c-.4,1.175-.75,2.8-.75,2.8h-.05s-.425-1.625-.825-2.8l-1.9-5.775H97.162l3.45,9.125a11.11,11.11,0,0,1,.975,3.475c0,1.05-.55,1.75-1.9,1.75h-1.2Z" transform="translate(11025 -11546)" fill="#fff"/>
    <path id="Path_5493" data-name="Path 5493" d="M-74.088,0h3.3l6.025-17.875h-3.675l-3.125,10.35c-.35,1.15-.775,2.85-.775,2.85h-.05s-.425-1.675-.775-2.85l-3.15-10.35h-3.8Zm17.05,0h3.275V-.125c-.3-.225-.45-.8-.45-1.775V-8.425c0-3-1.55-4.725-5.4-4.725-3.75,0-5.425,1.975-5.525,4.225h3.025c.1-1.225.875-1.8,2.475-1.8,1.425,0,2.15.6,2.15,1.525,0,.975-.975,1.15-3.1,1.45-2.85.4-5.15,1.3-5.15,4.125,0,2.55,1.85,3.925,4.475,3.925,2.2,0,3.125-.75,3.775-1.725h.05A3.478,3.478,0,0,0-57.038,0Zm-3.4-2.075c-1.2,0-2-.425-2-1.625s.875-1.6,2.65-2a9.48,9.48,0,0,0,2.375-.75v1.925C-57.413-3.275-58.488-2.075-60.438-2.075ZM-52.013,0h3.4V-17.875h-3.4Zm17.025,0V-12.825h-3.4v7.4a2.59,2.59,0,0,1-2.575,2.9c-1.45,0-2.125-.825-2.125-2.325v-7.975h-3.375v8.55c0,2.8,1.6,4.625,4.45,4.625A4.115,4.115,0,0,0-38.338-1.5h.075V0Zm8.225.375c3.3,0,5.325-1.925,5.8-4.2h-3.35A2.394,2.394,0,0,1-26.788-2.25c-1.925,0-3.025-1.225-3.275-3.2h9.3c0-4.575-2.2-7.725-6.325-7.725-3.75,0-6.325,2.95-6.325,6.75C-33.413-2.6-31.013.375-26.763.375Zm-.275-10.925A2.7,2.7,0,0,1-24.313-7.8h-5.7C-29.713-9.475-28.838-10.55-27.038-10.55ZM-13.988.375c3.2,0,5.4-1.55,5.4-4.125,0-3-2.375-3.6-4.525-4.05-1.825-.375-3.525-.475-3.525-1.575,0-.925.875-1.425,2.2-1.425,1.45,0,2.325.5,2.475,1.875h3.075c-.25-2.575-2.125-4.25-5.5-4.25-2.925,0-5.225,1.325-5.225,4.1,0,2.8,2.25,3.425,4.55,3.875,1.75.35,3.375.475,3.375,1.7,0,.9-.85,1.475-2.35,1.475-1.525,0-2.575-.65-2.8-2.125h-3.15C-19.788-1.425-17.713.375-13.988.375ZM-3.638,0h2.7l7-17.875h-2.7ZM19.787.375a7.556,7.556,0,0,0,5.425-1.9A6.33,6.33,0,0,0,27.187-5.75h-3.55a3.6,3.6,0,0,1-3.85,3.15c-3,0-4.9-2.625-4.9-6.275,0-3.55,1.575-6.3,4.875-6.3A3.532,3.532,0,0,1,23.537-12.2h3.6c-.375-3.4-2.975-6.025-7.375-6.025-5.275,0-8.575,4.05-8.575,9.35C11.187-3.5,14.762.375,19.787.375ZM36.862,0h3.275V-.125c-.3-.225-.45-.8-.45-1.775V-8.425c0-3-1.55-4.725-5.4-4.725-3.75,0-5.425,1.975-5.525,4.225h3.025c.1-1.225.875-1.8,2.475-1.8,1.425,0,2.15.6,2.15,1.525,0,.975-.975,1.15-3.1,1.45-2.85.4-5.15,1.3-5.15,4.125,0,2.55,1.85,3.925,4.475,3.925,2.2,0,3.125-.75,3.775-1.725h.05A3.478,3.478,0,0,0,36.862,0Zm-3.4-2.075c-1.2,0-2-.425-2-1.625s.875-1.6,2.65-2a9.48,9.48,0,0,0,2.375-.75v1.925C36.487-3.275,35.412-2.075,33.462-2.075ZM53.212,0V-12.825h-3.4v7.4a2.59,2.59,0,0,1-2.575,2.9c-1.45,0-2.125-.825-2.125-2.325v-7.975H41.737v8.55c0,2.8,1.6,4.625,4.45,4.625A4.115,4.115,0,0,0,49.862-1.5h.075V0Zm7.4.375c3.2,0,5.4-1.55,5.4-4.125,0-3-2.375-3.6-4.525-4.05-1.825-.375-3.525-.475-3.525-1.575,0-.925.875-1.425,2.2-1.425,1.45,0,2.325.5,2.475,1.875h3.075c-.25-2.575-2.125-4.25-5.5-4.25-2.925,0-5.225,1.325-5.225,4.1,0,2.8,2.25,3.425,4.55,3.875,1.75.35,3.375.475,3.375,1.7,0,.9-.85,1.475-2.35,1.475-1.525,0-2.575-.65-2.8-2.125h-3.15C54.813-1.425,56.888.375,60.612.375Zm13.075,0c3.3,0,5.325-1.925,5.8-4.2h-3.35A2.394,2.394,0,0,1,73.662-2.25c-1.925,0-3.025-1.225-3.275-3.2h9.3c0-4.575-2.2-7.725-6.325-7.725-3.75,0-6.325,2.95-6.325,6.75C67.037-2.6,69.438.375,73.688.375ZM73.412-10.55A2.7,2.7,0,0,1,76.137-7.8h-5.7C70.738-9.475,71.613-10.55,73.412-10.55Z" transform="translate(11025 -10741)" fill="#fff"/>
    <path id="Path_5494" data-name="Path 5494" d="M-42.175.4c5.275,0,8.6-3.95,8.6-9.3s-3.325-9.325-8.6-9.325S-50.8-14.25-50.8-8.9-47.45.4-42.175.4Zm.025-2.975c-3.275,0-4.95-2.775-4.95-6.325,0-3.575,1.675-6.35,4.95-6.35s4.875,2.775,4.875,6.35C-37.275-5.35-38.875-2.575-42.15-2.575ZM-28.475,0h3.25l4.475-12.825h-3.4l-2.1,6.65c-.375,1.225-.55,2.05-.55,2.05h-.05s-.2-.825-.575-2.05l-2.05-6.65h-3.45ZM-13.95.375c3.3,0,5.325-1.925,5.8-4.2H-11.5A2.394,2.394,0,0,1-13.975-2.25C-15.9-2.25-17-3.475-17.25-5.45h9.3c0-4.575-2.2-7.725-6.325-7.725-3.75,0-6.325,2.95-6.325,6.75C-20.6-2.6-18.2.375-13.95.375Zm-.275-10.925A2.7,2.7,0,0,1-11.5-7.8h-5.7C-16.9-9.475-16.025-10.55-14.225-10.55ZM-3.1-12.825H-6.375V0h3.4V-6.25c0-2.7,1.6-3.875,3.825-3.65H.925v-2.975a2.22,2.22,0,0,0-.8-.1c-1.5,0-2.375.75-3.15,2.2H-3.1ZM6.05,0H9.3l4.475-12.825h-3.4l-2.1,6.65c-.375,1.225-.55,2.05-.55,2.05h-.05s-.2-.825-.575-2.05l-2.05-6.65H1.6Zm8.875,0h3.4V-12.825h-3.4Zm0-14.825h3.4v-3.05h-3.4ZM26.55.375c3.3,0,5.325-1.925,5.8-4.2H29A2.394,2.394,0,0,1,26.525-2.25c-1.925,0-3.025-1.225-3.275-3.2h9.3c0-4.575-2.2-7.725-6.325-7.725-3.75,0-6.325,2.95-6.325,6.75C19.9-2.6,22.3.375,26.55.375ZM26.275-10.55A2.7,2.7,0,0,1,29-7.8H23.3C23.6-9.475,24.475-10.55,26.275-10.55ZM36.625,0H39.7l1.75-6.3c.275-1.025.6-2.225.6-2.225h.05s.3,1.2.575,2.225l1.7,6.3h3.1L51.3-12.825H48l-1.625,5.95c-.275,1.05-.575,2.4-.575,2.4h-.05s-.325-1.35-.6-2.425l-1.675-5.925h-2.9L38.975-6.9c-.275,1.05-.55,2.425-.55,2.425h-.05s-.3-1.35-.575-2.4l-1.55-5.95H32.875Z" transform="translate(11025 -10064)" fill="#fff"/>
    <path id="Path_5495" data-name="Path 5495" d="M-41.212,0h13.225V-3.025h-9.6V-7.85h8.35v-2.975h-8.35v-4h9.525v-3.05h-13.15Zm14.3,0h3.725l2.775-4.25h.05L-17.987,0h4.05l-4.575-6.825,3.975-6h-3.525l-2.15,3.675h-.05l-2.275-3.675h-3.875L-22.237-6.8Zm14.275,4.2h3.4V-1.45h.05A4.129,4.129,0,0,0-5.487.375C-2.187.375.063-2.25.063-6.4c0-4-2.175-6.775-5.575-6.775a4.482,4.482,0,0,0-3.775,1.95h-.075v-1.6h-3.275Zm6.425-6.65c-2.025,0-3.1-1.525-3.1-3.85,0-2.3.85-4.125,2.975-4.125,2.1,0,2.95,1.7,2.95,4.125S-4.487-2.45-6.212-2.45ZM1.688,0h3.4V-17.875h-3.4ZM13.413.375a6.521,6.521,0,0,0,6.7-6.775,6.521,6.521,0,0,0-6.7-6.775A6.521,6.521,0,0,0,6.713-6.4,6.521,6.521,0,0,0,13.413.375Zm0-2.6c-2.1,0-3.25-1.675-3.25-4.175s1.15-4.2,3.25-4.2c2.075,0,3.25,1.7,3.25,4.2S15.488-2.225,13.413-2.225Zm11.55-10.6H21.688V0h3.4V-6.25c0-2.7,1.6-3.875,3.825-3.65h.075v-2.975a2.22,2.22,0,0,0-.8-.1c-1.5,0-2.375.75-3.15,2.2h-.075ZM36.112.375c3.3,0,5.325-1.925,5.8-4.2h-3.35A2.394,2.394,0,0,1,36.088-2.25c-1.925,0-3.025-1.225-3.275-3.2h9.3c0-4.575-2.2-7.725-6.325-7.725-3.75,0-6.325,2.95-6.325,6.75C29.462-2.6,31.862.375,36.112.375ZM35.837-10.55A2.7,2.7,0,0,1,38.563-7.8h-5.7C33.162-9.475,34.037-10.55,35.837-10.55Z" transform="translate(10709 -10741)" fill="#fff"/>
    <path id="Path_5496" data-name="Path 5496" d="M-62.75,0h3.625V-17.875H-62.75Zm5.375-10.575H-55.6V-3.05c0,2.425,1.825,3.075,3.475,3.075,1.35,0,2.125-.05,2.125-.05v-2.5s-.575.025-1,.025a1.125,1.125,0,0,1-1.275-1.275v-6.8h2.2v-2.25h-2.2v-4H-55.6v4h-1.775ZM-42.425.375c3.3,0,5.325-1.925,5.8-4.2h-3.35A2.394,2.394,0,0,1-42.45-2.25c-1.925,0-3.025-1.225-3.275-3.2h9.3c0-4.575-2.2-7.725-6.325-7.725-3.75,0-6.325,2.95-6.325,6.75C-49.075-2.6-46.675.375-42.425.375ZM-42.7-10.55A2.7,2.7,0,0,1-39.975-7.8h-5.7C-45.375-9.475-44.5-10.55-42.7-10.55ZM-34.85,0h3.4V-7.45c0-1.7.925-2.8,2.3-2.8,1.25,0,1.975.75,1.975,2.2V0h3.4V-7.45c0-1.7.875-2.8,2.3-2.8,1.25,0,1.975.75,1.975,2.2V0h3.4V-8.625c0-2.8-1.525-4.55-4.225-4.55a4.473,4.473,0,0,0-3.85,2.25h-.05a3.827,3.827,0,0,0-3.55-2.25A4.187,4.187,0,0,0-31.5-11.1h-.075v-1.725H-34.85ZM-9.525,0H-2.85a7.984,7.984,0,0,0,5.3-1.725A8.968,8.968,0,0,0,5.3-8.75c0-5.275-3.075-9.125-7.85-9.125H-9.525ZM-5.9-3.125v-11.65H-3c3.075,0,4.625,2.475,4.625,6.025S.3-3.125-3.1-3.125ZM13.025.375c3.3,0,5.325-1.925,5.8-4.2h-3.35A2.394,2.394,0,0,1,13-2.25c-1.925,0-3.025-1.225-3.275-3.2h9.3c0-4.575-2.2-7.725-6.325-7.725-3.75,0-6.325,2.95-6.325,6.75C6.375-2.6,8.775.375,13.025.375ZM12.75-10.55A2.7,2.7,0,0,1,15.475-7.8h-5.7C10.075-9.475,10.95-10.55,12.75-10.55Zm6.85-.025h1.775V-3.05C21.375-.625,23.2.025,24.85.025c1.35,0,2.125-.05,2.125-.05v-2.5s-.575.025-1,.025A1.125,1.125,0,0,1,24.7-3.775v-6.8h2.2v-2.25H24.7v-4H21.375v4H19.6ZM36.85,0h3.275V-.125c-.3-.225-.45-.8-.45-1.775V-8.425c0-3-1.55-4.725-5.4-4.725-3.75,0-5.425,1.975-5.525,4.225h3.025c.1-1.225.875-1.8,2.475-1.8,1.425,0,2.15.6,2.15,1.525,0,.975-.975,1.15-3.1,1.45-2.85.4-5.15,1.3-5.15,4.125C28.15-1.075,30,.3,32.625.3c2.2,0,3.125-.75,3.775-1.725h.05A3.478,3.478,0,0,0,36.85,0Zm-3.4-2.075c-1.2,0-2-.425-2-1.625s.875-1.6,2.65-2a9.48,9.48,0,0,0,2.375-.75v1.925C36.475-3.275,35.4-2.075,33.45-2.075ZM41.825,0h3.4V-12.825h-3.4Zm0-14.825h3.4v-3.05h-3.4ZM47.475,0h3.4V-17.875h-3.4Zm10.85.375c3.2,0,5.4-1.55,5.4-4.125,0-3-2.375-3.6-4.525-4.05-1.825-.375-3.525-.475-3.525-1.575,0-.925.875-1.425,2.2-1.425,1.45,0,2.325.5,2.475,1.875h3.075c-.25-2.575-2.125-4.25-5.5-4.25-2.925,0-5.225,1.325-5.225,4.1,0,2.8,2.25,3.425,4.55,3.875,1.75.35,3.375.475,3.375,1.7,0,.9-.85,1.475-2.35,1.475-1.525,0-2.575-.65-2.8-2.125h-3.15C52.525-1.425,54.6.375,58.325.375Z" transform="translate(11025 -11418)" fill="#fff"/>
    <path id="Path_5497" data-name="Path 5497" d="M-31.65,0h3.575V-9.225c0-1.25-.1-3.125-.1-3.125h.05s.7,1.525,1.275,2.475L-20.75,0h3.5V-17.875h-3.575V-8.5c0,1.25.1,3.1.1,3.1h-.05s-.675-1.525-1.25-2.5l-5.95-9.975H-31.65ZM-1.4,0H1.325V-9.5H-6.2v2.8h4.3v.1A4.373,4.373,0,0,1-6.5-2.55c-3.075,0-5-2.675-5-6.325,0-3.55,1.675-6.35,5.05-6.35A3.776,3.776,0,0,1-2.425-12.25h3.55c-.575-3.5-3.15-5.975-7.65-5.975a8.2,8.2,0,0,0-5.75,2.05,9.744,9.744,0,0,0-2.925,7.3,9.814,9.814,0,0,0,2.325,6.65A8.153,8.153,0,0,0-6.6.375,5.341,5.341,0,0,0-1.575-2.4h.05ZM11.7.4c5.275,0,8.6-3.95,8.6-9.3s-3.325-9.325-8.6-9.325S3.075-14.25,3.075-8.9,6.425.4,11.7.4Zm.025-2.975c-3.275,0-4.95-2.775-4.95-6.325,0-3.575,1.675-6.35,4.95-6.35S16.6-12.475,16.6-8.9C16.6-5.35,15-2.575,11.725-2.575ZM27.2.375c3.2,0,5.4-1.55,5.4-4.125,0-3-2.375-3.6-4.525-4.05-1.825-.375-3.525-.475-3.525-1.575,0-.925.875-1.425,2.2-1.425,1.45,0,2.325.5,2.475,1.875H32.3c-.25-2.575-2.125-4.25-5.5-4.25-2.925,0-5.225,1.325-5.225,4.1,0,2.8,2.25,3.425,4.55,3.875,1.75.35,3.375.475,3.375,1.7,0,.9-.85,1.475-2.35,1.475-1.525,0-2.575-.65-2.8-2.125H21.2C21.4-1.425,23.475.375,27.2.375Z" transform="translate(11025 -10613)" fill="#fff"/>
    <path id="Path_5498" data-name="Path 5498" d="M-129.838,0h3.625V-17.875h-3.625Zm9.45-12.825h-3.325V0h3.4V-7.275a2.68,2.68,0,0,1,2.6-2.95,2.134,2.134,0,0,1,2.225,2.35V0h3.4V-8.375c0-2.8-1.775-4.8-4.425-4.8a4.167,4.167,0,0,0-3.8,2.1h-.075ZM-106.838,0h3.25l4.475-12.825h-3.4l-2.1,6.65c-.375,1.225-.55,2.05-.55,2.05h-.05s-.2-.825-.575-2.05l-2.05-6.65h-3.45Zm14.575.375a6.521,6.521,0,0,0,6.7-6.775,6.521,6.521,0,0,0-6.7-6.775,6.521,6.521,0,0,0-6.7,6.775A6.521,6.521,0,0,0-92.262.375Zm0-2.6c-2.1,0-3.25-1.675-3.25-4.175s1.15-4.2,3.25-4.2c2.075,0,3.25,1.7,3.25,4.2S-90.187-2.225-92.262-2.225ZM-83.937,0h3.4V-17.875h-3.4Zm9.05,0h3.25l4.475-12.825h-3.4l-2.1,6.65c-.375,1.225-.55,2.05-.55,2.05h-.05s-.2-.825-.575-2.05l-2.05-6.65h-3.45Zm14.525.375c3.3,0,5.325-1.925,5.8-4.2h-3.35A2.394,2.394,0,0,1-60.388-2.25c-1.925,0-3.025-1.225-3.275-3.2h9.3c0-4.575-2.2-7.725-6.325-7.725-3.75,0-6.325,2.95-6.325,6.75C-67.013-2.6-64.613.375-60.363.375Zm-.275-10.925A2.7,2.7,0,0,1-57.913-7.8h-5.7C-63.313-9.475-62.438-10.55-60.638-10.55ZM-52.788,0h3.4V-7.45c0-1.7.925-2.8,2.3-2.8,1.25,0,1.975.75,1.975,2.2V0h3.4V-7.45c0-1.7.875-2.8,2.3-2.8,1.25,0,1.975.75,1.975,2.2V0h3.4V-8.625c0-2.8-1.525-4.55-4.225-4.55a4.473,4.473,0,0,0-3.85,2.25h-.05a3.827,3.827,0,0,0-3.55-2.25A4.187,4.187,0,0,0-49.438-11.1h-.075v-1.725h-3.275Zm26.875.375c3.3,0,5.325-1.925,5.8-4.2h-3.35A2.394,2.394,0,0,1-25.938-2.25c-1.925,0-3.025-1.225-3.275-3.2h9.3c0-4.575-2.2-7.725-6.325-7.725-3.75,0-6.325,2.95-6.325,6.75C-32.563-2.6-30.163.375-25.913.375Zm-.275-10.925A2.7,2.7,0,0,1-23.463-7.8h-5.7C-28.863-9.475-27.988-10.55-26.188-10.55Zm11.175-2.275h-3.325V0h3.4V-7.275a2.68,2.68,0,0,1,2.6-2.95,2.134,2.134,0,0,1,2.225,2.35V0h3.4V-8.375c0-2.8-1.775-4.8-4.425-4.8a4.167,4.167,0,0,0-3.8,2.1h-.075Zm9.4,2.25h1.775V-3.05C-3.838-.625-2.013.025-.363.025c1.35,0,2.125-.05,2.125-.05v-2.5s-.575.025-1,.025A1.125,1.125,0,0,1-.513-3.775v-6.8h2.2v-2.25h-2.2v-4H-3.838v4H-5.613ZM7.912,0h8.2a6.779,6.779,0,0,0,4.5-1.425A4.522,4.522,0,0,0,22.187-5.15a4.475,4.475,0,0,0-3.325-4.425V-9.65a3.681,3.681,0,0,0,2.8-3.575,4.211,4.211,0,0,0-1.425-3.35,6.425,6.425,0,0,0-4.325-1.3h-8Zm3.625-8h4.075c1.65,0,2.9.875,2.9,2.575,0,1.45-1.05,2.425-2.8,2.425H11.537Zm0-2.675v-4.25h4c1.6,0,2.575.775,2.575,2.1,0,1.4-1.075,2.15-2.65,2.15Zm15.775-2.15H24.038V0h3.4V-6.25c0-2.7,1.6-3.875,3.825-3.65h.075v-2.975a2.22,2.22,0,0,0-.8-.1c-1.5,0-2.375.75-3.15,2.2h-.075ZM38.462.375c3.3,0,5.325-1.925,5.8-4.2h-3.35A2.394,2.394,0,0,1,38.437-2.25c-1.925,0-3.025-1.225-3.275-3.2h9.3c0-4.575-2.2-7.725-6.325-7.725-3.75,0-6.325,2.95-6.325,6.75C31.812-2.6,34.212.375,38.462.375ZM38.187-10.55A2.7,2.7,0,0,1,40.912-7.8h-5.7C35.512-9.475,36.387-10.55,38.187-10.55ZM54.112,0h3.275V-.125c-.3-.225-.45-.8-.45-1.775V-8.425c0-3-1.55-4.725-5.4-4.725-3.75,0-5.425,1.975-5.525,4.225h3.025c.1-1.225.875-1.8,2.475-1.8,1.425,0,2.15.6,2.15,1.525,0,.975-.975,1.15-3.1,1.45-2.85.4-5.15,1.3-5.15,4.125,0,2.55,1.85,3.925,4.475,3.925,2.2,0,3.125-.75,3.775-1.725h.05A3.478,3.478,0,0,0,54.112,0Zm-3.4-2.075c-1.2,0-2-.425-2-1.625s.875-1.6,2.65-2a9.48,9.48,0,0,0,2.375-.75v1.925C53.737-3.275,52.662-2.075,50.713-2.075ZM67.538,0h4.125l-5.3-7.95,4.725-4.875H67.013l-4.55,4.85v-9.9H59.088V0h3.375V-4.325L63.938-5.85Zm9.125.375a4.267,4.267,0,0,0,3.825-2.05h.05V0h3.275V-17.875h-3.4v6.6h-.075a4.066,4.066,0,0,0-3.625-1.9c-3.2,0-5.475,2.775-5.475,6.775C71.237-2.25,73.438.375,76.662.375Zm.75-2.85c-1.75,0-2.725-1.45-2.725-3.925,0-2.375.95-4.025,2.825-4.025,2.175,0,2.975,1.65,2.975,4.1C80.487-3.975,79.438-2.475,77.412-2.475ZM92.087.375a6.521,6.521,0,0,0,6.7-6.775,6.521,6.521,0,0,0-6.7-6.775,6.521,6.521,0,0,0-6.7,6.775A6.521,6.521,0,0,0,92.087.375Zm0-2.6c-2.1,0-3.25-1.675-3.25-4.175s1.15-4.2,3.25-4.2c2.075,0,3.25,1.7,3.25,4.2S94.162-2.225,92.087-2.225ZM102.737,0h3.075l1.75-6.3c.275-1.025.6-2.225.6-2.225h.05s.3,1.2.575,2.225l1.7,6.3h3.1l3.825-12.825h-3.3l-1.625,5.95c-.275,1.05-.575,2.4-.575,2.4h-.05s-.325-1.35-.6-2.425l-1.675-5.925h-2.9l-1.6,5.925c-.275,1.05-.55,2.425-.55,2.425h-.05s-.3-1.35-.575-2.4l-1.55-5.95H98.987Zm19.2-12.825h-3.325V0h3.4V-7.275a2.68,2.68,0,0,1,2.6-2.95,2.134,2.134,0,0,1,2.225,2.35V0h3.4V-8.375c0-2.8-1.775-4.8-4.425-4.8a4.167,4.167,0,0,0-3.8,2.1h-.075Z" transform="translate(11025 -9936)" fill="#fff"/>
    <path id="Path_5499" data-name="Path 5499" d="M-124.963,0h8.2a6.779,6.779,0,0,0,4.5-1.425,4.522,4.522,0,0,0,1.575-3.725,4.475,4.475,0,0,0-3.325-4.425V-9.65a3.681,3.681,0,0,0,2.8-3.575,4.211,4.211,0,0,0-1.425-3.35,6.425,6.425,0,0,0-4.325-1.3h-8Zm3.625-8h4.075c1.65,0,2.9.875,2.9,2.575,0,1.45-1.05,2.425-2.8,2.425h-4.175Zm0-2.675v-4.25h4c1.6,0,2.575.775,2.575,2.1,0,1.4-1.075,2.15-2.65,2.15Zm15.775-2.15h-3.275V0h3.4V-6.25c0-2.7,1.6-3.875,3.825-3.65h.075v-2.975a2.22,2.22,0,0,0-.8-.1c-1.5,0-2.375.75-3.15,2.2h-.075Zm11.2,13.2a6.521,6.521,0,0,0,6.7-6.775,6.521,6.521,0,0,0-6.7-6.775,6.521,6.521,0,0,0-6.7,6.775A6.521,6.521,0,0,0-94.363.375Zm0-2.6c-2.1,0-3.25-1.675-3.25-4.175s1.15-4.2,3.25-4.2c2.075,0,3.25,1.7,3.25,4.2S-92.288-2.225-94.363-2.225ZM-83.713,0h3.075l1.75-6.3c.275-1.025.6-2.225.6-2.225h.05s.3,1.2.575,2.225l1.7,6.3h3.1l3.825-12.825h-3.3l-1.625,5.95c-.275,1.05-.575,2.4-.575,2.4h-.05s-.325-1.35-.6-2.425l-1.675-5.925h-2.9l-1.6,5.925c-.275,1.05-.55,2.425-.55,2.425h-.05s-.3-1.35-.575-2.4l-1.55-5.95h-3.375Zm20.95.375c3.2,0,5.4-1.55,5.4-4.125,0-3-2.375-3.6-4.525-4.05-1.825-.375-3.525-.475-3.525-1.575,0-.925.875-1.425,2.2-1.425,1.45,0,2.325.5,2.475,1.875h3.075c-.25-2.575-2.125-4.25-5.5-4.25-2.925,0-5.225,1.325-5.225,4.1,0,2.8,2.25,3.425,4.55,3.875,1.75.35,3.375.475,3.375,1.7,0,.9-.85,1.475-2.35,1.475-1.525,0-2.575-.65-2.8-2.125h-3.15C-68.562-1.425-66.488.375-62.763.375Zm13.075,0c3.3,0,5.325-1.925,5.8-4.2h-3.35A2.394,2.394,0,0,1-49.713-2.25c-1.925,0-3.025-1.225-3.275-3.2h9.3c0-4.575-2.2-7.725-6.325-7.725-3.75,0-6.325,2.95-6.325,6.75C-56.338-2.6-53.937.375-49.687.375Zm-.275-10.925A2.7,2.7,0,0,1-47.237-7.8h-5.7C-52.638-9.475-51.763-10.55-49.963-10.55ZM-37.613,0h3.625V-17.875h-3.625Zm5.375-10.575h1.775V-3.05c0,2.425,1.825,3.075,3.475,3.075,1.35,0,2.125-.05,2.125-.05v-2.5s-.575.025-1,.025a1.125,1.125,0,0,1-1.275-1.275v-6.8h2.2v-2.25h-2.2v-4h-3.325v4h-1.775ZM-17.287.375c3.3,0,5.325-1.925,5.8-4.2h-3.35A2.394,2.394,0,0,1-17.312-2.25c-1.925,0-3.025-1.225-3.275-3.2h9.3c0-4.575-2.2-7.725-6.325-7.725-3.75,0-6.325,2.95-6.325,6.75C-23.937-2.6-21.537.375-17.287.375Zm-.275-10.925A2.7,2.7,0,0,1-14.837-7.8h-5.7C-20.237-9.475-19.362-10.55-17.562-10.55ZM-9.712,0h3.4V-7.45c0-1.7.925-2.8,2.3-2.8,1.25,0,1.975.75,1.975,2.2V0h3.4V-7.45c0-1.7.875-2.8,2.3-2.8,1.25,0,1.975.75,1.975,2.2V0h3.4V-8.625c0-2.8-1.525-4.55-4.225-4.55a4.473,4.473,0,0,0-3.85,2.25H.913a3.827,3.827,0,0,0-3.55-2.25A4.187,4.187,0,0,0-6.362-11.1h-.075v-1.725H-9.712Zm26.05.375c3.2,0,5.4-1.55,5.4-4.125,0-3-2.375-3.6-4.525-4.05-1.825-.375-3.525-.475-3.525-1.575,0-.925.875-1.425,2.2-1.425,1.45,0,2.325.5,2.475,1.875h3.075c-.25-2.575-2.125-4.25-5.5-4.25-2.925,0-5.225,1.325-5.225,4.1,0,2.8,2.25,3.425,4.55,3.875,1.75.35,3.375.475,3.375,1.7,0,.9-.85,1.475-2.35,1.475-1.525,0-2.575-.65-2.8-2.125h-3.15C10.537-1.425,12.612.375,16.337.375Zm18.275,0c3.225,0,5.425-2.625,5.425-6.775,0-4-2.3-6.775-5.525-6.775a4.009,4.009,0,0,0-3.575,1.9h-.075v-6.6h-3.4V0h3.275V-1.6h.05A4.265,4.265,0,0,0,34.612.375Zm-.75-2.85c-1.9,0-3.075-1.5-3.075-3.85,0-2.375.8-4.1,2.95-4.1,1.9,0,2.85,1.65,2.85,4.025C36.587-3.925,35.612-2.475,33.862-2.475ZM41.513,4.2h2c2.6,0,3.55-1.025,4.525-3.875l4.475-13.15H49.088l-1.8,5.775c-.4,1.175-.75,2.8-.75,2.8h-.05s-.425-1.625-.825-2.8l-1.9-5.775H40.188L43.638-3.7a11.11,11.11,0,0,1,.975,3.475c0,1.05-.55,1.75-1.9,1.75h-1.2ZM65.963.375a7.556,7.556,0,0,0,5.425-1.9A6.33,6.33,0,0,0,73.363-5.75h-3.55a3.6,3.6,0,0,1-3.85,3.15c-3,0-4.9-2.625-4.9-6.275,0-3.55,1.575-6.3,4.875-6.3A3.532,3.532,0,0,1,69.713-12.2h3.6c-.375-3.4-2.975-6.025-7.375-6.025-5.275,0-8.575,4.05-8.575,9.35C57.363-3.5,60.938.375,65.963.375ZM83.037,0h3.275V-.125c-.3-.225-.45-.8-.45-1.775V-8.425c0-3-1.55-4.725-5.4-4.725-3.75,0-5.425,1.975-5.525,4.225h3.025c.1-1.225.875-1.8,2.475-1.8,1.425,0,2.15.6,2.15,1.525,0,.975-.975,1.15-3.1,1.45-2.85.4-5.15,1.3-5.15,4.125,0,2.55,1.85,3.925,4.475,3.925,2.2,0,3.125-.75,3.775-1.725h.05A3.478,3.478,0,0,0,83.037,0Zm-3.4-2.075c-1.2,0-2-.425-2-1.625s.875-1.6,2.65-2a9.48,9.48,0,0,0,2.375-.75v1.925C82.662-3.275,81.587-2.075,79.637-2.075ZM99.387,0V-12.825h-3.4v7.4a2.59,2.59,0,0,1-2.575,2.9c-1.45,0-2.125-.825-2.125-2.325v-7.975H87.912v8.55c0,2.8,1.6,4.625,4.45,4.625A4.115,4.115,0,0,0,96.037-1.5h.075V0Zm7.4.375c3.2,0,5.4-1.55,5.4-4.125,0-3-2.375-3.6-4.525-4.05-1.825-.375-3.525-.475-3.525-1.575,0-.925.875-1.425,2.2-1.425,1.45,0,2.325.5,2.475,1.875h3.075c-.25-2.575-2.125-4.25-5.5-4.25-2.925,0-5.225,1.325-5.225,4.1,0,2.8,2.25,3.425,4.55,3.875,1.75.35,3.375.475,3.375,1.7,0,.9-.85,1.475-2.35,1.475-1.525,0-2.575-.65-2.8-2.125h-3.15C100.987-1.425,103.062.375,106.787.375Zm13.075,0c3.3,0,5.325-1.925,5.8-4.2h-3.35a2.394,2.394,0,0,1-2.475,1.575c-1.925,0-3.025-1.225-3.275-3.2h9.3c0-4.575-2.2-7.725-6.325-7.725-3.75,0-6.325,2.95-6.325,6.75C113.212-2.6,115.612.375,119.862.375Zm-.275-10.925a2.7,2.7,0,0,1,2.725,2.75h-5.7C116.912-9.475,117.787-10.55,119.587-10.55Z" transform="translate(11025 -9554)" fill="#fff"/>
    <path id="Path_5500" data-name="Path 5500" d="M-61.2,0h3.675l1.175-3.8h6.45L-48.7,0h3.775l-6.3-17.875h-3.75Zm7.3-11.725c.3-.95.75-2.75.75-2.75h.05s.425,1.8.725,2.75l1.6,5.15H-55.5ZM-39.4.375a4.267,4.267,0,0,0,3.825-2.05h.05V0h3.275V-17.875h-3.4v6.6h-.075a4.066,4.066,0,0,0-3.625-1.9c-3.2,0-5.475,2.775-5.475,6.775C-44.825-2.25-42.625.375-39.4.375Zm.75-2.85c-1.75,0-2.725-1.45-2.725-3.925,0-2.375.95-4.025,2.825-4.025,2.175,0,2.975,1.65,2.975,4.1C-35.575-3.975-36.625-2.475-38.65-2.475Zm13.4,2.85a4.267,4.267,0,0,0,3.825-2.05h.05V0H-18.1V-17.875h-3.4v6.6h-.075a4.066,4.066,0,0,0-3.625-1.9c-3.2,0-5.475,2.775-5.475,6.775C-30.675-2.25-28.475.375-25.25.375Zm.75-2.85c-1.75,0-2.725-1.45-2.725-3.925,0-2.375.95-4.025,2.825-4.025,2.175,0,2.975,1.65,2.975,4.1C-21.425-3.975-22.475-2.475-24.5-2.475Zm12.05-8.1h1.775V-3.05C-10.675-.625-8.85.025-7.2.025c1.35,0,2.125-.05,2.125-.05v-2.5s-.575.025-1,.025A1.125,1.125,0,0,1-7.35-3.775v-6.8h2.2v-2.25h-2.2v-4h-3.325v4H-12.45ZM2.55.375A6.521,6.521,0,0,0,9.25-6.4a6.521,6.521,0,0,0-6.7-6.775A6.521,6.521,0,0,0-4.15-6.4,6.521,6.521,0,0,0,2.55.375Zm0-2.6C.45-2.225-.7-3.9-.7-6.4s1.15-4.2,3.25-4.2c2.075,0,3.25,1.7,3.25,4.2S4.625-2.225,2.55-2.225ZM23.125.375a7.556,7.556,0,0,0,5.425-1.9A6.33,6.33,0,0,0,30.525-5.75h-3.55a3.6,3.6,0,0,1-3.85,3.15c-3,0-4.9-2.625-4.9-6.275,0-3.55,1.575-6.3,4.875-6.3A3.532,3.532,0,0,1,26.875-12.2h3.6C30.1-15.6,27.5-18.225,23.1-18.225c-5.275,0-8.575,4.05-8.575,9.35C14.525-3.5,18.1.375,23.125.375ZM40.2,0h3.275V-.125c-.3-.225-.45-.8-.45-1.775V-8.425c0-3-1.55-4.725-5.4-4.725-3.75,0-5.425,1.975-5.525,4.225h3.025c.1-1.225.875-1.8,2.475-1.8,1.425,0,2.15.6,2.15,1.525,0,.975-.975,1.15-3.1,1.45-2.85.4-5.15,1.3-5.15,4.125C31.5-1.075,33.35.3,35.975.3c2.2,0,3.125-.75,3.775-1.725h.05A3.478,3.478,0,0,0,40.2,0ZM36.8-2.075c-1.2,0-2-.425-2-1.625s.875-1.6,2.65-2a9.48,9.48,0,0,0,2.375-.75v1.925C39.825-3.275,38.75-2.075,36.8-2.075Zm11.65-10.75H45.175V0h3.4V-6.25c0-2.7,1.6-3.875,3.825-3.65h.075v-2.975a2.22,2.22,0,0,0-.8-.1c-1.5,0-2.375.75-3.15,2.2H48.45Zm4.875,2.25H55.1V-3.05C55.1-.625,56.925.025,58.575.025c1.35,0,2.125-.05,2.125-.05v-2.5s-.575.025-1,.025a1.125,1.125,0,0,1-1.275-1.275v-6.8h2.2v-2.25h-2.2v-4H55.1v4H53.325Z" transform="translate(11025 -11035)" fill="#3b4255"/>
    <path id="Path_5501" data-name="Path 5501" d="M-44.112.375a7.556,7.556,0,0,0,5.425-1.9A6.33,6.33,0,0,0-36.713-5.75h-3.55a3.6,3.6,0,0,1-3.85,3.15c-3,0-4.9-2.625-4.9-6.275,0-3.55,1.575-6.3,4.875-6.3A3.532,3.532,0,0,1-40.362-12.2h3.6c-.375-3.4-2.975-6.025-7.375-6.025-5.275,0-8.575,4.05-8.575,9.35C-52.713-3.5-49.138.375-44.112.375Zm12.4-18.25h-3.4V0h3.4V-7.275a2.68,2.68,0,0,1,2.6-2.95,2.134,2.134,0,0,1,2.225,2.35V0h3.4V-8.375c0-2.8-1.775-4.8-4.425-4.8a4.088,4.088,0,0,0-3.725,2.025h-.075ZM-15.362.375c3.3,0,5.325-1.925,5.8-4.2h-3.35A2.394,2.394,0,0,1-15.387-2.25c-1.925,0-3.025-1.225-3.275-3.2h9.3c0-4.575-2.2-7.725-6.325-7.725-3.75,0-6.325,2.95-6.325,6.75C-22.012-2.6-19.612.375-15.362.375Zm-.275-10.925A2.7,2.7,0,0,1-12.912-7.8h-5.7C-18.312-9.475-17.437-10.55-15.637-10.55ZM-1.838.375c3.425,0,5.55-2.175,5.775-4.9H.662A2.394,2.394,0,0,1-1.913-2.35c-2.075,0-3.05-1.625-3.05-4.05,0-2.475,1.05-4.05,3.1-4.05A2.35,2.35,0,0,1,.487-8.475H3.813c-.45-2.775-2.5-4.7-5.825-4.7-3.9,0-6.4,2.95-6.4,6.775S-5.888.375-1.838.375ZM13.863,0h4.125l-5.3-7.95,4.725-4.875H13.337l-4.55,4.85v-9.9H5.412V0H8.788V-4.325L10.263-5.85Zm10.4.375a6.521,6.521,0,0,0,6.7-6.775,6.521,6.521,0,0,0-6.7-6.775,6.521,6.521,0,0,0-6.7,6.775A6.521,6.521,0,0,0,24.263.375Zm0-2.6c-2.1,0-3.25-1.675-3.25-4.175s1.15-4.2,3.25-4.2c2.075,0,3.25,1.7,3.25,4.2S26.338-2.225,24.263-2.225ZM43.912,0V-12.825h-3.4v7.4a2.59,2.59,0,0,1-2.575,2.9c-1.45,0-2.125-.825-2.125-2.325v-7.975H32.438v8.55c0,2.8,1.6,4.625,4.45,4.625A4.115,4.115,0,0,0,40.563-1.5h.075V0Zm1.45-10.575h1.775V-3.05c0,2.425,1.825,3.075,3.475,3.075,1.35,0,2.125-.05,2.125-.05v-2.5s-.575.025-1,.025a1.125,1.125,0,0,1-1.275-1.275v-6.8h2.2v-2.25h-2.2v-4H47.137v4H45.362Z" transform="translate(11025 -10908)" fill="#3b4255"/>
    <path id="Path_5502" data-name="Path 5502" d="M-38.35,0h6.675a7.984,7.984,0,0,0,5.3-1.725,8.968,8.968,0,0,0,2.85-7.025c0-5.275-3.075-9.125-7.85-9.125H-38.35Zm3.625-3.125v-11.65h2.9c3.075,0,4.625,2.475,4.625,6.025s-1.325,5.625-4.725,5.625ZM-15.75.375A6.521,6.521,0,0,0-9.05-6.4a6.521,6.521,0,0,0-6.7-6.775A6.521,6.521,0,0,0-22.45-6.4,6.521,6.521,0,0,0-15.75.375Zm0-2.6C-17.85-2.225-19-3.9-19-6.4s1.15-4.2,3.25-4.2c2.075,0,3.25,1.7,3.25,4.2S-13.675-2.225-15.75-2.225Zm11.6-10.6H-7.475V0h3.4V-7.275a2.68,2.68,0,0,1,2.6-2.95A2.134,2.134,0,0,1,.75-7.875V0h3.4V-8.375c0-2.8-1.775-4.8-4.425-4.8a4.167,4.167,0,0,0-3.8,2.1H-4.15ZM14.325,0H17.6V-.125c-.3-.225-.45-.8-.45-1.775V-8.425c0-3-1.55-4.725-5.4-4.725-3.75,0-5.425,1.975-5.525,4.225H9.25c.1-1.225.875-1.8,2.475-1.8,1.425,0,2.15.6,2.15,1.525,0,.975-.975,1.15-3.1,1.45-2.85.4-5.15,1.3-5.15,4.125C5.625-1.075,7.475.3,10.1.3c2.2,0,3.125-.75,3.775-1.725h.05A3.478,3.478,0,0,0,14.325,0Zm-3.4-2.075c-1.2,0-2-.425-2-1.625s.875-1.6,2.65-2a9.48,9.48,0,0,0,2.375-.75v1.925C13.95-3.275,12.875-2.075,10.925-2.075Zm7.375-8.5h1.775V-3.05C20.075-.625,21.9.025,23.55.025c1.35,0,2.125-.05,2.125-.05v-2.5s-.575.025-1,.025A1.125,1.125,0,0,1,23.4-3.775v-6.8h2.2v-2.25H23.4v-4H20.075v4H18.3ZM33.25.375c3.3,0,5.325-1.925,5.8-4.2H35.7A2.394,2.394,0,0,1,33.225-2.25c-1.925,0-3.025-1.225-3.275-3.2h9.3c0-4.575-2.2-7.725-6.325-7.725-3.75,0-6.325,2.95-6.325,6.75C26.6-2.6,29,.375,33.25.375ZM32.975-10.55A2.7,2.7,0,0,1,35.7-7.8H30C30.3-9.475,31.175-10.55,32.975-10.55Z" transform="translate(11025 -10358)" fill="#3b4255"/>
    <path id="Path_5503" data-name="Path 5503" d="M-100.437,0h6.675a7.984,7.984,0,0,0,5.3-1.725,8.968,8.968,0,0,0,2.85-7.025c0-5.275-3.075-9.125-7.85-9.125h-6.975Zm3.625-3.125v-11.65h2.9c3.075,0,4.625,2.475,4.625,6.025s-1.325,5.625-4.725,5.625Zm18.975,3.5a6.521,6.521,0,0,0,6.7-6.775,6.521,6.521,0,0,0-6.7-6.775,6.521,6.521,0,0,0-6.7,6.775A6.521,6.521,0,0,0-77.837.375Zm0-2.6c-2.1,0-3.25-1.675-3.25-4.175s1.15-4.2,3.25-4.2c2.075,0,3.25,1.7,3.25,4.2S-75.762-2.225-77.837-2.225Zm11.6-10.6h-3.325V0h3.4V-7.275a2.68,2.68,0,0,1,2.6-2.95,2.134,2.134,0,0,1,2.225,2.35V0h3.4V-8.375c0-2.8-1.775-4.8-4.425-4.8a4.167,4.167,0,0,0-3.8,2.1h-.075ZM-47.763,0h3.275V-.125c-.3-.225-.45-.8-.45-1.775V-8.425c0-3-1.55-4.725-5.4-4.725-3.75,0-5.425,1.975-5.525,4.225h3.025c.1-1.225.875-1.8,2.475-1.8,1.425,0,2.15.6,2.15,1.525,0,.975-.975,1.15-3.1,1.45-2.85.4-5.15,1.3-5.15,4.125,0,2.55,1.85,3.925,4.475,3.925,2.2,0,3.125-.75,3.775-1.725h.05A3.478,3.478,0,0,0-47.763,0Zm-3.4-2.075c-1.2,0-2-.425-2-1.625s.875-1.6,2.65-2a9.48,9.48,0,0,0,2.375-.75v1.925C-48.138-3.275-49.213-2.075-51.162-2.075Zm7.375-8.5h1.775V-3.05c0,2.425,1.825,3.075,3.475,3.075,1.35,0,2.125-.05,2.125-.05v-2.5s-.575.025-1,.025a1.125,1.125,0,0,1-1.275-1.275v-6.8h2.2v-2.25h-2.2v-4h-3.325v4h-1.775ZM-28.838.375c3.3,0,5.325-1.925,5.8-4.2h-3.35A2.394,2.394,0,0,1-28.863-2.25c-1.925,0-3.025-1.225-3.275-3.2h9.3c0-4.575-2.2-7.725-6.325-7.725-3.75,0-6.325,2.95-6.325,6.75C-35.488-2.6-33.088.375-28.838.375Zm-.275-10.925A2.7,2.7,0,0,1-26.388-7.8h-5.7C-31.788-9.475-30.913-10.55-29.113-10.55ZM-14.312,0h3.075l1.75-6.3c.275-1.025.6-2.225.6-2.225h.05s.3,1.2.575,2.225l1.7,6.3h3.1L.363-12.825h-3.3l-1.625,5.95c-.275,1.05-.575,2.4-.575,2.4h-.05s-.325-1.35-.6-2.425l-1.675-5.925h-2.9l-1.6,5.925c-.275,1.05-.55,2.425-.55,2.425h-.05s-.3-1.35-.575-2.4l-1.55-5.95h-3.375ZM1.563,0h3.4V-12.825h-3.4Zm0-14.825h3.4v-3.05h-3.4Zm4.85,4.25H8.188V-3.05c0,2.425,1.825,3.075,3.475,3.075,1.35,0,2.125-.05,2.125-.05v-2.5s-.575.025-1,.025a1.125,1.125,0,0,1-1.275-1.275v-6.8h2.2v-2.25h-2.2v-4H8.188v4H6.412Zm12.45-7.3h-3.4V0h3.4V-7.275a2.68,2.68,0,0,1,2.6-2.95,2.134,2.134,0,0,1,2.225,2.35V0h3.4V-8.375c0-2.8-1.775-4.8-4.425-4.8a4.088,4.088,0,0,0-3.725,2.025h-.075ZM33.663,0h3.75V-6.475h4.4c3.75,0,5.975-2.275,5.975-5.65a5.721,5.721,0,0,0-1.6-4.075,6.263,6.263,0,0,0-4.675-1.675h-7.85Zm3.75-14.725h3.8c1.8,0,2.85.95,2.85,2.625,0,1.625-1,2.675-2.9,2.675h-3.75Zm17.6,15.1a6.521,6.521,0,0,0,6.7-6.775,6.521,6.521,0,0,0-6.7-6.775,6.521,6.521,0,0,0-6.7,6.775A6.521,6.521,0,0,0,55.012.375Zm0-2.6c-2.1,0-3.25-1.675-3.25-4.175s1.15-4.2,3.25-4.2c2.075,0,3.25,1.7,3.25,4.2S57.087-2.225,55.012-2.225ZM63.287,0h3.4V-12.825h-3.4Zm0-14.825h3.4v-3.05h-3.4Zm8.925,2H68.888V0h3.4V-7.275a2.68,2.68,0,0,1,2.6-2.95,2.134,2.134,0,0,1,2.225,2.35V0h3.4V-8.375c0-2.8-1.775-4.8-4.425-4.8a4.167,4.167,0,0,0-3.8,2.1h-.075Zm9.4,2.25h1.775V-3.05c0,2.425,1.825,3.075,3.475,3.075,1.35,0,2.125-.05,2.125-.05v-2.5s-.575.025-1,.025a1.125,1.125,0,0,1-1.275-1.275v-6.8h2.2v-2.25h-2.2v-4H83.387v4H81.612ZM95.988.375c3.2,0,5.4-1.55,5.4-4.125,0-3-2.375-3.6-4.525-4.05-1.825-.375-3.525-.475-3.525-1.575,0-.925.875-1.425,2.2-1.425,1.45,0,2.325.5,2.475,1.875h3.075c-.25-2.575-2.125-4.25-5.5-4.25-2.925,0-5.225,1.325-5.225,4.1,0,2.8,2.25,3.425,4.55,3.875,1.75.35,3.375.475,3.375,1.7,0,.9-.85,1.475-2.35,1.475-1.525,0-2.575-.65-2.8-2.125h-3.15C90.188-1.425,92.262.375,95.988.375Z" transform="translate(11025 -9681)" fill="#3b4255"/>
    <path id="Path_5504" data-name="Path 5504" d="M-70.338,0h3.3l6.025-17.875h-3.675l-3.125,10.35c-.35,1.15-.775,2.85-.775,2.85h-.05s-.425-1.675-.775-2.85l-3.15-10.35h-3.8Zm10.475,0h3.4V-12.825h-3.4Zm0-14.825h3.4v-3.05h-3.4Zm10.8,15.2c3.2,0,5.4-1.55,5.4-4.125,0-3-2.375-3.6-4.525-4.05-1.825-.375-3.525-.475-3.525-1.575,0-.925.875-1.425,2.2-1.425,1.45,0,2.325.5,2.475,1.875h3.075c-.25-2.575-2.125-4.25-5.5-4.25-2.925,0-5.225,1.325-5.225,4.1,0,2.8,2.25,3.425,4.55,3.875,1.75.35,3.375.475,3.375,1.7,0,.9-.85,1.475-2.35,1.475-1.525,0-2.575-.65-2.8-2.125h-3.15C-54.863-1.425-52.788.375-49.063.375ZM-42.138,0h3.4V-12.825h-3.4Zm0-14.825h3.4v-3.05h-3.4Zm4.85,4.25h1.775V-3.05c0,2.425,1.825,3.075,3.475,3.075,1.35,0,2.125-.05,2.125-.05v-2.5s-.575.025-1,.025a1.125,1.125,0,0,1-1.275-1.275v-6.8h2.2v-2.25h-2.2v-4h-3.325v4h-1.775ZM-23.763,0h3.575V-9.225c0-1.25-.1-3.125-.1-3.125h.05s.7,1.525,1.275,2.475L-12.863,0h3.5V-17.875h-3.575V-8.5c0,1.25.1,3.1.1,3.1h-.05s-.675-1.525-1.25-2.5l-5.95-9.975h-3.675ZM6.487,0H9.212V-9.5H1.687v2.8h4.3v.1a4.373,4.373,0,0,1-4.6,4.05c-3.075,0-5-2.675-5-6.325,0-3.55,1.675-6.35,5.05-6.35A3.776,3.776,0,0,1,5.462-12.25h3.55c-.575-3.5-3.15-5.975-7.65-5.975a8.2,8.2,0,0,0-5.75,2.05,9.744,9.744,0,0,0-2.925,7.3,9.814,9.814,0,0,0,2.325,6.65A8.153,8.153,0,0,0,1.287.375,5.341,5.341,0,0,0,6.312-2.4h.05Zm13.1.4c5.275,0,8.6-3.95,8.6-9.3s-3.325-9.325-8.6-9.325S10.962-14.25,10.962-8.9,14.312.4,19.587.4Zm.025-2.975c-3.275,0-4.95-2.775-4.95-6.325,0-3.575,1.675-6.35,4.95-6.35s4.875,2.775,4.875,6.35C24.487-5.35,22.887-2.575,19.612-2.575ZM41.287.4c4.025,0,6.95-2.025,6.95-5.65,0-3.85-3-4.725-6.675-5.525-2.65-.575-3.9-1-3.9-2.45,0-1.275,1.275-2.1,3.225-2.1,1.85,0,3.25.9,3.45,2.7h3.475c-.275-3.6-2.875-5.575-6.9-5.575-3.975,0-6.85,1.825-6.85,5.35,0,3.725,2.925,4.575,6.125,5.3,2.725.625,4.425.975,4.425,2.725,0,1.65-1.625,2.3-3.475,2.3-2.55,0-3.775-.85-4.025-3h-3.55C33.687-1.75,36.437.4,41.287.4Zm8.85-.4h3.4V-12.825h-3.4Zm0-14.825h3.4v-3.05h-3.4Zm4.85,4.25h1.775V-3.05c0,2.425,1.825,3.075,3.475,3.075,1.35,0,2.125-.05,2.125-.05v-2.5s-.575.025-1,.025a1.125,1.125,0,0,1-1.275-1.275v-6.8h2.2v-2.25h-2.2v-4H56.762v4H54.987ZM69.938.375c3.3,0,5.325-1.925,5.8-4.2h-3.35A2.394,2.394,0,0,1,69.912-2.25c-1.925,0-3.025-1.225-3.275-3.2h9.3c0-4.575-2.2-7.725-6.325-7.725-3.75,0-6.325,2.95-6.325,6.75C63.287-2.6,65.688.375,69.938.375ZM69.662-10.55A2.7,2.7,0,0,1,72.387-7.8h-5.7C66.988-9.475,67.863-10.55,69.662-10.55Z" transform="translate(11025 -10231)" fill="#3b4255"/>
    <path id="Path_5505" data-name="Path 5505" d="M-20.9.4c4.025,0,6.95-2.025,6.95-5.65,0-3.85-3-4.725-6.675-5.525-2.65-.575-3.9-1-3.9-2.45,0-1.275,1.275-2.1,3.225-2.1,1.85,0,3.25.9,3.45,2.7h3.475c-.275-3.6-2.875-5.575-6.9-5.575-3.975,0-6.85,1.825-6.85,5.35,0,3.725,2.925,4.575,6.125,5.3,2.725.625,4.425.975,4.425,2.725,0,1.65-1.625,2.3-3.475,2.3-2.55,0-3.775-.85-4.025-3h-3.55C-28.5-1.75-25.75.4-20.9.4ZM-8.65-17.875h-3.4V0h3.4V-7.275a2.68,2.68,0,0,1,2.6-2.95,2.134,2.134,0,0,1,2.225,2.35V0h3.4V-8.375c0-2.8-1.775-4.8-4.425-4.8A4.088,4.088,0,0,0-8.575-11.15H-8.65ZM7.75.375A6.521,6.521,0,0,0,14.45-6.4a6.521,6.521,0,0,0-6.7-6.775A6.521,6.521,0,0,0,1.05-6.4,6.521,6.521,0,0,0,7.75.375Zm0-2.6C5.65-2.225,4.5-3.9,4.5-6.4s1.15-4.2,3.25-4.2C9.825-10.6,11-8.9,11-6.4S9.825-2.225,7.75-2.225ZM16.025,4.2h3.4V-1.45h.05a4.129,4.129,0,0,0,3.7,1.825c3.3,0,5.55-2.625,5.55-6.775,0-4-2.175-6.775-5.575-6.775a4.482,4.482,0,0,0-3.775,1.95H19.3v-1.6H16.025ZM22.45-2.45c-2.025,0-3.1-1.525-3.1-3.85,0-2.3.85-4.125,2.975-4.125,2.1,0,2.95,1.7,2.95,4.125S24.175-2.45,22.45-2.45Z" transform="translate(10709 -11543)" fill="#fff"/>
    <path id="Path_5506" data-name="Path 5506" d="M-83.9,0h3.325V-10.25c0-1.45-.15-3.7-.15-3.7h.05s.4,2.1.775,3.4L-76.9,0h3.475l3.075-10.55c.375-1.3.775-3.4.775-3.4h.05s-.15,2.25-.15,3.7V0H-66.3V-17.875h-5.175L-74-8.9c-.625,2.25-1.1,4.825-1.1,4.825h-.05s-.5-2.575-1.125-4.825L-78.8-17.875h-5.1Zm20.35,4.2h2c2.6,0,3.55-1.025,4.525-3.875l4.475-13.15h-3.425l-1.8,5.775c-.4,1.175-.75,2.8-.75,2.8h-.05S-59-5.875-59.4-7.05l-1.9-5.775h-3.575l3.45,9.125A11.11,11.11,0,0,1-60.45-.225c0,1.05-.55,1.75-1.9,1.75h-1.2ZM-46.9,0h3.625V-17.875H-46.9Zm9.45-12.825h-3.325V0h3.4V-7.275a2.68,2.68,0,0,1,2.6-2.95,2.134,2.134,0,0,1,2.225,2.35V0h3.4V-8.375c0-2.8-1.775-4.8-4.425-4.8a4.167,4.167,0,0,0-3.8,2.1h-.075ZM-23.9,0h3.25l4.475-12.825h-3.4l-2.1,6.65c-.375,1.225-.55,2.05-.55,2.05h-.05s-.2-.825-.575-2.05l-2.05-6.65h-3.45ZM-9.325.375A6.521,6.521,0,0,0-2.625-6.4a6.521,6.521,0,0,0-6.7-6.775,6.521,6.521,0,0,0-6.7,6.775A6.521,6.521,0,0,0-9.325.375Zm0-2.6c-2.1,0-3.25-1.675-3.25-4.175s1.15-4.2,3.25-4.2c2.075,0,3.25,1.7,3.25,4.2S-7.25-2.225-9.325-2.225ZM-1,0H2.4V-17.875H-1ZM8.05,0H11.3l4.475-12.825h-3.4l-2.1,6.65c-.375,1.225-.55,2.05-.55,2.05h-.05s-.2-.825-.575-2.05l-2.05-6.65H3.6ZM22.575.375c3.3,0,5.325-1.925,5.8-4.2h-3.35A2.394,2.394,0,0,1,22.55-2.25c-1.925,0-3.025-1.225-3.275-3.2h9.3c0-4.575-2.2-7.725-6.325-7.725-3.75,0-6.325,2.95-6.325,6.75C15.925-2.6,18.325.375,22.575.375ZM22.3-10.55A2.7,2.7,0,0,1,25.025-7.8h-5.7C19.625-9.475,20.5-10.55,22.3-10.55ZM30.15,0h3.4V-7.45c0-1.7.925-2.8,2.3-2.8,1.25,0,1.975.75,1.975,2.2V0h3.4V-7.45c0-1.7.875-2.8,2.3-2.8,1.25,0,1.975.75,1.975,2.2V0h3.4V-8.625c0-2.8-1.525-4.55-4.225-4.55a4.473,4.473,0,0,0-3.85,2.25h-.05a3.827,3.827,0,0,0-3.55-2.25A4.187,4.187,0,0,0,33.5-11.1h-.075v-1.725H30.15ZM57.025.375c3.3,0,5.325-1.925,5.8-4.2h-3.35A2.394,2.394,0,0,1,57-2.25c-1.925,0-3.025-1.225-3.275-3.2h9.3c0-4.575-2.2-7.725-6.325-7.725-3.75,0-6.325,2.95-6.325,6.75C50.375-2.6,52.775.375,57.025.375ZM56.75-10.55A2.7,2.7,0,0,1,59.475-7.8h-5.7C54.075-9.475,54.95-10.55,56.75-10.55Zm11.175-2.275H64.6V0H68V-7.275a2.68,2.68,0,0,1,2.6-2.95,2.134,2.134,0,0,1,2.225,2.35V0h3.4V-8.375c0-2.8-1.775-4.8-4.425-4.8a4.167,4.167,0,0,0-3.8,2.1h-.075Zm9.4,2.25H79.1V-3.05C79.1-.625,80.925.025,82.575.025c1.35,0,2.125-.05,2.125-.05v-2.5s-.575.025-1,.025a1.125,1.125,0,0,1-1.275-1.275v-6.8h2.2v-2.25h-2.2v-4H79.1v4H77.325Z" transform="translate(10709 -10064)" fill="#fff"/>
    <path id="Path_5507" data-name="Path 5507" d="M-28.513.4c5.275,0,8.6-3.95,8.6-9.3s-3.325-9.325-8.6-9.325S-37.138-14.25-37.138-8.9-33.787.4-28.513.4Zm.025-2.975c-3.275,0-4.95-2.775-4.95-6.325,0-3.575,1.675-6.35,4.95-6.35s4.875,2.775,4.875,6.35C-23.612-5.35-25.212-2.575-28.487-2.575Zm13.55-10.25h-3.275V0h3.4V-6.25c0-2.7,1.6-3.875,3.825-3.65h.075v-2.975a2.22,2.22,0,0,0-.8-.1c-1.5,0-2.375.75-3.15,2.2h-.075ZM-5.012.375a4.267,4.267,0,0,0,3.825-2.05h.05V0H2.138V-17.875h-3.4v6.6h-.075a4.066,4.066,0,0,0-3.625-1.9c-3.2,0-5.475,2.775-5.475,6.775C-10.437-2.25-8.237.375-5.012.375Zm.75-2.85c-1.75,0-2.725-1.45-2.725-3.925,0-2.375.95-4.025,2.825-4.025,2.175,0,2.975,1.65,2.975,4.1C-1.187-3.975-2.237-2.475-4.262-2.475ZM10.362.375c3.3,0,5.325-1.925,5.8-4.2h-3.35A2.394,2.394,0,0,1,10.337-2.25c-1.925,0-3.025-1.225-3.275-3.2h9.3c0-4.575-2.2-7.725-6.325-7.725-3.75,0-6.325,2.95-6.325,6.75C3.712-2.6,6.112.375,10.362.375ZM10.087-10.55A2.7,2.7,0,0,1,12.812-7.8h-5.7C7.412-9.475,8.287-10.55,10.087-10.55Zm11.125-2.275H17.938V0h3.4V-6.25c0-2.7,1.6-3.875,3.825-3.65h.075v-2.975a2.22,2.22,0,0,0-.8-.1c-1.5,0-2.375.75-3.15,2.2h-.075Zm10.7,13.2c3.2,0,5.4-1.55,5.4-4.125,0-3-2.375-3.6-4.525-4.05-1.825-.375-3.525-.475-3.525-1.575,0-.925.875-1.425,2.2-1.425,1.45,0,2.325.5,2.475,1.875h3.075c-.25-2.575-2.125-4.25-5.5-4.25-2.925,0-5.225,1.325-5.225,4.1,0,2.8,2.25,3.425,4.55,3.875,1.75.35,3.375.475,3.375,1.7,0,.9-.85,1.475-2.35,1.475-1.525,0-2.575-.65-2.8-2.125h-3.15C26.112-1.425,28.188.375,31.912.375Z" transform="translate(11025 -11290)" fill="#fff"/>
    <path id="Path_5508" data-name="Path 5508" d="M-70.475.4c4.025,0,6.95-2.025,6.95-5.65,0-3.85-3-4.725-6.675-5.525-2.65-.575-3.9-1-3.9-2.45,0-1.275,1.275-2.1,3.225-2.1,1.85,0,3.25.9,3.45,2.7h3.475c-.275-3.6-2.875-5.575-6.9-5.575-3.975,0-6.85,1.825-6.85,5.35,0,3.725,2.925,4.575,6.125,5.3,2.725.625,4.425.975,4.425,2.725,0,1.65-1.625,2.3-3.475,2.3-2.55,0-3.775-.85-4.025-3H-78.2C-78.075-1.75-75.325.4-70.475.4Zm12.25-18.275h-3.4V0h3.4V-7.275a2.68,2.68,0,0,1,2.6-2.95A2.134,2.134,0,0,1-53.4-7.875V0H-50V-8.375c0-2.8-1.775-4.8-4.425-4.8A4.088,4.088,0,0,0-58.15-11.15h-.075Zm16.4,18.25a6.521,6.521,0,0,0,6.7-6.775,6.521,6.521,0,0,0-6.7-6.775,6.521,6.521,0,0,0-6.7,6.775A6.521,6.521,0,0,0-41.825.375Zm0-2.6c-2.1,0-3.25-1.675-3.25-4.175s1.15-4.2,3.25-4.2c2.075,0,3.25,1.7,3.25,4.2S-39.75-2.225-41.825-2.225ZM-33.55,4.2h3.4V-1.45h.05A4.129,4.129,0,0,0-26.4.375c3.3,0,5.55-2.625,5.55-6.775,0-4-2.175-6.775-5.575-6.775a4.482,4.482,0,0,0-3.775,1.95h-.075v-1.6H-33.55Zm6.425-6.65c-2.025,0-3.1-1.525-3.1-3.85,0-2.3.85-4.125,2.975-4.125,2.1,0,2.95,1.7,2.95,4.125S-25.4-2.45-27.125-2.45Zm7.85,6.65h3.4V-1.45h.05a4.129,4.129,0,0,0,3.7,1.825c3.3,0,5.55-2.625,5.55-6.775,0-4-2.175-6.775-5.575-6.775a4.482,4.482,0,0,0-3.775,1.95H-16v-1.6h-3.275Zm6.425-6.65c-2.025,0-3.1-1.525-3.1-3.85,0-2.3.85-4.125,2.975-4.125,2.1,0,2.95,1.7,2.95,4.125S-11.125-2.45-12.85-2.45ZM-5,0h3.4V-12.825H-5Zm0-14.825h3.4v-3.05H-5Zm8.925,2H.6V0H4V-7.275a2.68,2.68,0,0,1,2.6-2.95,2.134,2.134,0,0,1,2.225,2.35V0h3.4V-8.375c0-2.8-1.775-4.8-4.425-4.8a4.167,4.167,0,0,0-3.8,2.1H3.925Zm16.05,17.2A6.711,6.711,0,0,0,24.6,2.925a4.977,4.977,0,0,0,1.525-3.9v-11.85H22.85v1.35H22.8a4.134,4.134,0,0,0-3.55-1.7c-3.25,0-5.55,2.45-5.55,6.275A5.764,5.764,0,0,0,19.35-.775a4.145,4.145,0,0,0,3.35-1.5h.075v1.4c0,1.75-.925,2.675-2.85,2.675-1.575,0-2.3-.625-2.575-1.425H13.975C14.325,2.875,16.475,4.375,19.975,4.375ZM19.925-3.5c-1.75,0-2.9-1.275-2.9-3.45,0-2.15,1.15-3.5,2.875-3.5,2.05,0,3.05,1.6,3.05,3.475C22.95-5.075,22.075-3.5,19.925-3.5ZM40.625.375a7.556,7.556,0,0,0,5.425-1.9A6.33,6.33,0,0,0,48.025-5.75h-3.55a3.6,3.6,0,0,1-3.85,3.15c-3,0-4.9-2.625-4.9-6.275,0-3.55,1.575-6.3,4.875-6.3A3.532,3.532,0,0,1,44.375-12.2h3.6C47.6-15.6,45-18.225,40.6-18.225c-5.275,0-8.575,4.05-8.575,9.35C32.025-3.5,35.6.375,40.625.375ZM57.7,0h3.275V-.125c-.3-.225-.45-.8-.45-1.775V-8.425c0-3-1.55-4.725-5.4-4.725-3.75,0-5.425,1.975-5.525,4.225h3.025c.1-1.225.875-1.8,2.475-1.8,1.425,0,2.15.6,2.15,1.525,0,.975-.975,1.15-3.1,1.45C51.3-7.35,49-6.45,49-3.625,49-1.075,50.85.3,53.475.3c2.2,0,3.125-.75,3.775-1.725h.05A3.478,3.478,0,0,0,57.7,0ZM54.3-2.075c-1.2,0-2-.425-2-1.625s.875-1.6,2.65-2a9.48,9.48,0,0,0,2.375-.75v1.925C57.325-3.275,56.25-2.075,54.3-2.075Zm11.65-10.75H62.675V0h3.4V-6.25c0-2.7,1.6-3.875,3.825-3.65h.075v-2.975a2.22,2.22,0,0,0-.8-.1c-1.5,0-2.375.75-3.15,2.2H65.95Zm4.875,2.25H72.6V-3.05C72.6-.625,74.425.025,76.075.025c1.35,0,2.125-.05,2.125-.05v-2.5s-.575.025-1,.025a1.125,1.125,0,0,1-1.275-1.275v-6.8h2.2v-2.25h-2.2v-4H72.6v4H70.825Z" transform="translate(11025 -11162)" fill="#fff"/>
    <path id="Path_5509" data-name="Path 5509" d="M-65.213,0h3.575V-9.225c0-1.25-.1-3.125-.1-3.125h.05s.7,1.525,1.275,2.475L-54.312,0h3.5V-17.875h-3.575V-8.5c0,1.25.1,3.1.1,3.1h-.05s-.675-1.525-1.25-2.5l-5.95-9.975h-3.675Zm30.25,0h2.725V-9.5h-7.525v2.8h4.3v.1a4.373,4.373,0,0,1-4.6,4.05c-3.075,0-5-2.675-5-6.325,0-3.55,1.675-6.35,5.05-6.35a3.776,3.776,0,0,1,4.025,2.975h3.55c-.575-3.5-3.15-5.975-7.65-5.975a8.2,8.2,0,0,0-5.75,2.05,9.744,9.744,0,0,0-2.925,7.3,9.814,9.814,0,0,0,2.325,6.65,8.153,8.153,0,0,0,6.275,2.6A5.341,5.341,0,0,0-35.137-2.4h.05Zm13.1.4c5.275,0,8.6-3.95,8.6-9.3s-3.325-9.325-8.6-9.325S-30.488-14.25-30.488-8.9-27.138.4-21.863.4Zm.025-2.975c-3.275,0-4.95-2.775-4.95-6.325,0-3.575,1.675-6.35,4.95-6.35s4.875,2.775,4.875,6.35C-16.963-5.35-18.563-2.575-21.838-2.575ZM-7.088,0H-.413a7.984,7.984,0,0,0,5.3-1.725A8.968,8.968,0,0,0,7.737-8.75c0-5.275-3.075-9.125-7.85-9.125H-7.088Zm3.625-3.125v-11.65h2.9c3.075,0,4.625,2.475,4.625,6.025S2.737-3.125-.663-3.125ZM15.463.375c3.3,0,5.325-1.925,5.8-4.2h-3.35A2.394,2.394,0,0,1,15.438-2.25c-1.925,0-3.025-1.225-3.275-3.2h9.3c0-4.575-2.2-7.725-6.325-7.725-3.75,0-6.325,2.95-6.325,6.75C8.813-2.6,11.213.375,15.463.375ZM15.188-10.55A2.7,2.7,0,0,1,17.913-7.8h-5.7C12.513-9.475,13.388-10.55,15.188-10.55Zm6.85-.025h1.775V-3.05c0,2.425,1.825,3.075,3.475,3.075,1.35,0,2.125-.05,2.125-.05v-2.5s-.575.025-1,.025a1.125,1.125,0,0,1-1.275-1.275v-6.8h2.2v-2.25h-2.2v-4H23.813v4H22.038ZM39.287,0h3.275V-.125c-.3-.225-.45-.8-.45-1.775V-8.425c0-3-1.55-4.725-5.4-4.725-3.75,0-5.425,1.975-5.525,4.225h3.025c.1-1.225.875-1.8,2.475-1.8,1.425,0,2.15.6,2.15,1.525,0,.975-.975,1.15-3.1,1.45-2.85.4-5.15,1.3-5.15,4.125,0,2.55,1.85,3.925,4.475,3.925,2.2,0,3.125-.75,3.775-1.725h.05A3.478,3.478,0,0,0,39.287,0Zm-3.4-2.075c-1.2,0-2-.425-2-1.625s.875-1.6,2.65-2a9.48,9.48,0,0,0,2.375-.75v1.925C38.912-3.275,37.837-2.075,35.887-2.075ZM44.262,0h3.4V-12.825h-3.4Zm0-14.825h3.4v-3.05h-3.4ZM49.912,0h3.4V-17.875h-3.4Zm10.85.375c3.2,0,5.4-1.55,5.4-4.125,0-3-2.375-3.6-4.525-4.05-1.825-.375-3.525-.475-3.525-1.575,0-.925.875-1.425,2.2-1.425,1.45,0,2.325.5,2.475,1.875h3.075c-.25-2.575-2.125-4.25-5.5-4.25-2.925,0-5.225,1.325-5.225,4.1,0,2.8,2.25,3.425,4.55,3.875,1.75.35,3.375.475,3.375,1.7,0,.9-.85,1.475-2.35,1.475-1.525,0-2.575-.65-2.8-2.125h-3.15C54.963-1.425,57.038.375,60.763.375Z" transform="translate(11025 -10485)" fill="#fff"/>
    <path id="Path_5510" data-name="Path 5510" d="M-126.125,0h3.625V-7.175h2.925c2.25,0,3.35,1.1,3.5,3.05.15,1.925.2,3.925.65,4.125h3.475V-.175c-.625-.275-.525-2.2-.775-4.725-.225-2.175-1.075-3.125-2.725-3.6v-.075a4.11,4.11,0,0,0,3.275-4.325c0-2.975-2.3-4.975-5.75-4.975h-8.2Zm3.625-14.95h3.95c1.925,0,2.85,1.075,2.85,2.525,0,1.425-.975,2.45-2.95,2.45h-3.85ZM-104.225.375c3.3,0,5.325-1.925,5.8-4.2h-3.35A2.394,2.394,0,0,1-104.25-2.25c-1.925,0-3.025-1.225-3.275-3.2h9.3c0-4.575-2.2-7.725-6.325-7.725-3.75,0-6.325,2.95-6.325,6.75C-110.875-2.6-108.475.375-104.225.375ZM-104.5-10.55a2.7,2.7,0,0,1,2.725,2.75h-5.7C-107.175-9.475-106.3-10.55-104.5-10.55ZM-91.85.375a4.267,4.267,0,0,0,3.825-2.05h.05V0H-84.7V-17.875h-3.4v6.6h-.075a4.066,4.066,0,0,0-3.625-1.9c-3.2,0-5.475,2.775-5.475,6.775C-97.275-2.25-95.075.375-91.85.375Zm.75-2.85c-1.75,0-2.725-1.45-2.725-3.925,0-2.375.95-4.025,2.825-4.025,2.175,0,2.975,1.65,2.975,4.1C-88.025-3.975-89.075-2.475-91.1-2.475ZM-76.475.375c3.3,0,5.325-1.925,5.8-4.2h-3.35A2.394,2.394,0,0,1-76.5-2.25c-1.925,0-3.025-1.225-3.275-3.2h9.3c0-4.575-2.2-7.725-6.325-7.725-3.75,0-6.325,2.95-6.325,6.75C-83.125-2.6-80.725.375-76.475.375ZM-76.75-10.55A2.7,2.7,0,0,1-74.025-7.8h-5.7C-79.425-9.475-78.55-10.55-76.75-10.55ZM-62.875.375c3.3,0,5.325-1.925,5.8-4.2h-3.35A2.394,2.394,0,0,1-62.9-2.25c-1.925,0-3.025-1.225-3.275-3.2h9.3c0-4.575-2.2-7.725-6.325-7.725-3.75,0-6.325,2.95-6.325,6.75C-69.525-2.6-67.125.375-62.875.375ZM-63.15-10.55A2.7,2.7,0,0,1-60.425-7.8h-5.7C-65.825-9.475-64.95-10.55-63.15-10.55ZM-55.3,0h3.4V-7.45c0-1.7.925-2.8,2.3-2.8,1.25,0,1.975.75,1.975,2.2V0h3.4V-7.45c0-1.7.875-2.8,2.3-2.8,1.25,0,1.975.75,1.975,2.2V0h3.4V-8.625c0-2.8-1.525-4.55-4.225-4.55a4.473,4.473,0,0,0-3.85,2.25h-.05a3.827,3.827,0,0,0-3.55-2.25A4.187,4.187,0,0,0-51.95-11.1h-.075v-1.725H-55.3Zm25.325,0h3.75V-6.475h4.4c3.75,0,5.975-2.275,5.975-5.65a5.721,5.721,0,0,0-1.6-4.075,6.263,6.263,0,0,0-4.675-1.675h-7.85Zm3.75-14.725h3.8c1.8,0,2.85.95,2.85,2.625,0,1.625-1,2.675-2.9,2.675h-3.75Zm17.6,15.1A6.521,6.521,0,0,0-1.925-6.4a6.521,6.521,0,0,0-6.7-6.775,6.521,6.521,0,0,0-6.7,6.775A6.521,6.521,0,0,0-8.625.375Zm0-2.6c-2.1,0-3.25-1.675-3.25-4.175s1.15-4.2,3.25-4.2c2.075,0,3.25,1.7,3.25,4.2S-6.55-2.225-8.625-2.225ZM-.35,0h3.4V-12.825H-.35Zm0-14.825h3.4v-3.05H-.35Zm8.925,2H5.25V0h3.4V-7.275a2.68,2.68,0,0,1,2.6-2.95,2.134,2.134,0,0,1,2.225,2.35V0h3.4V-8.375c0-2.8-1.775-4.8-4.425-4.8a4.167,4.167,0,0,0-3.8,2.1H8.575Zm9.4,2.25H19.75V-3.05c0,2.425,1.825,3.075,3.475,3.075,1.35,0,2.125-.05,2.125-.05v-2.5s-.575.025-1,.025a1.125,1.125,0,0,1-1.275-1.275v-6.8h2.2v-2.25h-2.2v-4H19.75v4H17.975ZM32.35.375c3.2,0,5.4-1.55,5.4-4.125,0-3-2.375-3.6-4.525-4.05C31.4-8.175,29.7-8.275,29.7-9.375c0-.925.875-1.425,2.2-1.425,1.45,0,2.325.5,2.475,1.875H37.45c-.25-2.575-2.125-4.25-5.5-4.25-2.925,0-5.225,1.325-5.225,4.1,0,2.8,2.25,3.425,4.55,3.875,1.75.35,3.375.475,3.375,1.7,0,.9-.85,1.475-2.35,1.475-1.525,0-2.575-.65-2.8-2.125H26.35C26.55-1.425,28.625.375,32.35.375Zm10.375-10.95H44.5V-3.05C44.5-.625,46.325.025,47.975.025c1.35,0,2.125-.05,2.125-.05v-2.5s-.575.025-1,.025a1.125,1.125,0,0,1-1.275-1.275v-6.8h2.2v-2.25h-2.2v-4H44.5v4H42.725Zm15,10.95a6.521,6.521,0,0,0,6.7-6.775,6.521,6.521,0,0,0-6.7-6.775,6.521,6.521,0,0,0-6.7,6.775A6.521,6.521,0,0,0,57.725.375Zm0-2.6c-2.1,0-3.25-1.675-3.25-4.175s1.15-4.2,3.25-4.2c2.075,0,3.25,1.7,3.25,4.2S59.8-2.225,57.725-2.225ZM77.4.4c4.025,0,6.95-2.025,6.95-5.65,0-3.85-3-4.725-6.675-5.525-2.65-.575-3.9-1-3.9-2.45,0-1.275,1.275-2.1,3.225-2.1,1.85,0,3.25.9,3.45,2.7h3.475c-.275-3.6-2.875-5.575-6.9-5.575-3.975,0-6.85,1.825-6.85,5.35,0,3.725,2.925,4.575,6.125,5.3,2.725.625,4.425.975,4.425,2.725,0,1.65-1.625,2.3-3.475,2.3-2.55,0-3.775-.85-4.025-3h-3.55C69.8-1.75,72.55.4,77.4.4ZM89.65-17.875h-3.4V0h3.4V-7.275a2.68,2.68,0,0,1,2.6-2.95,2.134,2.134,0,0,1,2.225,2.35V0h3.4V-8.375c0-2.8-1.775-4.8-4.425-4.8a4.088,4.088,0,0,0-3.725,2.025H89.65ZM106.05.375a6.521,6.521,0,0,0,6.7-6.775,6.521,6.521,0,0,0-6.7-6.775A6.521,6.521,0,0,0,99.35-6.4,6.521,6.521,0,0,0,106.05.375Zm0-2.6c-2.1,0-3.25-1.675-3.25-4.175s1.15-4.2,3.25-4.2c2.075,0,3.25,1.7,3.25,4.2S108.125-2.225,106.05-2.225ZM114.325,4.2h3.4V-1.45h.05a4.129,4.129,0,0,0,3.7,1.825c3.3,0,5.55-2.625,5.55-6.775,0-4-2.175-6.775-5.575-6.775a4.482,4.482,0,0,0-3.775,1.95H117.6v-1.6h-3.275Zm6.425-6.65c-2.025,0-3.1-1.525-3.1-3.85,0-2.3.85-4.125,2.975-4.125,2.1,0,2.95,1.7,2.95,4.125S122.475-2.45,120.75-2.45Z" transform="translate(11025 -9808)" fill="#3b4255"/>
    <path id="Path_5511" data-name="Path 5511" d="M0,0H292V87H0Z" transform="translate(10247 -11471)" fill="#f08f4b"/>
    <path id="Path_5512" data-name="Path 5512" d="M-75.775.375a7.556,7.556,0,0,0,5.425-1.9A6.33,6.33,0,0,0-68.375-5.75h-3.55a3.6,3.6,0,0,1-3.85,3.15c-3,0-4.9-2.625-4.9-6.275,0-3.55,1.575-6.3,4.875-6.3A3.532,3.532,0,0,1-72.025-12.2h3.6c-.375-3.4-2.975-6.025-7.375-6.025-5.275,0-8.575,4.05-8.575,9.35C-84.375-3.5-80.8.375-75.775.375Zm12.275-13.2h-3.275V0h3.4V-6.25c0-2.7,1.6-3.875,3.825-3.65h.075v-2.975a2.22,2.22,0,0,0-.8-.1c-1.5,0-2.375.75-3.15,2.2H-63.5ZM-52.35.375c3.3,0,5.325-1.925,5.8-4.2H-49.9A2.394,2.394,0,0,1-52.375-2.25c-1.925,0-3.025-1.225-3.275-3.2h9.3c0-4.575-2.2-7.725-6.325-7.725-3.75,0-6.325,2.95-6.325,6.75C-59-2.6-56.6.375-52.35.375Zm-.275-10.925A2.7,2.7,0,0,1-49.9-7.8h-5.7C-55.3-9.475-54.425-10.55-52.625-10.55ZM-36.7,0h3.275V-.125c-.3-.225-.45-.8-.45-1.775V-8.425c0-3-1.55-4.725-5.4-4.725-3.75,0-5.425,1.975-5.525,4.225h3.025c.1-1.225.875-1.8,2.475-1.8,1.425,0,2.15.6,2.15,1.525,0,.975-.975,1.15-3.1,1.45-2.85.4-5.15,1.3-5.15,4.125C-45.4-1.075-43.55.3-40.925.3c2.2,0,3.125-.75,3.775-1.725h.05A3.478,3.478,0,0,0-36.7,0Zm-3.4-2.075c-1.2,0-2-.425-2-1.625s.875-1.6,2.65-2a9.48,9.48,0,0,0,2.375-.75v1.925C-37.075-3.275-38.15-2.075-40.1-2.075Zm7.375-8.5h1.775V-3.05c0,2.425,1.825,3.075,3.475,3.075,1.35,0,2.125-.05,2.125-.05v-2.5s-.575.025-1,.025a1.125,1.125,0,0,1-1.275-1.275v-6.8h2.2v-2.25h-2.2v-4H-30.95v4h-1.775ZM-17.775.375c3.3,0,5.325-1.925,5.8-4.2h-3.35A2.394,2.394,0,0,1-17.8-2.25c-1.925,0-3.025-1.225-3.275-3.2h9.3c0-4.575-2.2-7.725-6.325-7.725-3.75,0-6.325,2.95-6.325,6.75C-24.425-2.6-22.025.375-17.775.375ZM-18.05-10.55A2.7,2.7,0,0,1-15.325-7.8h-5.7C-20.725-9.475-19.85-10.55-18.05-10.55ZM-7.025,0H-3.35l1.175-3.8h6.45L5.475,0H9.25L2.95-17.875H-.8Zm7.3-11.725c.3-.95.75-2.75.75-2.75h.05s.425,1.8.725,2.75l1.6,5.15H-1.325ZM15.925.375c3.425,0,5.55-2.175,5.775-4.9H18.425A2.394,2.394,0,0,1,15.85-2.35c-2.075,0-3.05-1.625-3.05-4.05,0-2.475,1.05-4.05,3.1-4.05a2.35,2.35,0,0,1,2.35,1.975h3.325c-.45-2.775-2.5-4.7-5.825-4.7-3.9,0-6.4,2.95-6.4,6.775S11.875.375,15.925.375Zm13.2,0c3.425,0,5.55-2.175,5.775-4.9H31.625A2.394,2.394,0,0,1,29.05-2.35C26.975-2.35,26-3.975,26-6.4c0-2.475,1.05-4.05,3.1-4.05a2.35,2.35,0,0,1,2.35,1.975h3.325c-.45-2.775-2.5-4.7-5.825-4.7-3.9,0-6.4,2.95-6.4,6.775S25.075.375,29.125.375Zm13.325,0A6.521,6.521,0,0,0,49.15-6.4a6.521,6.521,0,0,0-6.7-6.775A6.521,6.521,0,0,0,35.75-6.4,6.521,6.521,0,0,0,42.45.375Zm0-2.6c-2.1,0-3.25-1.675-3.25-4.175s1.15-4.2,3.25-4.2c2.075,0,3.25,1.7,3.25,4.2S44.525-2.225,42.45-2.225ZM62.1,0V-12.825H58.7v7.4a2.59,2.59,0,0,1-2.575,2.9C54.675-2.525,54-3.35,54-4.85v-7.975H50.625v8.55c0,2.8,1.6,4.625,4.45,4.625A4.115,4.115,0,0,0,58.75-1.5h.075V0Zm5.525-12.825H64.3V0h3.4V-7.275a2.68,2.68,0,0,1,2.6-2.95,2.134,2.134,0,0,1,2.225,2.35V0h3.4V-8.375c0-2.8-1.775-4.8-4.425-4.8a4.167,4.167,0,0,0-3.8,2.1h-.075Zm9.4,2.25H78.8V-3.05C78.8-.625,80.625.025,82.275.025c1.35,0,2.125-.05,2.125-.05v-2.5s-.575.025-1,.025a1.125,1.125,0,0,1-1.275-1.275v-6.8h2.2v-2.25h-2.2v-4H78.8v4H77.025Z" transform="translate(10393 -11418)" fill="#3b4255"/>
    <path id="Path_5513" data-name="Path 5513" d="M0,0H292V88H0Z" transform="translate(10247 -11344)" fill="#f08f4b"/>
    <path id="Path_5514" data-name="Path 5514" d="M44,0H248a44,44,0,0,1,0,88H44A44,44,0,0,1,44,0Z" transform="translate(10247 -11217)" fill="#3b4255"/>
    <path id="Path_5515" data-name="Path 5515" d="M-33.975,0H-21.95V-3.025h-8.4v-14.85h-3.625ZM-14.45.375A6.521,6.521,0,0,0-7.75-6.4a6.521,6.521,0,0,0-6.7-6.775A6.521,6.521,0,0,0-21.15-6.4,6.521,6.521,0,0,0-14.45.375Zm0-2.6c-2.1,0-3.25-1.675-3.25-4.175s1.15-4.2,3.25-4.2c2.075,0,3.25,1.7,3.25,4.2S-12.375-2.225-14.45-2.225Zm13.925,6.6A6.711,6.711,0,0,0,4.1,2.925a4.977,4.977,0,0,0,1.525-3.9v-11.85H2.35v1.35H2.3a4.134,4.134,0,0,0-3.55-1.7c-3.25,0-5.55,2.45-5.55,6.275A5.764,5.764,0,0,0-1.15-.775a4.145,4.145,0,0,0,3.35-1.5h.075v1.4C2.275.875,1.35,1.8-.575,1.8c-1.575,0-2.3-.625-2.575-1.425H-6.525C-6.175,2.875-4.025,4.375-.525,4.375ZM-.575-3.5c-1.75,0-2.9-1.275-2.9-3.45,0-2.15,1.15-3.5,2.875-3.5,2.05,0,3.05,1.6,3.05,3.475C2.45-5.075,1.575-3.5-.575-3.5Zm8.15-1.225H14.35V-7.65H7.575ZM16.6,0h3.625V-17.875H16.6Zm9.45-12.825H22.725V0h3.4V-7.275a2.68,2.68,0,0,1,2.6-2.95,2.134,2.134,0,0,1,2.225,2.35V0h3.4V-8.375c0-2.8-1.775-4.8-4.425-4.8a4.167,4.167,0,0,0-3.8,2.1H26.05Z" transform="translate(10393 -11291)" fill="#3b4255"/>
    <path id="Path_5516" data-name="Path 5516" d="M-62.463.375a7.556,7.556,0,0,0,5.425-1.9A6.33,6.33,0,0,0-55.063-5.75h-3.55a3.6,3.6,0,0,1-3.85,3.15c-3,0-4.9-2.625-4.9-6.275,0-3.55,1.575-6.3,4.875-6.3A3.532,3.532,0,0,1-58.713-12.2h3.6c-.375-3.4-2.975-6.025-7.375-6.025-5.275,0-8.575,4.05-8.575,9.35C-71.063-3.5-67.488.375-62.463.375Zm15.2,0a6.521,6.521,0,0,0,6.7-6.775,6.521,6.521,0,0,0-6.7-6.775,6.521,6.521,0,0,0-6.7,6.775A6.521,6.521,0,0,0-47.263.375Zm0-2.6c-2.1,0-3.25-1.675-3.25-4.175s1.15-4.2,3.25-4.2c2.075,0,3.25,1.7,3.25,4.2S-45.188-2.225-47.263-2.225Zm11.6-10.6h-3.325V0h3.4V-7.275a2.68,2.68,0,0,1,2.6-2.95,2.134,2.134,0,0,1,2.225,2.35V0h3.4V-8.375c0-2.8-1.775-4.8-4.425-4.8a4.167,4.167,0,0,0-3.8,2.1h-.075Zm9.45,2.35h1.75V0h3.4V-10.475h2.3v-2.35h-2.3v-.95c0-1.325.7-1.525,2.3-1.45V-17.85c-3.275-.35-5.7.75-5.7,3.875v1.15h-1.75ZM-17.238,0h3.4V-12.825h-3.4Zm0-14.825h3.4v-3.05h-3.4Zm8.875,2h-3.275V0h3.4V-6.25c0-2.7,1.6-3.875,3.825-3.65h.075v-2.975a2.22,2.22,0,0,0-.8-.1c-1.5,0-2.375.75-3.15,2.2h-.075ZM-2.863,0h3.4V-7.45c0-1.7.925-2.8,2.3-2.8,1.25,0,1.975.75,1.975,2.2V0h3.4V-7.45c0-1.7.875-2.8,2.3-2.8,1.25,0,1.975.75,1.975,2.2V0h3.4V-8.625c0-2.8-1.525-4.55-4.225-4.55a4.473,4.473,0,0,0-3.85,2.25h-.05a3.827,3.827,0,0,0-3.55-2.25A4.187,4.187,0,0,0,.487-11.1H.412v-1.725H-2.863ZM26.062,0h3.275V-.125c-.3-.225-.45-.8-.45-1.775V-8.425c0-3-1.55-4.725-5.4-4.725-3.75,0-5.425,1.975-5.525,4.225h3.025c.1-1.225.875-1.8,2.475-1.8,1.425,0,2.15.6,2.15,1.525,0,.975-.975,1.15-3.1,1.45-2.85.4-5.15,1.3-5.15,4.125,0,2.55,1.85,3.925,4.475,3.925,2.2,0,3.125-.75,3.775-1.725h.05A3.478,3.478,0,0,0,26.062,0Zm-3.4-2.075c-1.2,0-2-.425-2-1.625s.875-1.6,2.65-2a9.48,9.48,0,0,0,2.375-.75v1.925C25.687-3.275,24.612-2.075,22.662-2.075Zm7.375-8.5h1.775V-3.05c0,2.425,1.825,3.075,3.475,3.075,1.35,0,2.125-.05,2.125-.05v-2.5s-.575.025-1,.025a1.125,1.125,0,0,1-1.275-1.275v-6.8h2.2v-2.25h-2.2v-4H31.812v4H30.037ZM39.087,0h3.4V-12.825h-3.4Zm0-14.825h3.4v-3.05h-3.4ZM50.762.375a6.521,6.521,0,0,0,6.7-6.775,6.521,6.521,0,0,0-6.7-6.775,6.521,6.521,0,0,0-6.7,6.775A6.521,6.521,0,0,0,50.762.375Zm0-2.6c-2.1,0-3.25-1.675-3.25-4.175s1.15-4.2,3.25-4.2c2.075,0,3.25,1.7,3.25,4.2S52.837-2.225,50.762-2.225Zm11.6-10.6H59.037V0h3.4V-7.275a2.68,2.68,0,0,1,2.6-2.95,2.134,2.134,0,0,1,2.225,2.35V0h3.4V-8.375c0-2.8-1.775-4.8-4.425-4.8a4.167,4.167,0,0,0-3.8,2.1h-.075Z" transform="translate(10393 -11164)" fill="#fff"/>
    <path id="Path_5462" data-name="Path 5462" d="M12018-9368.5h-74.655v383H12018" transform="translate(-1139 -2059)" fill="none" stroke="#f08f4b" stroke-width="2"/>
    <path id="Path_5466" data-name="Path 5466" d="M12011.345-9368.5h-68v1824h68" transform="translate(-1078.345 -2039)" fill="none" stroke="#3b4255" stroke-width="2"/>
    <path id="Path_5517" data-name="Path 5517" d="M37.973,0H214.027a37.973,37.973,0,0,1,0,75.945H37.973A37.973,37.973,0,0,1,37.973,0Z" transform="translate(9951 -9922)" fill="#3b4255"/>
    <path id="Path_5518" data-name="Path 5518" d="M0,0H252V75.945H0Z" transform="translate(9951 -9826)" fill="#f08f4b"/>
    <path id="Path_5519" data-name="Path 5519" d="M-26.662,0h3.75V-6.475h4.4c3.75,0,5.975-2.275,5.975-5.65a5.721,5.721,0,0,0-1.6-4.075,6.263,6.263,0,0,0-4.675-1.675h-7.85Zm3.75-14.725h3.8c1.8,0,2.85.95,2.85,2.625,0,1.625-1,2.675-2.9,2.675h-3.75ZM-3.437,0H-.162V-.125c-.3-.225-.45-.8-.45-1.775V-8.425c0-3-1.55-4.725-5.4-4.725-3.75,0-5.425,1.975-5.525,4.225h3.025c.1-1.225.875-1.8,2.475-1.8,1.425,0,2.15.6,2.15,1.525,0,.975-.975,1.15-3.1,1.45-2.85.4-5.15,1.3-5.15,4.125,0,2.55,1.85,3.925,4.475,3.925,2.2,0,3.125-.75,3.775-1.725h.05A3.478,3.478,0,0,0-3.437,0Zm-3.4-2.075c-1.2,0-2-.425-2-1.625s.875-1.6,2.65-2a9.48,9.48,0,0,0,2.375-.75v1.925C-3.812-3.275-4.887-2.075-6.837-2.075ZM7.188,4.375a6.711,6.711,0,0,0,4.625-1.45,4.977,4.977,0,0,0,1.525-3.9v-11.85H10.063v1.35h-.05a4.134,4.134,0,0,0-3.55-1.7c-3.25,0-5.55,2.45-5.55,6.275A5.764,5.764,0,0,0,6.563-.775a4.145,4.145,0,0,0,3.35-1.5h.075v1.4c0,1.75-.925,2.675-2.85,2.675-1.575,0-2.3-.625-2.575-1.425H1.188C1.538,2.875,3.688,4.375,7.188,4.375ZM7.138-3.5c-1.75,0-2.9-1.275-2.9-3.45,0-2.15,1.15-3.5,2.875-3.5,2.05,0,3.05,1.6,3.05,3.475C10.163-5.075,9.288-3.5,7.138-3.5ZM21.563.375c3.3,0,5.325-1.925,5.8-4.2h-3.35A2.394,2.394,0,0,1,21.538-2.25c-1.925,0-3.025-1.225-3.275-3.2h9.3c0-4.575-2.2-7.725-6.325-7.725-3.75,0-6.325,2.95-6.325,6.75C14.913-2.6,17.313.375,21.563.375ZM21.288-10.55A2.7,2.7,0,0,1,24.013-7.8h-5.7C18.612-9.475,19.487-10.55,21.288-10.55Z" transform="translate(10077 -9876)" fill="#fff"/>
    <path id="Path_5520" data-name="Path 5520" d="M-54.925.3C-50.35.3-48-1.925-48-5.75V-17.875h-3.625V-5.8c0,1.85-1.075,3.2-3.375,3.2-2.425,0-3.35-1.3-3.35-3.15V-17.875h-3.625V-5.75C-61.975-1.875-59.55.3-54.925.3Zm14.45.075c3.2,0,5.4-1.55,5.4-4.125,0-3-2.375-3.6-4.525-4.05-1.825-.375-3.525-.475-3.525-1.575,0-.925.875-1.425,2.2-1.425,1.45,0,2.325.5,2.475,1.875h3.075c-.25-2.575-2.125-4.25-5.5-4.25-2.925,0-5.225,1.325-5.225,4.1,0,2.8,2.25,3.425,4.55,3.875,1.75.35,3.375.475,3.375,1.7,0,.9-.85,1.475-2.35,1.475-1.525,0-2.575-.65-2.8-2.125h-3.15C-46.275-1.425-44.2.375-40.475.375Zm13.075,0c3.3,0,5.325-1.925,5.8-4.2h-3.35A2.394,2.394,0,0,1-27.425-2.25c-1.925,0-3.025-1.225-3.275-3.2h9.3c0-4.575-2.2-7.725-6.325-7.725-3.75,0-6.325,2.95-6.325,6.75C-34.05-2.6-31.65.375-27.4.375Zm-.275-10.925A2.7,2.7,0,0,1-24.95-7.8h-5.7C-30.35-9.475-29.475-10.55-27.675-10.55Zm11.125-2.275h-3.275V0h3.4V-6.25c0-2.7,1.6-3.875,3.825-3.65h.075v-2.975a2.22,2.22,0,0,0-.8-.1c-1.5,0-2.375.75-3.15,2.2h-.075ZM-7.875,0H-4.2l1.175-3.8h6.45L4.625,0H8.4L2.1-17.875H-1.65Zm7.3-11.725c.3-.95.75-2.75.75-2.75h.05s.425,1.8.725,2.75l1.6,5.15H-2.175ZM15.075.375c3.425,0,5.55-2.175,5.775-4.9H17.575A2.394,2.394,0,0,1,15-2.35c-2.075,0-3.05-1.625-3.05-4.05,0-2.475,1.05-4.05,3.1-4.05A2.35,2.35,0,0,1,17.4-8.475h3.325c-.45-2.775-2.5-4.7-5.825-4.7-3.9,0-6.4,2.95-6.4,6.775S11.025.375,15.075.375Zm6.5-10.95H23.35V-3.05c0,2.425,1.825,3.075,3.475,3.075,1.35,0,2.125-.05,2.125-.05v-2.5s-.575.025-1,.025a1.125,1.125,0,0,1-1.275-1.275v-6.8h2.2v-2.25h-2.2v-4H23.35v4H21.575ZM30.625,0h3.4V-12.825h-3.4Zm0-14.825h3.4v-3.05h-3.4ZM42.3.375A6.521,6.521,0,0,0,49-6.4a6.521,6.521,0,0,0-6.7-6.775A6.521,6.521,0,0,0,35.6-6.4,6.521,6.521,0,0,0,42.3.375Zm0-2.6c-2.1,0-3.25-1.675-3.25-4.175s1.15-4.2,3.25-4.2c2.075,0,3.25,1.7,3.25,4.2S44.375-2.225,42.3-2.225Zm11.6-10.6H50.575V0h3.4V-7.275a2.68,2.68,0,0,1,2.6-2.95A2.134,2.134,0,0,1,58.8-7.875V0h3.4V-8.375c0-2.8-1.775-4.8-4.425-4.8a4.167,4.167,0,0,0-3.8,2.1H53.9Z" transform="translate(10077 -9780)" fill="#3b4255"/>
    <path id="Path_5521" data-name="Path 5521" d="M-85.662,0h3.575V-9.225c0-1.25-.1-3.125-.1-3.125h.05s.7,1.525,1.275,2.475L-74.762,0h3.5V-17.875h-3.575V-8.5c0,1.25.1,3.1.1,3.1h-.05s-.675-1.525-1.25-2.5l-5.95-9.975h-3.675Zm24.95,0h3.275V-.125c-.3-.225-.45-.8-.45-1.775V-8.425c0-3-1.55-4.725-5.4-4.725-3.75,0-5.425,1.975-5.525,4.225h3.025c.1-1.225.875-1.8,2.475-1.8,1.425,0,2.15.6,2.15,1.525,0,.975-.975,1.15-3.1,1.45-2.85.4-5.15,1.3-5.15,4.125,0,2.55,1.85,3.925,4.475,3.925,2.2,0,3.125-.75,3.775-1.725h.05A3.478,3.478,0,0,0-60.712,0Zm-3.4-2.075c-1.2,0-2-.425-2-1.625s.875-1.6,2.65-2a9.48,9.48,0,0,0,2.375-.75v1.925C-61.087-3.275-62.162-2.075-64.112-2.075ZM-52.462,0h3.25l4.475-12.825h-3.4l-2.1,6.65c-.375,1.225-.55,2.05-.55,2.05h-.05s-.2-.825-.575-2.05l-2.05-6.65h-3.45Zm8.875,0h3.4V-12.825h-3.4Zm0-14.825h3.4v-3.05h-3.4Zm11.25,19.2a6.711,6.711,0,0,0,4.625-1.45,4.977,4.977,0,0,0,1.525-3.9v-11.85h-3.275v1.35h-.05a4.134,4.134,0,0,0-3.55-1.7c-3.25,0-5.55,2.45-5.55,6.275a5.764,5.764,0,0,0,5.65,6.125,4.145,4.145,0,0,0,3.35-1.5h.075v1.4c0,1.75-.925,2.675-2.85,2.675-1.575,0-2.3-.625-2.575-1.425h-3.375C-37.987,2.875-35.837,4.375-32.337,4.375Zm-.05-7.875c-1.75,0-2.9-1.275-2.9-3.45,0-2.15,1.15-3.5,2.875-3.5,2.05,0,3.05,1.6,3.05,3.475C-29.362-5.075-30.237-3.5-32.387-3.5ZM-15.912,0h3.275V-.125c-.3-.225-.45-.8-.45-1.775V-8.425c0-3-1.55-4.725-5.4-4.725-3.75,0-5.425,1.975-5.525,4.225h3.025c.1-1.225.875-1.8,2.475-1.8,1.425,0,2.15.6,2.15,1.525,0,.975-.975,1.15-3.1,1.45-2.85.4-5.15,1.3-5.15,4.125,0,2.55,1.85,3.925,4.475,3.925,2.2,0,3.125-.75,3.775-1.725h.05A3.478,3.478,0,0,0-15.912,0Zm-3.4-2.075c-1.2,0-2-.425-2-1.625s.875-1.6,2.65-2a9.48,9.48,0,0,0,2.375-.75v1.925C-16.287-3.275-17.362-2.075-19.312-2.075Zm7.375-8.5h1.775V-3.05c0,2.425,1.825,3.075,3.475,3.075,1.35,0,2.125-.05,2.125-.05v-2.5s-.575.025-1,.025A1.125,1.125,0,0,1-6.837-3.775v-6.8h2.2v-2.25h-2.2v-4h-3.325v4h-1.775ZM-2.887,0h3.4V-12.825h-3.4Zm0-14.825h3.4v-3.05h-3.4ZM8.788.375a6.521,6.521,0,0,0,6.7-6.775,6.521,6.521,0,0,0-6.7-6.775A6.521,6.521,0,0,0,2.088-6.4,6.521,6.521,0,0,0,8.788.375Zm0-2.6c-2.1,0-3.25-1.675-3.25-4.175s1.15-4.2,3.25-4.2c2.075,0,3.25,1.7,3.25,4.2S10.863-2.225,8.788-2.225Zm11.6-10.6H17.063V0h3.4V-7.275a2.68,2.68,0,0,1,2.6-2.95,2.134,2.134,0,0,1,2.225,2.35V0h3.4V-8.375c0-2.8-1.775-4.8-4.425-4.8a4.167,4.167,0,0,0-3.8,2.1h-.075ZM35.263,0h3.625V-7.4h7.775v-3.1H38.888v-4.3h9.175v-3.075h-12.8ZM49.887,0h3.4V-17.875h-3.4ZM61.613.375a6.521,6.521,0,0,0,6.7-6.775,6.521,6.521,0,0,0-6.7-6.775,6.521,6.521,0,0,0-6.7,6.775A6.521,6.521,0,0,0,61.613.375Zm0-2.6c-2.1,0-3.25-1.675-3.25-4.175s1.15-4.2,3.25-4.2c2.075,0,3.25,1.7,3.25,4.2S63.688-2.225,61.613-2.225ZM72.262,0h3.075l1.75-6.3c.275-1.025.6-2.225.6-2.225h.05s.3,1.2.575,2.225l1.7,6.3h3.1l3.825-12.825h-3.3l-1.625,5.95c-.275,1.05-.575,2.4-.575,2.4h-.05s-.325-1.35-.6-2.425l-1.675-5.925h-2.9L74.612-6.9c-.275,1.05-.55,2.425-.55,2.425h-.05s-.3-1.35-.575-2.4l-1.55-5.95H68.512Z" transform="translate(10077 -9657)" fill="#3b4255"/>
    <path id="Path_5522" data-name="Path 5522" d="M1.531,0H17.094V-4.687H7.063V-22.344H1.531Zm25,.469a8.46,8.46,0,0,0,5-1.469,6.511,6.511,0,0,0,2.688-3.781H29.25a2.657,2.657,0,0,1-2.656,1.594c-2.094,0-3.281-1.344-3.594-3.5H34.5c.031-3.25-.906-6.031-2.812-7.781a7.868,7.868,0,0,0-5.469-2C21.344-16.469,18-12.812,18-8.031A8.093,8.093,0,0,0,26.531.469Zm-3.5-10.187c.344-1.906,1.344-3.125,3.281-3.125,1.656,0,2.844,1.219,3.031,3.125ZM43.656,5.531A8.743,8.743,0,0,0,49.531,3.75a6.86,6.86,0,0,0,2.125-5.312V-16H46.781v1.719h-.062a5.132,5.132,0,0,0-4.5-2.187c-3.969,0-6.719,3.313-6.719,8,0,4.906,3.344,7.594,6.938,7.594a5.1,5.1,0,0,0,4.094-1.844h.125v1.594c0,1.938-.906,3.063-3.062,3.063-1.687,0-2.531-.719-2.812-1.562H35.844C36.344,3.719,39.25,5.531,43.656,5.531ZM43.625-4.656c-1.906,0-3.156-1.562-3.156-3.969,0-2.437,1.25-4,3.156-4,2.125,0,3.25,1.813,3.25,3.969C46.875-6.406,45.844-4.656,43.625-4.656ZM61.906.469a8.46,8.46,0,0,0,5-1.469,6.511,6.511,0,0,0,2.688-3.781H64.625a2.657,2.657,0,0,1-2.656,1.594c-2.094,0-3.281-1.344-3.594-3.5h11.5c.031-3.25-.906-6.031-2.812-7.781a7.868,7.868,0,0,0-5.469-2c-4.875,0-8.219,3.656-8.219,8.438A8.093,8.093,0,0,0,61.906.469Zm-3.5-10.187c.344-1.906,1.344-3.125,3.281-3.125,1.656,0,2.844,1.219,3.031,3.125ZM71.594,0h5.094V-8.844c0-1.969,1.125-3.375,2.813-3.375,1.656,0,2.5,1.156,2.5,2.844V0h5.094V-10.406c0-3.562-2.062-6.062-5.562-6.062a5.608,5.608,0,0,0-4.937,2.656H76.5V-16H71.594ZM95.688.5a5.271,5.271,0,0,0,4.719-2.656h.063V0h4.875V-22.344H100.25v8.156h-.094a4.987,4.987,0,0,0-4.469-2.281c-4.125,0-7,3.469-7,8.469C88.688-2.656,91.594.5,95.688.5ZM97-3.531c-1.969,0-3.156-1.75-3.156-4.531,0-2.687,1.188-4.562,3.219-4.562,2.219,0,3.313,1.938,3.313,4.625C100.375-5.375,99.125-3.531,97-3.531Z" transform="translate(9931 -9979)" fill="#3b4255"/>
    <path id="Path_5523" data-name="Path 5523" d="M-76.175.3C-71.6.3-69.25-1.925-69.25-5.75V-17.875h-3.625V-5.8c0,1.85-1.075,3.2-3.375,3.2-2.425,0-3.35-1.3-3.35-3.15V-17.875h-3.625V-5.75C-83.225-1.875-80.8.3-76.175.3Zm14.45.075c3.2,0,5.4-1.55,5.4-4.125,0-3-2.375-3.6-4.525-4.05-1.825-.375-3.525-.475-3.525-1.575,0-.925.875-1.425,2.2-1.425,1.45,0,2.325.5,2.475,1.875h3.075c-.25-2.575-2.125-4.25-5.5-4.25-2.925,0-5.225,1.325-5.225,4.1,0,2.8,2.25,3.425,4.55,3.875,1.75.35,3.375.475,3.375,1.7,0,.9-.85,1.475-2.35,1.475-1.525,0-2.575-.65-2.8-2.125h-3.15C-67.525-1.425-65.45.375-61.725.375Zm13.075,0c3.3,0,5.325-1.925,5.8-4.2H-46.2A2.394,2.394,0,0,1-48.675-2.25c-1.925,0-3.025-1.225-3.275-3.2h9.3c0-4.575-2.2-7.725-6.325-7.725-3.75,0-6.325,2.95-6.325,6.75C-55.3-2.6-52.9.375-48.65.375Zm-.275-10.925A2.7,2.7,0,0,1-46.2-7.8h-5.7C-51.6-9.475-50.725-10.55-48.925-10.55ZM-37.8-12.825h-3.275V0h3.4V-6.25c0-2.7,1.6-3.875,3.825-3.65h.075v-2.975a2.22,2.22,0,0,0-.8-.1c-1.5,0-2.375.75-3.15,2.2H-37.8ZM-27.8,0h3.625V-17.875H-27.8Zm9.45-12.825h-3.325V0h3.4V-7.275a2.68,2.68,0,0,1,2.6-2.95,2.134,2.134,0,0,1,2.225,2.35V0h3.4V-8.375c0-2.8-1.775-4.8-4.425-4.8a4.167,4.167,0,0,0-3.8,2.1h-.075ZM-7.95,4.2h3.4V-1.45h.05A4.129,4.129,0,0,0-.8.375C2.5.375,4.75-2.25,4.75-6.4c0-4-2.175-6.775-5.575-6.775A4.482,4.482,0,0,0-4.6-11.225h-.075v-1.6H-7.95Zm6.425-6.65c-2.025,0-3.1-1.525-3.1-3.85,0-2.3.85-4.125,2.975-4.125,2.1,0,2.95,1.7,2.95,4.125S.2-2.45-1.525-2.45ZM17.7,0V-12.825H14.3v7.4a2.59,2.59,0,0,1-2.575,2.9C10.275-2.525,9.6-3.35,9.6-4.85v-7.975H6.225v8.55c0,2.8,1.6,4.625,4.45,4.625A4.115,4.115,0,0,0,14.35-1.5h.075V0Zm1.45-10.575h1.775V-3.05C20.925-.625,22.75.025,24.4.025c1.35,0,2.125-.05,2.125-.05v-2.5s-.575.025-1,.025A1.125,1.125,0,0,1,24.25-3.775v-6.8h2.2v-2.25h-2.2v-4H20.925v4H19.15ZM32.675,0H36.3V-7.4h7.775v-3.1H36.3v-4.3h9.175v-3.075h-12.8ZM47.3,0h3.4V-17.875H47.3ZM59.025.375a6.521,6.521,0,0,0,6.7-6.775,6.521,6.521,0,0,0-6.7-6.775,6.521,6.521,0,0,0-6.7,6.775A6.521,6.521,0,0,0,59.025.375Zm0-2.6c-2.1,0-3.25-1.675-3.25-4.175s1.15-4.2,3.25-4.2c2.075,0,3.25,1.7,3.25,4.2S61.1-2.225,59.025-2.225ZM69.675,0H72.75L74.5-6.3c.275-1.025.6-2.225.6-2.225h.05s.3,1.2.575,2.225l1.7,6.3h3.1L84.35-12.825h-3.3l-1.625,5.95c-.275,1.05-.575,2.4-.575,2.4H78.8s-.325-1.35-.6-2.425l-1.675-5.925h-2.9L72.025-6.9c-.275,1.05-.55,2.425-.55,2.425h-.05s-.3-1.35-.575-2.4l-1.55-5.95H65.925Z" transform="translate(10077 -9557)" fill="#3b4255"/>
    <g id="Path_5524" data-name="Path 5524" transform="translate(9931 -9952)" fill="none">
      <path d="M0,0H292V432H0Z" stroke="none"/>
      <path d="M 4 4 L 4 428 L 288 428 L 288 4 L 4 4 M 0 0 L 292 0 L 292 432 L 0 432 L 0 0 Z" stroke="none" fill="#3b4255"/>
    </g>
    <path id="Path_5467" data-name="Path 5467" d="M7972-5629h252" transform="translate(1979 -4071)" fill="none" stroke="#3b4255" stroke-width="2"/>
    <path id="Path_5468" data-name="Path 5468" d="M7972-5629h252" transform="translate(1979 -3971)" fill="none" stroke="#f08f4b" stroke-width="2"/>
  </g>
</svg>
