<svg xmlns="http://www.w3.org/2000/svg" width="79.424" height="76.105" viewBox="0 0 79.424 76.105">
  <g id="Solution02" transform="translate(-908.669 -3101.938)">
    <path id="path474" d="M298.622-727.161a21.9,21.9,0,0,0-5.06.589,23.31,23.31,0,0,0-11.447,6.805l-.115.124q-.169.182-.328.359c-.1.11-.2.22-.288.327l-.612.709.576.739q.165.212.342.429t.35.419a22.606,22.606,0,0,0,9.629,6.779,21.976,21.976,0,0,0,6.06,1.238c.468.029.945.044,1.418.044h0a24.459,24.459,0,0,0,6.4-.869,28.08,28.08,0,0,0,11.445-6.366c.094-.085.187-.173.28-.259.194-.182.352-.332.5-.474l.764-.75-.7-.811-.018-.02c-.2-.218-.4-.433-.6-.643v0l-.131-.135a27.939,27.939,0,0,0-9.684-6.52,23.869,23.869,0,0,0-8.78-1.71ZM292.784-713a19.094,19.094,0,0,1-7.631-5.139,19.885,19.885,0,0,1,8.533-5.046,7.388,7.388,0,0,0-1.9,4.508,7.366,7.366,0,0,0,1.844,5.368,7.5,7.5,0,0,0,.855.824Q293.621-712.7,292.784-713Zm11.067.54a7.406,7.406,0,0,0,2.737-5.3,7.384,7.384,0,0,0-1.559-5.016,24.1,24.1,0,0,1,8.805,5.3,24.159,24.159,0,0,1-9.984,5.02h0" transform="translate(636.267 3847.068)" fill="#555"/>
    <path id="path476" d="M645.921-475.4l-15.658-10.335a4.317,4.317,0,0,0-5.537.661l-4.819,5.174a4.317,4.317,0,0,0-.368,5.433l9.7,13.739a6.009,6.009,0,0,0,9.305.629l8.155-8.755a4.317,4.317,0,0,0-.781-6.546h0" transform="translate(340.232 3636.228)" fill="#555"/>
    <path id="path478" d="M266.073-832.416l-.1-.09a3.825,3.825,0,0,0-.756-.548,27.261,27.261,0,0,0-6.065-31.595,27.25,27.25,0,0,0-38.513,1.367,27.25,27.25,0,0,0,1.367,38.513,27.261,27.261,0,0,0,31.946,3.81,3.8,3.8,0,0,0,.6.715l.1.09a3.806,3.806,0,0,0,5.379-.191l6.233-6.692A3.806,3.806,0,0,0,266.073-832.416Zm-25.491,8.924a21.218,21.218,0,0,1-21.218-21.218,21.218,21.218,0,0,1,21.218-21.218A21.218,21.218,0,0,1,261.8-844.71a21.217,21.217,0,0,1-21.217,21.218h0" transform="translate(695.336 3973.897)" fill="#555"/>
  </g>
</svg>
