<svg xmlns="http://www.w3.org/2000/svg" width="43.634" height="76.001" viewBox="0 0 43.634 76.001">
  <g id="Solution03" transform="translate(-933.957 -3355.504)">
    <path id="path14" d="M166.146-208.769h0a2.01,2.01,0,0,0,1.976-2.385,31.938,31.938,0,0,0-6.022-13.358,17.821,17.821,0,0,1-3.633-11.946,17.8,17.8,0,0,1,16.5-16.629,17.679,17.679,0,0,1,14.1,5.419,17.769,17.769,0,0,1,4.959,11.793,17.628,17.628,0,0,1-3.845,11.6,29.685,29.685,0,0,0-5.874,13.136,2.012,2.012,0,0,0,1.979,2.37h0a2.017,2.017,0,0,0,1.977-1.669,25.653,25.653,0,0,1,5.064-11.336,21.551,21.551,0,0,0,4.714-12.8,21.911,21.911,0,0,0-6.7-16.495,21.647,21.647,0,0,0-16.653-6.024A21.832,21.832,0,0,0,154.453-236.7a21.844,21.844,0,0,0,4.457,14.639,27.891,27.891,0,0,1,5.262,11.646,2.018,2.018,0,0,0,1.974,1.65" transform="translate(779.545 3612.654)" fill="#555"/>
    <path id="path16" d="M196.321-147.418H176.668a2.569,2.569,0,0,1-2.568-2.569h0a2.569,2.569,0,0,1,2.568-2.568h19.653a2.569,2.569,0,0,1,2.568,2.568h0a2.569,2.569,0,0,1-2.568,2.569" transform="translate(769.279 3558.116)" fill="#555"/>
    <path id="path18" d="M196.321-132.952H176.668a2.568,2.568,0,0,1-2.568-2.568h0a2.568,2.568,0,0,1,2.568-2.568h19.653a2.568,2.568,0,0,1,2.568,2.568h0a2.568,2.568,0,0,1-2.568,2.568" transform="translate(769.279 3550.572)" fill="#555"/>
    <path id="path20" d="M196.321-118.486H176.668a2.568,2.568,0,0,1-2.568-2.568h0a2.569,2.569,0,0,1,2.568-2.569h19.653a2.569,2.569,0,0,1,2.568,2.569h0a2.568,2.568,0,0,1-2.568,2.568" transform="translate(769.279 3543.03)" fill="#555"/>
    <path id="path22" d="M196.365-103.942H186.152a.9.9,0,0,1-.823-.539l-1.453-3.342a.9.9,0,0,1,.824-1.256h13.117a.9.9,0,0,1,.824,1.256l-1.453,3.342a.9.9,0,0,1-.823.539" transform="translate(764.221 3535.446)" fill="#555"/>
  </g>
</svg>
