<svg xmlns="http://www.w3.org/2000/svg" xmlns:xlink="http://www.w3.org/1999/xlink" width="447.288" height="455.922" viewBox="0 0 447.288 455.922">
  <defs>
    <clipPath id="clip-path">
      <rect id="Rectangle_3602" data-name="Rectangle 3602" width="447.288" height="455.922" fill="none"/>
    </clipPath>
  </defs>
  <g id="Construction" clip-path="url(#clip-path)">
    <path id="Path_4897" data-name="Path 4897" d="M336.919,329.223,185.495,241.59c-6.993-4.047-19.463,4.424-27.853,18.92s-9.522,29.53-2.528,33.577L300.9,378.458l-8.8,6.294a4.093,4.093,0,0,1-2.875.733L160.959,369.857a15.945,15.945,0,0,0-9.893,2.015l-9.29,5.357c-.145-.261-.286-.519-.441-.787-8.059-13.975-15.59-10.271-15.59-10.271l-2.994,8.71-110.41,63.67s-13.73-1.18-8.034,8.7,23.847,8.621,23.847,8.621.017-.008.04-.022l106.455-60.334,9.071-1.336S147,392,145.022,384.8l11.192-6.454a4.092,4.092,0,0,1,2.539-.517L291.4,393.993a4.094,4.094,0,0,0,2.875-.733l15.194-10.866c4.757.345,13.394-1.588,24.148-9.348,15.62-11.272,23.442-31.923,3.3-43.823" fill="#c4c4c4"/>
    <path id="Path_4898" data-name="Path 4898" d="M307.947,42.418C307.947,18.991,275.5,0,235.472,0S163,18.991,163,42.418s32.448,42.419,72.476,42.419,72.475-18.992,72.475-42.419" fill="#e8e8e8"/>
    <path id="Path_4899" data-name="Path 4899" d="M235.471,82.837c-36.085,0-65.442-15.816-65.442-35.256s29.357-35.256,65.442-35.256,65.443,15.816,65.443,35.256-29.357,35.256-65.443,35.256" fill="#e8e8e8"/>
    <path id="Path_4900" data-name="Path 4900" d="M235.471,14.325c17.35,0,33.6,3.7,45.755,10.413,11.406,6.3,17.688,14.413,17.688,22.843s-6.282,16.541-17.688,22.842c-12.156,6.715-28.405,10.413-45.755,10.413s-33.6-3.7-45.755-10.413c-11.406-6.3-17.688-14.413-17.688-22.842s6.282-16.542,17.688-22.843c12.156-6.715,28.4-10.413,45.755-10.413m0-4c-37.248,0-67.443,16.68-67.443,37.256s30.2,37.255,67.443,37.255,67.443-16.679,67.443-37.255-30.2-37.256-67.443-37.256" fill="#f7f7f7"/>
    <path id="Path_4901" data-name="Path 4901" d="M294.879,49.547c0-16.665-26.6-30.174-59.408-30.174s-59.407,13.509-59.407,30.174,26.6,30.174,59.407,30.174,59.408-13.509,59.408-30.174" fill="#c49a12"/>
    <path id="Path_4902" data-name="Path 4902" d="M235.471,4c18.66,0,36.142,4.218,49.227,11.876,12.413,7.265,19.249,16.691,19.249,26.543S297.111,61.7,284.7,68.961c-13.085,7.658-30.567,11.876-49.227,11.876s-36.142-4.218-49.227-11.876C173.831,61.7,167,52.27,167,42.419s6.835-19.278,19.248-26.543C199.329,8.218,216.811,4,235.471,4m0-4C195.444,0,163,18.991,163,42.419s32.448,42.418,72.475,42.418,72.476-18.991,72.476-42.418S275.5,0,235.471,0" fill="#fff"/>
    <path id="Path_4903" data-name="Path 4903" d="M294.78,51.244c-1.688-15.9-26.467-28.523-56.8-28.523-31.422,0-56.9,13.545-56.9,30.254,0,5.579,2.853,10.8,7.806,15.289,10.881,6.976,27.694,11.457,46.578,11.457,31.687,0,57.574-12.6,59.308-28.477" fill="#eab200"/>
    <path id="Path_4904" data-name="Path 4904" d="M349.044,167.434c0-25.054-38.191-45.364-85.3-45.364s-85.3,20.31-85.3,45.364,38.191,45.364,85.3,45.364,85.3-20.31,85.3-45.364" fill="#c4c4c4"/>
    <path id="Path_4905" data-name="Path 4905" d="M222.637,224.4l65.535-82.855L70.15,88.458,3.9,169.874l.72,1.44" fill="#c4c4c4"/>
    <path id="Path_4906" data-name="Path 4906" d="M287.452,140.109,69.43,87.019,3.9,169.874l218.022,53.09Z" fill="#fcfcfc"/>
    <path id="Path_4907" data-name="Path 4907" d="M307.913,43.216c-.731,23.057-32.871,41.621-72.442,41.621-40.026,0-72.476-18.991-72.476-42.418V167.306h.056c1.141,22.842,33.116,41.158,72.42,41.158s71.28-18.316,72.421-41.158h.021v-.465c.008-.265.034-.528.034-.795s-.026-.529-.034-.8Z" fill="#e0e0e0"/>
    <path id="Path_4908" data-name="Path 4908" d="M235.471,84.837a119.2,119.2,0,0,1-25.116-2.619v57.015a6.279,6.279,0,0,0,12.558,0v-7.512a6.279,6.279,0,0,1,12.558,0v19.4a6.279,6.279,0,1,0,12.558,0v-30.14a6.279,6.279,0,0,1,6.279-6.279,6.279,6.279,0,0,0,6.279-6.279V82.213a119.045,119.045,0,0,1-25.116,2.624" fill="#eab200"/>
    <path id="Path_4909" data-name="Path 4909" d="M447.288,265.2c0-16.006-24.362-28.981-54.415-28.981s-54.414,12.975-54.414,28.981,24.362,28.981,54.414,28.981S447.288,281.2,447.288,265.2" fill="#c4c4c4"/>
    <path id="Path_4910" data-name="Path 4910" d="M419.518,243.034c-8.58-4.253-19.656-6.82-31.757-6.82s-23.178,2.567-31.758,6.82H338.459V265.2c0,16.006,22.073,28.982,49.3,28.982s49.3-12.976,49.3-28.982V243.034Z" fill="#ddd"/>
    <path id="Path_4911" data-name="Path 4911" d="M437.062,243.034c0-16.006-22.073-28.981-49.3-28.981s-49.3,12.975-49.3,28.981,22.073,28.981,49.3,28.981,49.3-12.975,49.3-28.981" fill="#f0f2ed"/>
    <path id="Path_4912" data-name="Path 4912" d="M416.742,243.09c0-9.409-12.975-17.036-28.981-17.036s-28.982,7.627-28.982,17.036,12.976,17.036,28.982,17.036,28.981-7.627,28.981-17.036" fill="#ccc"/>
    <path id="Path_4913" data-name="Path 4913" d="M416.1,243.849c0-8.8-12.686-15.93-28.334-15.93s-28.334,7.132-28.334,15.93,12.685,15.93,28.334,15.93,28.334-7.132,28.334-15.93" fill="#dbdbdb"/>
    <path id="Path_4914" data-name="Path 4914" d="M408.835,246.083c0-6.884-9.435-12.465-21.074-12.465s-21.074,5.581-21.074,12.465,9.435,12.465,21.074,12.465,21.074-5.581,21.074-12.465" fill="#a8a8a8"/>
    <path id="Path_4915" data-name="Path 4915" d="M399.15,274.286a31.719,31.719,0,0,0-11.389-2.268V294.15a34.5,34.5,0,0,1,9.959,2.53,40.1,40.1,0,0,1,9.96,5.968V280.517a23.21,23.21,0,0,0-8.53-6.231" fill="#eaeaea"/>
    <path id="Path_4916" data-name="Path 4916" d="M286.009,246.039l-44,25.376c-3.682,2.123-10.141,1.871-14.428-.563s-10.746-2.685-14.427-.563L196.6,279.83c-3.681,2.123-10.141,1.871-14.427-.562s-4.778-6.127-1.1-8.25l16.544-9.541c3.682-2.123,3.191-5.817-1.1-8.25s-10.746-2.687-14.427-.564l-71.524,41.245c-3.681,2.123-3.191,5.817,1.1,8.252s4.777,6.126,1.1,8.25l-26.59,15.332c-3.681,2.123-3.191,5.817,1.1,8.251s10.746,2.685,14.427.563l49.8-28.717c3.681-2.123,10.14-1.871,14.427.563s4.777,6.127,1.1,8.25l-12.482,7.2c-3.681,2.123-3.191,5.817,1.1,8.25s10.746,2.686,14.428.563l131.464-75.811c3.682-2.123,3.191-5.817-1.1-8.25s-10.746-2.685-14.427-.563" fill="#eab200"/>
    <rect id="Rectangle_3601" data-name="Rectangle 3601" width="60.655" height="174.954" transform="matrix(0.501, -0.866, 0.866, 0.501, 145.754, 286.887)" fill="#ededed"/>
    <path id="Path_4917" data-name="Path 4917" d="M173.607,267.967c8.39-14.5,9.522-29.529,2.528-33.577s-19.464,4.424-27.853,18.921-9.522,29.529-2.528,33.576,19.463-4.423,27.853-18.92" fill="#ededed"/>
    <path id="Path_4918" data-name="Path 4918" d="M327.758,357.178c8.389-14.5,8.3-30.236-.2-35.155s-22.191,2.846-30.58,17.343-8.3,30.236.2,35.154,22.19-2.845,30.581-17.342" fill="#afafaf"/>
    <path id="Path_4919" data-name="Path 4919" d="M322.6,354.191c5.272-9.109,4.966-19.144-.683-22.413s-14.5,1.465-19.774,10.574-4.966,19.144.683,22.413,14.5-1.465,19.774-10.574" fill="#494949"/>
    <path id="Path_4920" data-name="Path 4920" d="M317.766,351.4c3.072-5.307,3.145-11.008.164-12.734s-7.888,1.179-10.96,6.486-3.144,11.009-.163,12.734,7.887-1.179,10.959-6.486" fill="#181818"/>
    <path id="Path_4921" data-name="Path 4921" d="M307.508,341.123l-4.1,7.082,5.552,3.214a1.956,1.956,0,0,1,.159,3.284l-24.139,17.262a4.091,4.091,0,0,1-2.874.734L153.839,357.071a15.939,15.939,0,0,0-9.893,2.014L31.416,423.977a4.091,4.091,0,1,0,4.087,7.089l113.592-65.5a4.09,4.09,0,0,1,2.538-.517l132.644,16.161a4.089,4.089,0,0,0,2.875-.733l29.681-21.226a7.8,7.8,0,0,0-.631-13.092Z" fill="#494949"/>
    <path id="Path_4922" data-name="Path 4922" d="M138.343,367.04c-8.059-13.975-17.518-12.507-17.518-12.507l-7.434,13.149L2.981,431.351s-6.291,4.212-.594,14.09,12.492,6.543,12.492,6.543l110.41-63.67,15.1.153s6.009-7.452-2.05-21.427" fill="#eab200"/>
    <path id="Path_4923" data-name="Path 4923" d="M14.878,451.983s-6.8,3.335-12.492-6.543.594-14.089.594-14.089,6.8-3.335,12.492,6.543-.594,14.089-.594,14.089" fill="#ffbc00"/>
  </g>
</svg>
