<svg xmlns="http://www.w3.org/2000/svg" width="60.593" height="46.637" viewBox="0 0 60.593 46.637">
  <g id="Journey02" transform="translate(913.198 579.253)">
    <rect id="Rectangle_2251" data-name="Rectangle 2251" width="2.606" height="21.889" transform="translate(-870.986 -558.983) rotate(-45)" fill="#fff" stroke="#c4c4c4" stroke-linecap="round" stroke-linejoin="round" stroke-width="1.5"/>
    <path id="Path_2029" data-name="Path 2029" d="M-891.576-557.177c0,3.59-1.73,9.781-6.5,9.781s-6.5-6.191-6.5-9.781a6.5,6.5,0,0,1,6.5-6.5A6.5,6.5,0,0,1-891.576-557.177Z" transform="translate(-1.528 -2.878)" fill="#fff" stroke="#c4c4c4" stroke-linecap="round" stroke-linejoin="round" stroke-width="1.5"/>
    <path id="Path_2030" data-name="Path 2030" d="M-886.762-525.8c0-7.586-4.486-13.736-12.844-13.736s-12.843,6.149-12.843,13.736Z" transform="translate(0 -7.565)" fill="#fff" stroke="#c4c4c4" stroke-linecap="round" stroke-linejoin="round" stroke-width="1.5"/>
    <path id="Path_2031" data-name="Path 2031" d="M-867.573-557.177c0,3.59-1.729,9.781-6.5,9.781s-6.5-6.191-6.5-9.781a6.5,6.5,0,0,1,6.5-6.5A6.5,6.5,0,0,1-867.573-557.177Z" transform="translate(-6.189 -2.878)" fill="#fff" stroke="#c4c4c4" stroke-linecap="round" stroke-linejoin="round" stroke-width="1.5"/>
    <path id="Path_2032" data-name="Path 2032" d="M-862.759-525.8c0-7.586-4.485-13.736-12.843-13.736s-12.843,6.149-12.843,13.736Z" transform="translate(-4.661 -7.565)" fill="#fff" stroke="#c4c4c4" stroke-linecap="round" stroke-linejoin="round" stroke-width="1.5"/>
    <path id="Path_2033" data-name="Path 2033" d="M-879.552-575.122a11.539,11.539,0,0,0,0,16.32,11.539,11.539,0,0,0,16.32,0,11.539,11.539,0,0,0,0-16.32A11.539,11.539,0,0,0-879.552-575.122Zm14.146,14.146a8.464,8.464,0,0,1-11.971,0,8.464,8.464,0,0,1,0-11.972,8.464,8.464,0,0,1,11.971,0A8.464,8.464,0,0,1-865.407-560.977Z" transform="translate(-5.731 0)" fill="#fff" stroke="#c4c4c4" stroke-linecap="round" stroke-linejoin="round" stroke-width="1.5"/>
  </g>
</svg>
