<svg xmlns="http://www.w3.org/2000/svg" width="50.377" height="48.553" viewBox="0 0 50.377 48.553">
  <g id="Journey04" transform="translate(747.496 578.715)">
    <path id="Path_2036" data-name="Path 2036" d="M-730.2-587.965c-9.139,0-16.547,4.91-16.547,10.968a8.193,8.193,0,0,0,1.97,5.192l-.348,9.021,8.088-4.223-.01-.006a23.749,23.749,0,0,0,6.847.984c9.139,0,16.547-4.91,16.547-10.968S-721.06-587.965-730.2-587.965Z" transform="translate(0 10)" fill="#fff" stroke="#c4c4c4" stroke-linecap="round" stroke-linejoin="round" stroke-width="1.5"/>
    <path id="Path_2037" data-name="Path 2037" d="M-706.477-545.351c8.776,0,15.891,4.716,15.891,10.533a7.873,7.873,0,0,1-1.891,4.986l.334,8.663-7.767-4.055.01-.006a22.817,22.817,0,0,1-6.576.945c-8.776,0-15.891-4.715-15.891-10.532S-715.254-545.351-706.477-545.351Z" transform="translate(-7.283 -9.743)" fill="#fff" stroke="#c4c4c4" stroke-linecap="round" stroke-linejoin="round" stroke-width="1.5"/>
  </g>
</svg>
