<svg xmlns="http://www.w3.org/2000/svg" width="58.029" height="36.56" viewBox="0 0 58.029 36.56">
  <g id="Journey06" transform="translate(662.964 571.497)">
    <path id="Path_2038" data-name="Path 2038" d="M-636.025-532.094" transform="translate(-5.497 -8.113)" fill="#fff" stroke="#c4c4c4" stroke-linecap="round" stroke-linejoin="round" stroke-width="1.5"/>
    <path id="Path_2039" data-name="Path 2039" d="M-627.28-544.572" transform="translate(-7.333 -5.494)" fill="#fff" stroke="#c4c4c4" stroke-linecap="round" stroke-linejoin="round" stroke-width="1.5"/>
    <path id="Path_2040" data-name="Path 2040" d="M-630.553-538.888" transform="translate(-6.646 -6.687)" fill="#fff" stroke="#c4c4c4" stroke-linecap="round" stroke-linejoin="round" stroke-width="1.5"/>
    <path id="Path_2041" data-name="Path 2041" d="M-616.986-531.073" transform="translate(-9.493 -8.328)" fill="#fff" stroke="#c4c4c4" stroke-linecap="round" stroke-linejoin="round" stroke-width="1.5"/>
    <path id="Path_2042" data-name="Path 2042" d="M-621.7-538.413" transform="translate(-8.504 -6.787)" fill="#fff" stroke="#c4c4c4" stroke-linecap="round" stroke-linejoin="round" stroke-width="1.5"/>
    <path id="Path_2043" data-name="Path 2043" d="M-615.872-566.475l5.915-2.381,6.7,15.482-6,2.665a17.5,17.5,0,0,1-1.432,1.642l-18.982,10.029-20.979-11.431,20.7-10.5" transform="translate(-2.428 -0.397)" fill="#fff" stroke="#c4c4c4" stroke-linecap="round" stroke-linejoin="round" stroke-width="1.5"/>
    <path id="Path_2044" data-name="Path 2044" d="M-629.675-542.651l1.359.607a2.713,2.713,0,0,1,.95,4.085,2.681,2.681,0,0,1-3.191.747l-2.329-.994-5.552-2.423L-646.211-544l-2.283-.99a18.7,18.7,0,0,1-7.321-5.674l-6.4-2.8c.047-.119.08-.207.08-.207L-657.3-568.5l4.9,1.74a4.225,4.225,0,0,0,3.617-.378l1.1-.974a7.066,7.066,0,0,1,3.565-1.689l1.1-.176s2.755,1.871,2.839,1.945,6.742,1.289,6.742,1.289l-.152,3.209a2.079,2.079,0,0,0,1,2.452l2.192,1.236,17.565,7.617a2.592,2.592,0,0,1,1.178,3.734c-.706,1.163-2.571,1.411-3.819.87l-4.36-1.823" transform="translate(0 -0.161)" fill="#fff" stroke="#c4c4c4" stroke-linecap="round" stroke-linejoin="round" stroke-width="1.5"/>
    <path id="Path_2045" data-name="Path 2045" d="M-613.515-566.711l-3.123-1.568a20.788,20.788,0,0,0-8.935-2.384l-2.277-.083-9.386.333a2.754,2.754,0,0,0-2.649,2.95,2.8,2.8,0,0,0,2.911,2.552l1.519-.054,3.91-.139a4.162,4.162,0,0,1,3.033,1.162,1.935,1.935,0,0,1,.589,1.663,2.248,2.248,0,0,0,.214.946" transform="translate(-4.685 0)" fill="#fff" stroke="#c4c4c4" stroke-linecap="round" stroke-linejoin="round" stroke-width="1.5"/>
    <path id="Rectangle_2255" data-name="Rectangle 2255" d="M3.345,0h0A3.347,3.347,0,0,1,6.692,3.347V8.3a3.346,3.346,0,0,1-3.346,3.346h0A3.346,3.346,0,0,1,0,8.3V3.345A3.345,3.345,0,0,1,3.345,0Z" transform="matrix(0.489, 0.872, -0.872, 0.489, -642.576, -550.811)" fill="#fff" stroke="#c4c4c4" stroke-linecap="round" stroke-linejoin="round" stroke-width="1.5"/>
    <path id="Path_2046" data-name="Path 2046" d="M-608.348-550.931l7.538,3.363a3.345,3.345,0,0,1,1.8,4.377l-.062.148a3.346,3.346,0,0,1-4.377,1.8l-7.75-3.237" transform="translate(-10.708 -4.159)" fill="#fff" stroke="#c4c4c4" stroke-linecap="round" stroke-linejoin="round" stroke-width="1.5"/>
    <path id="Path_2047" data-name="Path 2047" d="M-613.78-543.111l5.321,2.223a3.346,3.346,0,0,1,1.8,4.377l-.062.149a3.346,3.346,0,0,1-4.377,1.8l-9.633-3.974" transform="translate(-8.707 -5.801)" fill="#fff" stroke="#c4c4c4" stroke-linecap="round" stroke-linejoin="round" stroke-width="1.5"/>
    <path id="Path_2048" data-name="Path 2048" d="M-622.236-537.323l4.735,1.987a3.346,3.346,0,0,1,1.8,4.377l-.062.149a3.346,3.346,0,0,1-4.377,1.8l-7.75-3.237" transform="translate(-7.204 -7.016)" fill="#fff" stroke="#c4c4c4" stroke-linecap="round" stroke-linejoin="round" stroke-width="1.5"/>
    <path id="Path_2049" data-name="Path 2049" d="M-647.215-546.772h0a3.346,3.346,0,0,1-1.28,4.556l-4.324,2.428a3.346,3.346,0,0,1-4.556-1.28h0a3.346,3.346,0,0,1,1.28-4.556l4.324-2.427a3.346,3.346,0,0,1,4.556,1.279" transform="translate(-0.926 -4.674)" fill="#fff" stroke="#c4c4c4" stroke-linecap="round" stroke-linejoin="round" stroke-width="1.5"/>
    <path id="Rectangle_2256" data-name="Rectangle 2256" d="M3.345,0h0A3.347,3.347,0,0,1,6.692,3.347V5.839A3.345,3.345,0,0,1,3.347,9.184h0A3.347,3.347,0,0,1,0,5.837V3.345A3.345,3.345,0,0,1,3.345,0Z" transform="matrix(0.489, 0.872, -0.872, 0.489, -637.052, -546.288)" fill="#fff" stroke="#c4c4c4" stroke-linecap="round" stroke-linejoin="round" stroke-width="1.5"/>
  </g>
</svg>
