<svg xmlns="http://www.w3.org/2000/svg" width="1120.678" height="211.242" viewBox="0 0 1120.678 211.242">
  <path id="Market02" d="M1385.173,411.438c6.543,6.917,9.9,16.256,9.9,28.209v62.566H1370.6V446.746c0-6.917-2.049-12.52-5.977-16.629s-9.339-6.158-16.244-6.158c-8.037.181-14.569,2.8-19.244,8.218s-7.1,12.135-7.1,20.545v49.31H1297.76V363.068h24.281v57.9c6.917-13.075,18.871-19.8,36.055-19.991,11.387.193,20.353,3.555,27.077,10.46Zm-141.206,11.206c-8.025,0-14.569,2.808-19.605,8.218s-7.471,12.7-7.471,21.293c0,8.966,2.615,16.256,7.471,21.667,5.037,5.422,11.58,8.219,19.605,8.219q17.931,0,26.9-11.761L1286,482.788a44.349,44.349,0,0,1-17.75,14.943c-7.278,3.555-15.87,5.23-25.583,5.23-9.906,0-18.5-2.049-26.15-6.351a44.3,44.3,0,0,1-17.75-17.931c-4.29-7.652-6.351-16.436-6.351-26.523a55.836,55.836,0,0,1,6.351-26.7,43.648,43.648,0,0,1,17.93-17.931c7.664-4.3,16.437-6.35,26.342-6.35,9.146,0,17.184,1.494,24.282,4.856s12.881,7.652,17.364,13.629l-14.569,14.014c-6.724-7.29-15.5-11.026-26.149-11.026ZM1176.919,402.1V502.213h-24.281v-15.87a36.206,36.206,0,0,1-13.822,12.7,40.844,40.844,0,0,1-19.425,4.483,46.878,46.878,0,0,1-24.848-6.543,43.309,43.309,0,0,1-16.618-18.111,59.3,59.3,0,0,1-5.977-26.9,57.676,57.676,0,0,1,5.977-26.522,43.928,43.928,0,0,1,16.618-17.931c7.1-4.3,15.316-6.35,24.655-6.35a42.159,42.159,0,0,1,19.618,4.482,37.972,37.972,0,0,1,14,12.7V402.292l24.1-.193Zm-33.066,73.41c5.049-4.856,8.037-11.4,8.784-19.618v-7.1c-.747-8.026-3.736-14.569-8.784-19.606-5.037-4.856-11.58-7.471-19.425-7.471-8.4,0-15.124,2.8-20.353,8.592-5.23,5.6-7.845,13.074-8.037,22.04.192,8.965,2.807,16.244,8.037,22.04,5.229,5.6,11.954,8.592,20.353,8.592C1132.273,482.981,1138.817,480.547,1143.854,475.51Zm-96.559-60.517c8.025,9.146,11.954,21.847,11.954,38.477,0,3.169,0,5.6-.192,7.279H985.464c1.687,7.1,4.856,12.7,9.906,16.81s11.207,6.169,18.485,6.169a35.167,35.167,0,0,0,14.569-2.988,32.288,32.288,0,0,0,12.147-8.411l13.075,13.641a49.2,49.2,0,0,1-18.124,12.7,60.966,60.966,0,0,1-23.715,4.483c-10.279,0-19.245-2.06-26.9-6.35a43.651,43.651,0,0,1-17.931-17.93c-4.3-7.665-6.351-16.437-6.351-26.523,0-9.905,2.049-18.871,6.351-26.523A46.455,46.455,0,0,1,984.91,407.7a52.983,52.983,0,0,1,26.33-6.531C1027.3,401.352,1039.257,405.835,1047.294,414.993Zm-10.086,29.319c-.193-7.278-2.615-13.256-7.29-17.558s-10.641-6.531-18.3-6.531c-7.1,0-13.074,2.242-17.738,6.531-4.856,4.3-7.664,10.279-8.784,17.75h52.117ZM934.48,406.4a41.608,41.608,0,0,1,20.172-5.423v23.534c-10.279-.554-18.5,1.687-24.655,7.29-6.169,5.411-9.158,12.7-9.158,22.04v48.37H896.557V402.1h24.282v19.244A35.241,35.241,0,0,1,934.48,406.4Zm-56.227,89.654a47.355,47.355,0,0,1-25.028,7.278c-8.592,0-15.69-2.615-21.1-7.652s-8.218-12.52-8.218-22.413v-94.7l24.089-2.8v30.439h28.583v17.75H847.994v45.2c0,4.664.94,7.845,2.615,9.893,1.687,1.868,4.3,2.989,7.845,2.989,3.735,0,8.411-1.3,14.195-4.109l5.6,18.124ZM779.079,402.1h24.089v56.227c0,32.68-22.787,45.008-45.948,45.008s-45.948-12.135-45.948-45.008V402.1h24.1v56.974c0,12.508,9.339,22.787,21.847,22.787s21.859-10.279,21.859-22.787V402.1Zm-117.49-23.908a67.046,67.046,0,0,1,25.029,92.269,66.913,66.913,0,0,1-25.029,24.474,73.981,73.981,0,0,1-70.6,0,66.558,66.558,0,0,1-34.175-58.649c0-12.52,2.989-23.907,9.146-33.994a66.017,66.017,0,0,1,25.029-24.1,75.414,75.414,0,0,1,70.6,0Zm-57.336,19.618A45.045,45.045,0,0,0,588,459.073a45.177,45.177,0,0,0,16.256,16.244,43.325,43.325,0,0,0,22.04,5.977,43.337,43.337,0,0,0,37.729-22.22,43.9,43.9,0,0,0,5.784-22.607,46.7,46.7,0,0,0-5.784-22.594,43.665,43.665,0,0,0-37.729-22.04,44.848,44.848,0,0,0-22.04,5.977ZM373.948,313.385c34.367,0,86.112,10.64,110.393,34.741,6.158,6.158,14.2,18.111,14.2,35.861,0,31.379-25.221,79.376-52.864,107.393-14.376,14.388-37.163,33.247-67.988,33.247-30.065,0-53.046-20.546-59.577-27.077C292.7,471.955,274.4,433.3,274.4,397.062c0-22.787,6.531-42.779,22.968-59.4C312.684,322.158,339.026,313.385,373.948,313.385Zm42.586,124.949c11.58-11.581,14.762-25.956,14.762-33.8a29.552,29.552,0,0,0-8.592-21.293c-11.026-11.026-22.98-14.015-36.235-14.015-16.629,0-27.836,5.23-35.308,12.7-5.784,5.8-10.833,14.942-10.833,27.836s6.724,25.209,14.2,32.681A41.629,41.629,0,0,0,383.106,454.4C394.12,454.4,404.953,449.915,416.533,438.335Z" transform="translate(-274.4 -313.385)" fill="#5952ff"/>
</svg>
