<svg id="Market05" xmlns="http://www.w3.org/2000/svg" width="1120.679" height="221.895" viewBox="0 0 1120.679 221.895">
  <g id="Group_1202" data-name="Group 1202" transform="translate(0 0)">
    <path id="wordmark" d="M317.841,136.841H291.162a2.766,2.766,0,0,0-2.742,2.742v14.21c-6.735-10.967-20.945-19.944-39.643-19.944-30.166,0-56.094,22.686-56.094,63.329,0,40.388,24.682,62.578,57.089,62.578,17.452,0,31.167-7.235,39.142-18.7v7.73c0,17.452-8.476,31.412-35.65,31.412a49.056,49.056,0,0,1-34.4-13.209,2.782,2.782,0,0,0-3.993.495l-11.963,20.194c-1.5,2.5-1.251,3.993-.25,4.989,12.464,10.723,28.67,17.452,52.106,17.452,51.111,0,66.066-28.425,66.066-59.837V139.333A2.951,2.951,0,0,0,317.841,136.841ZM257.5,230.086c-18.2,0-31.912-12.964-31.912-32.663S239.3,164.765,257.5,164.765s31.662,12.463,31.662,32.657C289.166,217.372,275.7,230.086,257.5,230.086ZM379.418,90.964v164.8a2.765,2.765,0,0,1-2.742,2.742H349.753a2.77,2.77,0,0,1-2.747-2.742V90.964a2.774,2.774,0,0,1,2.747-2.742h26.924A2.769,2.769,0,0,1,379.418,90.964ZM458.7,134.1c-25.433,0-44.631,8.476-53.357,25.427a2.769,2.769,0,0,0,1,3.493l19.443,13.96a2.541,2.541,0,0,0,3.743-.745c5.484-9.722,17.452-12.964,29.17-12.964,14.46,0,21.19,4.983,21.19,12.213v2c0,2.992-1.746,4.488-6.234,4.989l-33.408,2.992c-22.435,2.241-38.892,15.956-38.892,38.141,0,22.441,16.957,37.9,41.139,37.9,18.948,0,31.161-9.221,37.4-18.948v13.715a2.766,2.766,0,0,0,2.742,2.742h26.679a2.765,2.765,0,0,0,2.742-2.742v-72.55C512.055,149.8,494.1,134.1,458.7,134.1Zm21.19,75.292c0,13.464-10.967,24.932-27.924,24.932-11.218,0-17.2-4.989-17.2-12.964,0-6.73,5.239-11.968,14.96-13.464l30.166-3.737ZM639.954,221.61c0,27.674-20.194,39.637-52.607,39.637-22.436,0-41.634-5.979-52.6-18.448a2.981,2.981,0,0,1,0-3.487L550.2,219.363a2.8,2.8,0,0,1,3.988-.25c8.226,8.231,20.694,13.465,36.4,13.465,8.976,0,16.206-2.492,16.206-9.221,0-6.485-6.485-7.981-26.929-12.469-17.947-3.737-40.388-11.968-40.388-38.4,0-24.682,19.449-38.642,51.361-38.642,20.945,0,35.9,6.234,46.622,16.206a2.994,2.994,0,0,1,.25,3.737L623,172.741a2.551,2.551,0,0,1-3.743.5c-7.23-6.485-19.193-10.472-30.911-10.472-9.972,0-15.461,3.242-15.461,8.476,0,5.984,6.485,7.48,28.175,12.219C622.007,188.2,639.954,196.177,639.954,221.61Zm123.411,0c0,27.674-20.194,39.637-52.6,39.637-22.441,0-41.639-5.979-52.607-18.448a2.981,2.981,0,0,1,0-3.487l15.456-19.949a2.8,2.8,0,0,1,3.988-.25c8.231,8.231,20.694,13.465,36.4,13.465,8.976,0,16.206-2.492,16.206-9.221,0-6.485-6.479-7.981-26.923-12.469-17.953-3.737-40.393-11.968-40.393-38.4,0-24.682,19.449-38.642,51.361-38.642,20.945,0,35.905,6.234,46.622,16.206a2.994,2.994,0,0,1,.25,3.737l-14.71,18.948a2.545,2.545,0,0,1-3.737.5c-7.23-6.485-19.2-10.472-30.917-10.472-9.972,0-15.456,3.242-15.456,8.476,0,5.984,6.479,7.48,28.169,12.219C745.418,188.2,763.365,196.177,763.365,221.61ZM906.224,88.222H879.551a2.774,2.774,0,0,0-2.747,2.742v63.329c-8.226-11.718-21.935-20.694-40.883-20.694-29.671,0-54.854,22.936-54.854,64.074S806.25,261.5,836.416,261.5c17.7,0,31.662-7.725,40.388-20.194v14.21a2.775,2.775,0,0,0,2.747,2.747h26.673a2.77,2.77,0,0,0,2.742-2.747V90.719A2.734,2.734,0,0,0,906.224,88.222ZM845.893,230.336c-18.2,0-31.912-12.964-31.912-32.663s13.709-32.657,31.912-32.657c17.947,0,31.912,12.463,31.912,32.657C877.8,217.617,863.84,230.336,845.893,230.336Zm148.343-96.487c-37.4,0-65.32,25.678-65.32,63.824,0,37.9,27.919,63.824,65.32,63.824s65.32-25.678,65.32-63.824C1059.556,159.777,1031.632,133.849,994.236,133.849Zm0,95.987c-18.2,0-32.413-12.964-32.413-32.413s14.21-32.407,32.413-32.407,32.412,12.964,32.412,32.407C1026.4,217.122,1012.433,229.836,994.236,229.836Zm148.343-95.987c-37.4,0-65.32,25.678-65.32,63.824,0,37.9,27.924,63.824,65.32,63.824s65.32-25.678,65.32-63.824C1208.149,159.777,1180.225,133.849,1142.579,133.849Zm0,95.987c-18.2,0-32.413-12.964-32.413-32.413s14.21-32.407,32.413-32.407,32.413,12.964,32.413,32.407C1174.991,217.122,1161.026,229.836,1142.579,229.836Zm170.784-90.253a3.705,3.705,0,0,0-2-2.992c-2.491-1.246-6.234-2.241-13.715-2.241-16.952,0-32.162,8.476-38.642,22.435v-17.2a2.766,2.766,0,0,0-2.742-2.742h-25.433a2.766,2.766,0,0,0-2.742,2.742V255.763a2.766,2.766,0,0,0,2.742,2.742h26.679a2.766,2.766,0,0,0,2.742-2.742V203.407c0-23.436,16.206-34.9,37.4-34.9,4.989,0,9.972,1,12.219,2a2.7,2.7,0,0,0,3.493-2.492Z" transform="translate(-192.684 -88.222)" fill="#0caa41"/>
  </g>
</svg>
