<svg id="Market04" xmlns="http://www.w3.org/2000/svg" width="1120.679" height="158.576" viewBox="0 0 1120.679 158.576">
  <path id="Path_2055" data-name="Path 2055" d="M470.957,373.988c0-32.12-22.037-51.346-51.346-51.346-29.129,0-52.478,20.906-52.478,53.027s23.349,53.587,52.478,53.587A59.408,59.408,0,0,0,450.04,421.6c10.834-5.971,18.486-18.486,19.606-26.329H448.18c-5.423,9.523-14.946,14.374-28.009,14.374-17.926,0-31-14.374-31-27.448h81.036a35.6,35.6,0,0,0,.75-8.212m-81.786-10.274c2.991-13.064,13.635-22.026,29.129-22.026s28.009,8.963,29.88,22.026Z" transform="translate(649.722 -271.43)" fill="#003e6f"/>
  <path id="Path_2056" data-name="Path 2056" d="M358,389.32c-4.661,10.834-15.495,17.926-28.009,17.926a30.995,30.995,0,0,1,0-61.99A30.585,30.585,0,0,1,358,363.742H381.9a53.067,53.067,0,0,0-51.917-41.084,53.593,53.593,0,0,0,0,107.185c25.029,0,45.934-17.366,51.917-40.524Z" transform="translate(-276.4 -271.267)" fill="#003e6f"/>
  <path id="Path_2057" data-name="Path 2057" d="M352.614,327.3a50.984,50.984,0,0,0-21.466-4.661,40.206,40.206,0,0,0-21.478,6.531v-2.991H287.633v99.712H309.67V378.279c0-8.963,0-14.934,1.121-19.047v-.56c1.12-4.1,3.551-7.092,8.4-10.083a21.175,21.175,0,0,1,11.954-3.54c5.411,0,8.4,1.12,11.943,3.54Z" transform="translate(-161.783 -271.43)" fill="#003e6f"/>
  <path id="Path_2058" data-name="Path 2058" d="M360.064,322.958v47.615c0,8.963,0,14.946-1.12,19.046v.56c-1.12,4.112-3.54,7.1-8.4,10.083a21.045,21.045,0,0,1-11.943,3.552c-5.423,0-8.4-1.12-11.955-3.552-4.112-2.98-6.532-5.411-8.4-10.083v-.56c-1.12-4.1-1.12-10.083-1.12-19.046V322.958H295.083V377.3c0,11.954.56,17.366,3.551,26.328A32.463,32.463,0,0,0,316.56,421.55a50.982,50.982,0,0,0,21.477,4.862,39.708,39.708,0,0,0,21.466-6.543v2.991h22.038v-99.9Z" transform="translate(-85.702 -268.206)" fill="#003e6f"/>
  <path id="Path_2059" data-name="Path 2059" d="M326.778,426.062V378.447c0-8.963,0-14.946,1.12-19.047v-.56c1.12-4.112,3.541-7.1,8.4-10.084a21.052,21.052,0,0,1,11.943-3.551c5.423,0,8.4,1.12,11.955,3.551,4.112,2.981,6.531,5.412,8.4,10.084v.56c1.12,4.1,1.12,10.083,1.12,19.047v47.615h22.038V371.725c0-11.955-.56-17.366-3.551-26.329a33.018,33.018,0,0,0-17.926-17.926,50.986,50.986,0,0,0-21.477-4.862,39.713,39.713,0,0,0-21.466,6.542v-2.621H305.3v99.712h21.478Z" transform="translate(18.584 -271.777)" fill="#003e6f"/>
  <path id="Path_2060" data-name="Path 2060" d="M396.391,389.32a30.115,30.115,0,0,1-28.009,17.926,30.995,30.995,0,1,1,0-61.99,30.61,30.61,0,0,1,28.009,18.486h23.9a53.056,53.056,0,0,0-51.907-41.084,53.593,53.593,0,1,0,51.907,66.662Z" transform="translate(115.38 -271.267)" fill="#003e6f"/>
  <path id="Path_2061" data-name="Path 2061" d="M347.527,472.36V424.731c0-8.966,0-14.95,1.12-19.052v-.56c1.12-4.113,3.54-7.105,8.4-10.086a21.045,21.045,0,0,1,11.943-3.552c5.422,0,8.4,1.121,11.954,3.552,4.112,2.981,6.531,5.413,8.4,10.086v.56c1.12,4.1,1.12,10.086,1.12,19.052V472.36h22.037V418.007c0-11.958-.56-17.371-3.551-26.336a33.025,33.025,0,0,0-17.926-17.931,50.976,50.976,0,0,0-21.477-4.863,39.708,39.708,0,0,0-21.466,6.544V318.075H326.05v153.9h21.477Z" transform="translate(230.38 -318.075)" fill="#003e6f"/>
  <path id="Path_2062" data-name="Path 2062" d="M388.584,368.919h-4.112a51.745,51.745,0,0,0-26.328,9.526V318.108H336.117V471.832h22.027v-5.413a52.191,52.191,0,0,0,29.88,9.525,50.635,50.635,0,0,0,19.046-3.553,85.648,85.648,0,0,0,15.495-8.965,53.9,53.9,0,0,0-33.981-94.507m30.25,57.894v1.12c0,1.121-.56,2.432-.56,3.553a31.971,31.971,0,0,1-1.871,3.553v.56a30.594,30.594,0,0,1-14.934,14.938c-1.871.561-4.112,1.872-5.972,1.872-1.12,0-1.871.561-2.991.561h-4.112a10.385,10.385,0,0,1-4.1-.561h-1.12a25.5,25.5,0,0,1-7.843-2.432h-.56a42.205,42.205,0,0,1-7.1-4.674,19.9,19.9,0,0,1-5.411-6.533l-1.872-3.553c-1.859-3.541-2.42-7.845-2.42-12.508a30.758,30.758,0,0,1,27.449-30.448h2.98a31.165,31.165,0,0,1,31,31.009c-.56.56-.56,1.681-.56,3.541" transform="translate(333.138 -317.738)" fill="#003e6f"/>
  <path id="Path_2063" data-name="Path 2063" d="M438.315,356.062h0c0-16.615-12.5-33.42-39.952-33.42S358.4,338.7,358.4,354.752v1.12c.561,9.523,5.972,21.477,26.889,26.329l18.486,4.112c4.851,1.12,13.074,3.551,13.634,10.083,0,8.4-10.834,13.074-18.486,13.074-8.963,0-18.486-4.672-18.486-13.074v-.56H358.961v.56c0,16.055,12.514,32.86,39.963,32.86,28.009,0,39.952-16.615,39.952-32.86v-.56c-.56-9.523-5.411-21.477-26.888-26.328L393.5,365.4c-4.1-1.121-13.624-3.54-13.624-9.523,0-9.523,9.523-12.5,18.487-12.5s18.486,4.661,18.486,13.063v.56h21.466Z" transform="translate(560.613 -271.43)" fill="#003e6f"/>
  <path id="Path_2064" data-name="Path 2064" d="M347.133,376.739a53.036,53.036,0,0,0,18.486,40.523c4.862,4.1,9.523,7.092,15.506,8.963a52.12,52.12,0,0,0,48.915-5.983v5.422h22.038V326.132H430.04v5.983c-7.652-5.422-16.615-8.4-26.138-9.523h-4.112c-28.379.56-52.658,24.457-52.658,54.147m22.6,0h0a31.168,31.168,0,0,1,31-31h2.981A30.128,30.128,0,0,1,428.18,363.1a31.3,31.3,0,0,1,2.98,13.074,42.684,42.684,0,0,1-2.42,12.515l-1.871,3.54a68.877,68.877,0,0,1-5.411,6.543,22.879,22.879,0,0,1-7.1,4.852h-.561a30.513,30.513,0,0,1-7.652,2.431h-1.121c-1.12,0-2.991.56-4.111.56h-4.1a5.706,5.706,0,0,1-2.991-.56,36.959,36.959,0,0,1-5.971-1.871A30.612,30.612,0,0,1,372.9,389.253v-.56a33.864,33.864,0,0,0-1.86-3.552,7.888,7.888,0,0,1-.56-3.551V380.47a25.6,25.6,0,0,1-.75-3.731" transform="translate(445.58 -271.941)" fill="#003e6f"/>
</svg>
