<svg id="Market01" xmlns="http://www.w3.org/2000/svg" width="1120.679" height="280.037" viewBox="0 0 1120.679 280.037">
  <path id="Path_2066" data-name="Path 2066" d="M-206.675-889.234c0-18.263-12.9-24.708-30.768-24.708h-27.672v88.111h11.288v-37.213h15.854l21.226,37.213H-204l-22.432-38.418C-214.482-867.333-206.675-875.525-206.675-889.234Zm-32.37,17.059h-14.781v-32.768h14.781c13.7,0,21.215,4.168,21.215,15.709C-217.831-877.813-225.348-872.175-239.046-872.175Z" transform="translate(632.294 1027.302)" fill="#2867b2"/>
  <path id="Path_2067" data-name="Path 2067" d="M-246.066-867.339h33.31v-9.536h-33.31v-27.667h39.489v-9.4h-50.775v88.1h52.119v-9.536h-40.834Z" transform="translate(718.084 1027.305)" fill="#2867b2"/>
  <path id="Path_2068" data-name="Path 2068" d="M-211.677-832.542c-16.781,0-27.383-13.976-27.383-36.129,0-21.89,11.143-35.6,27.925-35.6,7.264,0,12.89,3.229,17.6,8.2l6.313-7.12a32.527,32.527,0,0,0-24.046-10.89c-22.564,0-39.345,17.335-39.345,45.67,0,28.743,16.516,45.669,38.683,45.669,11.143,0,19.865-4.711,26.72-12.77l-6.313-6.843C-197.161-836.037-203.341-832.542-211.677-832.542Z" transform="translate(792.549 1025.822)" fill="#2867b2"/>
  <path id="Path_2069" data-name="Path 2069" d="M-184.1-889.234c0-18.263-12.9-24.708-30.768-24.708h-27.671v88.111h11.288v-37.213h15.842l21.227,37.213h12.758l-22.431-38.418C-191.893-867.333-184.1-875.525-184.1-889.234Zm-32.37,17.059H-231.25v-32.768h14.782c13.7,0,21.214,4.168,21.214,15.709C-195.254-877.813-202.771-872.175-216.469-872.175Z" transform="translate(881.781 1027.302)" fill="#2867b2"/>
  <path id="Path_2070" data-name="Path 2070" d="M-182.162-861.96c0,21.215-9.276,27.937-20.949,27.937-11.421,0-20.42-6.722-20.42-27.937v-51.982h-11.276v51.717c0,28.335,13.685,38.008,31.7,38.008s31.683-9.673,31.683-38.008v-51.717h-10.734Z" transform="translate(967.213 1027.302)" fill="#2867b2"/>
  <rect id="Rectangle_2265" data-name="Rectangle 2265" width="11.286" height="88.103" transform="translate(834.945 113.364)" fill="#2867b2"/>
  <path id="Path_2071" data-name="Path 2071" d="M-222.771-904.542h26.727v78.7H-184.9v-78.7h26.727v-9.4h-64.6Z" transform="translate(1100.215 1027.305)" fill="#2867b2"/>
  <path id="Path_2072" data-name="Path 2072" d="M-203.533-867.339h33.31v-9.536h-33.31v-27.667h39.489v-9.4h-50.775v88.1h52.12v-9.536h-40.834Z" transform="translate(1188.114 1027.305)" fill="#2867b2"/>
  <path id="Path_2073" data-name="Path 2073" d="M-168.975-864.249c11.963-3.084,19.745-11.276,19.745-24.985,0-18.263-12.89-24.708-30.756-24.708h-27.672v88.111h11.288v-37.213h15.842l21.227,37.213h12.758Zm-12.625-7.926h-14.77v-32.768h14.77c13.709,0,21.215,4.168,21.215,15.709C-160.386-877.813-167.891-872.175-181.6-872.175Z" transform="translate(1267.223 1027.302)" fill="#2867b2"/>
  <path id="Path_2074" data-name="Path 2074" d="M-35.517-923.348H-275.708a19.877,19.877,0,0,0-19.877,19.884v240.271a19.877,19.877,0,0,0,19.877,19.883H-35.517a19.877,19.877,0,0,0,19.878-19.883V-903.464A19.877,19.877,0,0,0-35.517-923.348Zm-164.38,214.4h-36.093V-817.232H-199.9Zm-18.046-118.683a20.236,20.236,0,0,1-20.239-20.232,20.239,20.239,0,0,1,20.239-20.245,20.237,20.237,0,0,1,20.227,20.245A20.234,20.234,0,0,1-217.943-827.632ZM-70.862-708.949h-36.08v-57.419c0-14.774-4.927-24.619-18.046-24.619-10.553,0-17.263,7.712-19.143,16.653v65.385h-36.08V-817.232h36.08v14.448c4.578-7.062,13.866-16.642,31.72-16.642,24.058,0,41.55,15.317,41.55,48.683Z" transform="translate(295.585 923.348)" fill="#2867b2"/>
</svg>
