<svg id="Market03" xmlns="http://www.w3.org/2000/svg" width="1120.679" height="251.262" viewBox="0 0 1120.679 251.262">
  <path id="Path_2075" data-name="Path 2075" d="M374.315,239.471c0,10.978-4.651,20.691-12.252,28.3-8.433,8.448-20.685,10.556-20.685,17.738,0,9.713,15.625,6.749,30.611,21.74a53.758,53.758,0,0,1-38.2,92.067c-30.189,0-54.259-23.86-54.259-53.842a53.3,53.3,0,0,1,16.046-38.225c14.986-14.991,30.611-12.027,30.611-21.74,0-7.182-12.24-9.291-20.685-17.738-7.6-7.6-12.251-17.317-12.251-28.717a39.831,39.831,0,0,1,39.9-39.695c4.217,0,8.023.627,11.192.627,5.7,0,8.649-2.531,8.649-6.544,0-2.326-1.06-5.278-1.06-8.448a13.41,13.41,0,0,1,26.816.422c0,7.821-6.132,11.412-10.77,13.1-3.795,1.265-6.759,2.953-6.759,6.749C361.22,212.441,374.315,219.407,374.315,239.471Zm-4.229,106c0-20.908-15.408-37.8-36.3-37.8s-36.309,16.895-36.309,37.8c0,20.691,15.408,37.791,36.309,37.791S370.086,366.16,370.086,345.469ZM357.642,239.049c0-13.3-10.77-24.282-23.853-24.282s-23.853,10.978-23.853,24.282,10.758,24.282,23.853,24.282S357.642,252.353,357.642,239.049Z" transform="translate(-279.53 -148.05)" fill="#23a47f"/>
  <path id="Path_2076" data-name="Path 2076" d="M337.263,174.942a11.45,11.45,0,0,1,11.818,11.4,11.268,11.268,0,0,1-11.614,11.4c-6.963,0-10.757-4.433-17.721-4.433-6.758,0-12.035,4.855-12.035,13.095v66.487a8.976,8.976,0,1,1-17.95,0v-89.5a8.969,8.969,0,0,1,8.867-9.084c9.084,0,7.4,8.662,16.468,8.662C323.747,182.965,326.915,174.942,337.263,174.942Z" transform="translate(-166.498 -121.512)" fill="#23a47f"/>
  <path id="Path_2077" data-name="Path 2077" d="M295.334,229.09c0-31.864,21.949-54.874,52.139-54.874,27.648,0,49.6,20.263,49.6,47.911,0,6.541-4.216,10.975-10.336,10.975H318.127c-2.952,0-4.011,1.06-4.011,3.385,0,5.277,4.228,14.986,10.553,21.311s14.986,10.143,27.238,10.143a39.786,39.786,0,0,0,23.214-7.819,10.133,10.133,0,0,1,6.12-2.325,8.4,8.4,0,0,1,5.072,14.781c-8.867,7.385-21.323,11.4-34.828,11.4C318.765,283.975,295.334,260.34,295.334,229.09ZM370.061,198.7c-5.915-5.9-13.517-8.867-22.588-8.867a33.365,33.365,0,0,0-23.648,9.71c-4.855,4.855-8.228,11.191-8.228,15.42,0,2.108,1.265,2.952,4.012,2.952h54.874c2.542,0,3.807-.843,3.807-2.952C378.289,209.887,374.277,202.924,370.061,198.7Z" transform="translate(-104.885 -122.473)" fill="#23a47f"/>
  <path id="Path_2078" data-name="Path 2078" d="M305.286,229.09c0-31.864,21.95-54.874,52.139-54.874,27.648,0,49.6,20.263,49.6,47.911,0,6.541-4.216,10.975-10.336,10.975H328.079c-2.952,0-4.012,1.06-4.012,3.385,0,5.277,4.229,14.986,10.554,21.311s14.986,10.143,27.238,10.143a39.786,39.786,0,0,0,23.215-7.819,10.134,10.134,0,0,1,6.12-2.325,8.4,8.4,0,0,1,5.072,14.781c-8.867,7.385-21.323,11.4-34.828,11.4C328.717,283.975,305.286,260.34,305.286,229.09ZM380.013,198.7c-5.915-5.9-13.517-8.867-22.588-8.867a33.365,33.365,0,0,0-23.648,9.71c-4.855,4.855-8.228,11.191-8.228,15.42,0,2.108,1.265,2.952,4.012,2.952h54.873c2.542,0,3.807-.843,3.807-2.952C388.241,209.887,384.229,202.924,380.013,198.7Z" transform="translate(5.091 -122.473)" fill="#23a47f"/>
  <path id="Path_2079" data-name="Path 2079" d="M397.031,282.927a9.011,9.011,0,0,1-9.071-9.084V216.428c0-14.986-11.83-26.383-27.021-26.383-15.408,0-27.238,11.613-27.238,26.383v57.415a8.97,8.97,0,1,1-17.938,0V184.131a8.881,8.881,0,0,1,8.661-8.867c8.854,0,8.433,8.023,13.083,8.023s10.975-9.071,27.443-9.071c23.01,0,40.947,19.2,40.947,42.212v57.415A8.969,8.969,0,0,1,397.031,282.927Z" transform="translate(120.867 -122.473)" fill="#23a47f"/>
  <path id="Path_2080" data-name="Path 2080" d="M407.088,330.352a9.014,9.014,0,0,1-9.083-9.083V263.853c0-14.986-11.818-26.383-27.009-26.383-15.42,0-27.238,11.613-27.238,26.383v57.416a8.97,8.97,0,1,1-17.938,0V178.994a8.969,8.969,0,1,1,17.938,0v46.658c0,2.53,1.06,4.012,3.795,4.012,4.65,0,10.987-8.023,27.455-8.023,23,0,40.947,19.2,40.947,42.212v57.416A8.969,8.969,0,0,1,407.088,330.352Z" transform="translate(232.003 -169.923)" fill="#23a47f"/>
  <path id="Path_2081" data-name="Path 2081" d="M335.351,229.09c0-30.6,24.479-54.874,55.3-54.874s55.307,24.275,55.307,54.874-24.479,54.886-55.307,54.886S335.351,259.7,335.351,229.09Zm92.664,0c0-21.311-15.83-38.839-37.369-38.839-21.311,0-37.141,17.528-37.141,38.839s15.829,38.851,37.141,38.851C412.186,267.941,428.015,250.413,428.015,229.09Z" transform="translate(337.33 -122.473)" fill="#23a47f"/>
  <path id="Path_2082" data-name="Path 2082" d="M355.448,174.3a9.011,9.011,0,0,1,9.072,9.084V240.8c0,14.987,11.818,26.383,27.021,26.383,15.408,0,27.226-11.613,27.226-26.383V183.387a8.969,8.969,0,1,1,17.938,0v89.7a8.882,8.882,0,0,1-8.65,8.879c-8.867,0-8.445-8.023-13.083-8.023s-10.975,9.071-27.443,9.071c-23.009,0-40.947-19.2-40.947-42.212V183.387A8.961,8.961,0,0,1,355.448,174.3Z" transform="translate(461.435 -121.511)" fill="#23a47f"/>
  <path id="Path_2083" data-name="Path 2083" d="M362.894,276.169c-4-2.53-6.746-5.072-6.746-9.927a8.067,8.067,0,0,1,8.023-8.228c5.277,0,7.59,3.168,12.023,5.481a38.136,38.136,0,0,0,19.636,4.867c14.348,0,21.528-6.554,21.528-14.565,0-11.409-10.553-13.517-24.9-17.312-17.733-4.65-34.839-9.926-34.839-30.394,0-18.155,13.938-31.876,38.634-31.876a49.607,49.607,0,0,1,25.961,6.963c2.531,1.482,5.072,4.65,5.072,8.228a8.7,8.7,0,0,1-8.661,8.662c-3.169,0-5.7-2.12-8.855-4.229a25.141,25.141,0,0,0-14.155-4.012c-14.143,0-20.263,6.12-20.263,14.36,0,10.77,10.348,13.3,25.13,16.878,17.3,4.229,34.406,9.722,34.406,30.611,0,18.155-13.517,32.3-39.478,32.3C382.747,283.975,371.351,281.446,362.894,276.169Z" transform="translate(567.178 -122.473)" fill="#23a47f"/>
  <path id="Path_2084" data-name="Path 2084" d="M364.085,229.09c0-31.864,21.95-54.874,52.139-54.874,27.648,0,49.6,20.263,49.6,47.911,0,6.541-4.216,10.975-10.336,10.975H386.878c-2.952,0-4.011,1.06-4.011,3.385,0,5.277,4.228,14.986,10.553,21.311s15,10.143,27.238,10.143a39.787,39.787,0,0,0,23.214-7.819,10.133,10.133,0,0,1,6.12-2.325,8.4,8.4,0,0,1,5.072,14.781c-8.866,7.385-21.323,11.4-34.827,11.4C387.516,283.975,364.085,260.34,364.085,229.09ZM438.812,198.7c-5.915-5.9-13.517-8.867-22.588-8.867a33.338,33.338,0,0,0-23.636,9.71c-4.867,4.855-8.24,11.191-8.24,15.42,0,2.108,1.265,2.952,4.012,2.952h54.886c2.53,0,3.795-.843,3.795-2.952C447.04,209.887,443.029,202.924,438.812,198.7Z" transform="translate(654.857 -122.473)" fill="#23a47f"/>
</svg>
